<?xml version="1.0" encoding="utf-8"?>
<svg version="1.1" xmlns:xlink="http://www.w3.org/1999/xlink" width="44px" height="49px" xmlns="http://www.w3.org/2000/svg">
  <defs>
    <filter x="750px" y="120px" width="44px" height="49px" filterUnits="userSpaceOnUse" id="filter140">
      <feOffset dx="1" dy="1" in="SourceAlpha" result="shadowOffsetInner" />
      <feGaussianBlur stdDeviation="2.5" in="shadowOffsetInner" result="shadowGaussian" />
      <feComposite in2="shadowGaussian" operator="atop" in="SourceAlpha" result="shadowComposite" />
      <feColorMatrix type="matrix" values="0 0 0 0 0  0 0 0 0 0  0 0 0 0 0  0 0 0 0.698039215686274 0  " in="shadowComposite" />
    </filter>
    <g id="widget141">
      <path d="M 755.229508196721 152.5  C 755.229508196721 152.5  755.229508196721 124.671597633136  755.229508196721 124.671597633136  C 755.229508196721 124.671597633136  787.5 124.671597633136  787.5 124.671597633136  C 787.5 124.671597633136  787.5 152.5  787.5 152.5  C 787.5 152.5  779.450827991284 152.5  779.450827991284 152.5  C 779.450827991284 152.5  771.010875797941 161.886438296938  771.010875797941 161.886438296938  C 771.010875797941 161.886438296938  762.902449722321 152.5  762.902449722321 152.5  C 762.902449722321 152.5  755.229508196721 152.5  755.229508196721 152.5  Z " fill-rule="nonzero" fill="#009dd9" stroke="none" />
      <path d="M 754.729508196721 153  C 754.729508196721 153  754.729508196721 124.171597633136  754.729508196721 124.171597633136  C 754.729508196721 124.171597633136  788 124.171597633136  788 124.171597633136  C 788 124.171597633136  788 153  788 153  C 788 153  779.673647553635 153  779.673647553635 153  C 779.673647553635 153  771.003360655738 162.642603550296  771.003360655738 162.642603550296  C 771.003360655738 162.642603550296  762.673647553635 153  762.673647553635 153  C 762.673647553635 153  754.729508196721 153  754.729508196721 153  Z M 755.729508196721 152  C 755.729508196721 152  763.131251891008 152  763.131251891008 152  C 763.131251891008 152  771.018390940144 161.130273043579  771.018390940144 161.130273043579  C 771.018390940144 161.130273043579  779.228008428933 152  779.228008428933 152  C 779.228008428933 152  787 152  787 152  C 787 152  787 125.171597633136  787 125.171597633136  C 787 125.171597633136  755.729508196721 125.171597633136  755.729508196721 125.171597633136  C 755.729508196721 125.171597633136  755.729508196721 152  755.729508196721 152  Z " fill-rule="nonzero" fill="#ffffff" stroke="none" />
    </g>
  </defs>
  <g transform="matrix(1 0 0 1 -750 -120 )">
    <use xlink:href="#widget141" filter="url(#filter140)" />
    <use xlink:href="#widget141" />
  </g>
</svg>