<?xml version="1.0" encoding="utf-8"?>
<svg version="1.1" xmlns:xlink="http://www.w3.org/1999/xlink" width="40px" height="40px" xmlns="http://www.w3.org/2000/svg">
  <defs>
    <filter x="824px" y="7px" width="40px" height="40px" filterUnits="userSpaceOnUse" id="filter20">
      <feOffset dx="1" dy="1" in="SourceAlpha" result="shadowOffsetInner" />
      <feGaussianBlur stdDeviation="2.5" in="shadowOffsetInner" result="shadowGaussian" />
      <feComposite in2="shadowGaussian" operator="atop" in="SourceAlpha" result="shadowComposite" />
      <feColorMatrix type="matrix" values="0 0 0 0 0  0 0 0 0 0  0 0 0 0 0  0 0 0 0.698039215686274 0  " in="shadowComposite" />
    </filter>
    <g id="widget21">
      <path d="M 843 11  C 851.4 11  858 17.6  858 26  C 858 34.4  851.4 41  843 41  C 834.6 41  828 34.4  828 26  C 828 17.6  834.6 11  843 11  Z " fill-rule="nonzero" fill="#009dd9" stroke="none" />
      <path d="M 843 11.5  C 851.12 11.5  857.5 17.88  857.5 26  C 857.5 34.12  851.12 40.5  843 40.5  C 834.88 40.5  828.5 34.12  828.5 26  C 828.5 17.88  834.88 11.5  843 11.5  Z " stroke-width="1" stroke="#ffffff" fill="none" />
    </g>
  </defs>
  <g transform="matrix(1 0 0 1 -824 -7 )">
    <use xlink:href="#widget21" filter="url(#filter20)" />
    <use xlink:href="#widget21" />
  </g>
</svg>