<?xml version="1.0" encoding="utf-8"?>
<svg version="1.1" xmlns:xlink="http://www.w3.org/1999/xlink" width="67px" height="67px" xmlns="http://www.w3.org/2000/svg">
  <g transform="matrix(1 0 0 1 -311 -52 )">
    <path d="M 12.1818181818182 48.7272727272727  L 18.2727272727273 48.7272727272727  L 18.2727272727273 54.8181818181818  L 12.1818181818182 54.8181818181818  L 12.1818181818182 48.7272727272727  Z M 12.1818181818182 12.1818181818182  L 18.2727272727273 12.1818181818182  L 18.2727272727273 18.2727272727273  L 12.1818181818182 18.2727272727273  L 12.1818181818182 12.1818181818182  Z M 48.7272727272727 12.1818181818182  L 54.8181818181818 12.1818181818182  L 54.8181818181818 18.2727272727273  L 48.7272727272727 18.2727272727273  L 48.7272727272727 12.1818181818182  Z M 6 42  L 6 60  L 25 60  L 25 42  L 6 42  Z M 6 6  L 6 25  L 25 25  L 25 6  L 6 6  Z M 42 6  L 42 25  L 61 25  L 61 6  L 42 6  Z M 0 36  L 31 36  L 31 67  L 0 67  L 0 36  Z M 48.7272727272727 60.9090909090909  L 54.8181818181818 60.9090909090909  L 54.8181818181818 67  L 48.7272727272727 67  L 48.7272727272727 60.9090909090909  Z M 60.9090909090909 60.9090909090909  L 67 60.9090909090909  L 67 67  L 60.9090909090909 67  L 60.9090909090909 60.9090909090909  Z M 60.9090909090909 36.5454545454546  L 67 36.5454545454546  L 67 54  L 48.7272727272727 54  L 48.7272727272727 48.7272727272727  L 42 48.7272727272727  L 42 67  L 36 67  L 36 36  L 54.8181818181818 36  L 54.8181818181818 42.6363636363636  L 60.9090909090909 42.6363636363636  L 60.9090909090909 36.5454545454546  Z M 0 0  L 31 0  L 31 31  L 0 31  L 0 0  Z M 36 0  L 67 0  L 67 31  L 36 31  L 36 0  Z " fill-rule="nonzero" fill="#333333" stroke="none" transform="matrix(1 0 0 1 311 52 )" />
  </g>
</svg>