<?xml version="1.0" encoding="utf-8"?>
<svg version="1.1" xmlns:xlink="http://www.w3.org/1999/xlink" width="60px" height="43px" xmlns="http://www.w3.org/2000/svg">
  <defs>
    <filter x="395px" y="28px" width="60px" height="43px" filterUnits="userSpaceOnUse" id="filter4">
      <feOffset dx="1" dy="1" in="SourceAlpha" result="shadowOffsetInner" />
      <feGaussianBlur stdDeviation="2.5" in="shadowOffsetInner" result="shadowGaussian" />
      <feComposite in2="shadowGaussian" operator="atop" in="SourceAlpha" result="shadowComposite" />
      <feColorMatrix type="matrix" values="0 0 0 0 0  0 0 0 0 0  0 0 0 0 0  0 0 0 0.698039215686274 0  " in="shadowComposite" />
    </filter>
    <g id="widget5">
      <path d="M 416.229508196721 60.5  C 416.229508196721 60.5  416.229508196721 53.8481997987671  416.229508196721 53.8481997987671  C 416.229508196721 53.8481997987671  401.109331094536 63.0913070450754  401.109331094536 63.0913070450754  C 401.109331094536 63.0913070450754  416.229508196721 38.3807150408159  416.229508196721 38.3807150408159  C 416.229508196721 38.3807150408159  416.229508196721 32.6715976331361  416.229508196721 32.6715976331361  C 416.229508196721 32.6715976331361  448.5 32.6715976331361  448.5 32.6715976331361  C 448.5 32.6715976331361  448.5 60.5  448.5 60.5  C 448.5 60.5  416.229508196721 60.5  416.229508196721 60.5  Z " fill-rule="nonzero" fill="#009dd9" stroke="none" />
      <path d="M 415.729508196721 61  C 415.729508196721 61  415.729508196721 54.7398791108777  415.729508196721 54.7398791108777  C 415.729508196721 54.7398791108777  399.599999999999 64.6000000000022  399.599999999999 64.6000000000022  C 399.599999999999 64.6000000000022  415.729508196721 38.2398791108777  415.729508196721 38.2398791108777  C 415.729508196721 38.2398791108777  415.729508196721 32.1715976331361  415.729508196721 32.1715976331361  C 415.729508196721 32.1715976331361  449 32.1715976331361  449 32.1715976331361  C 449 32.1715976331361  449 61  449 61  C 449 61  415.729508196721 61  415.729508196721 61  Z M 416.729508196721 60  C 416.729508196721 60  448 60  448 60  C 448 60  448 33.1715976331361  448 33.1715976331361  C 448 33.1715976331361  416.729508196721 33.1715976331361  416.729508196721 33.1715976331361  C 416.729508196721 33.1715976331361  416.729508196721 38.5215509707542  416.729508196721 38.5215509707542  C 416.729508196721 38.5215509707542  402.618662189074 61.5826140901486  402.618662189074 61.5826140901486  C 402.618662189074 61.5826140901486  416.729508196721 52.9565204866564  416.729508196721 52.9565204866564  C 416.729508196721 52.9565204866564  416.729508196721 60  416.729508196721 60  Z " fill-rule="nonzero" fill="#ffffff" stroke="none" />
    </g>
  </defs>
  <g transform="matrix(1 0 0 1 -395 -28 )">
    <use xlink:href="#widget5" filter="url(#filter4)" />
    <use xlink:href="#widget5" />
  </g>
</svg>