<?xml version="1.0" encoding="utf-8"?>
<svg version="1.1" xmlns:xlink="http://www.w3.org/1999/xlink" width="44px" height="56px" xmlns="http://www.w3.org/2000/svg">
  <defs>
    <filter x="210px" y="422px" width="44px" height="56px" filterUnits="userSpaceOnUse" id="filter188">
      <feOffset dx="1" dy="1" in="SourceAlpha" result="shadowOffsetInner" />
      <feGaussianBlur stdDeviation="2.5" in="shadowOffsetInner" result="shadowGaussian" />
      <feComposite in2="shadowGaussian" operator="atop" in="SourceAlpha" result="shadowComposite" />
      <feColorMatrix type="matrix" values="0 0 0 0 0  0 0 0 0 0  0 0 0 0 0  0 0 0 0.698039215686274 0  " in="shadowComposite" />
    </filter>
    <g id="widget189">
      <path d="M 215.229508196721 454.5  C 215.229508196721 454.5  215.229508196721 426.671597633136  215.229508196721 426.671597633136  C 215.229508196721 426.671597633136  247.5 426.671597633136  247.5 426.671597633136  C 247.5 426.671597633136  247.5 454.5  247.5 454.5  C 247.5 454.5  230.930883758984 454.5  230.930883758984 454.5  C 230.930883758984 454.5  233.48950114303 470.337194519316  233.48950114303 470.337194519316  C 233.48950114303 470.337194519316  214.913720054156 454.5  214.913720054156 454.5  C 214.913720054156 454.5  215.229508196721 454.5  215.229508196721 454.5  Z " fill-rule="nonzero" fill="#009dd9" stroke="none" />
      <path d="M 214.729508196721 455  C 214.729508196721 455  214.729508196721 426.171597633136  214.729508196721 426.171597633136  C 214.729508196721 426.171597633136  248 426.171597633136  248 426.171597633136  C 248 426.171597633136  248 455  248 455  C 248 455  231.518145677674 455  231.518145677674 455  C 231.518145677674 455  234.200000000001 471.599999999999  234.200000000001 471.599999999999  C 234.200000000001 471.599999999999  214.729508196721 455  214.729508196721 455  Z M 215.729508196721 454  C 215.729508196721 454  215.09793191159 454  215.09793191159 454  C 215.09793191159 454  232.77900228606 469.074389038634  232.77900228606 469.074389038634  C 232.77900228606 469.074389038634  230.343621840295 454  230.343621840295 454  C 230.343621840295 454  247 454  247 454  C 247 454  247 427.171597633136  247 427.171597633136  C 247 427.171597633136  215.729508196721 427.171597633136  215.729508196721 427.171597633136  C 215.729508196721 427.171597633136  215.729508196721 454  215.729508196721 454  Z " fill-rule="nonzero" fill="#ffffff" stroke="none" />
    </g>
  </defs>
  <g transform="matrix(1 0 0 1 -210 -422 )">
    <use xlink:href="#widget189" filter="url(#filter188)" />
    <use xlink:href="#widget189" />
  </g>
</svg>