<?xml version="1.0" encoding="utf-8"?>
<svg version="1.1" xmlns:xlink="http://www.w3.org/1999/xlink" width="44px" height="53px" xmlns="http://www.w3.org/2000/svg">
  <defs>
    <filter x="427px" y="370px" width="44px" height="53px" filterUnits="userSpaceOnUse" id="filter190">
      <feOffset dx="1" dy="1" in="SourceAlpha" result="shadowOffsetInner" />
      <feGaussianBlur stdDeviation="2.5" in="shadowOffsetInner" result="shadowGaussian" />
      <feComposite in2="shadowGaussian" operator="atop" in="SourceAlpha" result="shadowComposite" />
      <feColorMatrix type="matrix" values="0 0 0 0 0  0 0 0 0 0  0 0 0 0 0  0 0 0 0.698039215686274 0  " in="shadowComposite" />
    </filter>
    <g id="widget191">
      <path d="M 432.229508196721 402.5  C 432.229508196721 402.5  432.229508196721 374.671597633136  432.229508196721 374.671597633136  C 432.229508196721 374.671597633136  464.5 374.671597633136  464.5 374.671597633136  C 464.5 374.671597633136  464.5 402.5  464.5 402.5  C 464.5 402.5  448.24811225634 402.5  448.24811225634 402.5  C 448.24811225634 402.5  444.556527127137 415.243496111563  444.556527127137 415.243496111563  C 444.556527127137 415.243496111563  431.93806034901 402.5  431.93806034901 402.5  C 431.93806034901 402.5  432.229508196721 402.5  432.229508196721 402.5  Z " fill-rule="nonzero" fill="#009dd9" stroke="none" />
      <path d="M 431.729508196721 403  C 431.729508196721 403  431.729508196721 374.171597633136  431.729508196721 374.171597633136  C 431.729508196721 374.171597633136  465 374.171597633136  465 374.171597633136  C 465 374.171597633136  465 403  465 403  C 465 403  448.623826937198 403  448.623826937198 403  C 448.623826937198 403  444.799999999999 416.200000000001  444.799999999999 416.200000000001  C 444.799999999999 416.200000000001  431.729508196721 403  431.729508196721 403  Z M 432.729508196721 402  C 432.729508196721 402  432.146612501298 402  432.146612501298 402  C 432.146612501298 402  444.313054254276 414.286992223126  444.313054254276 414.286992223126  C 444.313054254276 414.286992223126  447.872397575483 402  447.872397575483 402  C 447.872397575483 402  464 402  464 402  C 464 402  464 375.171597633136  464 375.171597633136  C 464 375.171597633136  432.729508196721 375.171597633136  432.729508196721 375.171597633136  C 432.729508196721 375.171597633136  432.729508196721 402  432.729508196721 402  Z " fill-rule="nonzero" fill="#ffffff" stroke="none" />
    </g>
  </defs>
  <g transform="matrix(1 0 0 1 -427 -370 )">
    <use xlink:href="#widget191" filter="url(#filter190)" />
    <use xlink:href="#widget191" />
  </g>
</svg>