<?xml version="1.0" encoding="utf-8"?>
<svg version="1.1" xmlns:xlink="http://www.w3.org/1999/xlink" width="12px" height="12px" viewBox="17 716  12 12" xmlns="http://www.w3.org/2000/svg">
  <path d="M 23 716  C 26.36 716  29 718.64  29 722  C 29 725.36  26.36 728  23 728  C 19.64 728  17 725.36  17 722  C 17 718.64  19.64 716  23 716  Z " fill-rule="nonzero" fill="#ffffff" stroke="none" />
  <path d="M 23 716.5  C 26.08 716.5  28.5 718.92  28.5 722  C 28.5 725.08  26.08 727.5  23 727.5  C 19.92 727.5  17.5 725.08  17.5 722  C 17.5 718.92  19.92 716.5  23 716.5  Z " stroke-width="1" stroke="#797979" fill="none" />
  <path d="M 23 725  C 21.32 725  20 723.68  20 722  C 20 720.32  21.32 719  23 719  C 24.68 719  26 720.32  26 722  C 26 723.68  24.68 725  23 725  " fill-rule="nonzero" fill="#797979" stroke="none" />
</svg>