<?xml version="1.0" encoding="utf-8"?>
<svg version="1.1" xmlns:xlink="http://www.w3.org/1999/xlink" width="40px" height="40px" xmlns="http://www.w3.org/2000/svg">
  <defs>
    <filter x="836px" y="56px" width="40px" height="40px" filterUnits="userSpaceOnUse" id="filter192">
      <feOffset dx="1" dy="1" in="SourceAlpha" result="shadowOffsetInner" />
      <feGaussianBlur stdDeviation="2.5" in="shadowOffsetInner" result="shadowGaussian" />
      <feComposite in2="shadowGaussian" operator="atop" in="SourceAlpha" result="shadowComposite" />
      <feColorMatrix type="matrix" values="0 0 0 0 0  0 0 0 0 0  0 0 0 0 0  0 0 0 0.698039215686274 0  " in="shadowComposite" />
    </filter>
    <g id="widget193">
      <path d="M 855 60  C 863.4 60  870 66.6  870 75  C 870 83.4  863.4 90  855 90  C 846.6 90  840 83.4  840 75  C 840 66.6  846.6 60  855 60  Z " fill-rule="nonzero" fill="#009dd9" stroke="none" />
      <path d="M 855 60.5  C 863.12 60.5  869.5 66.88  869.5 75  C 869.5 83.12  863.12 89.5  855 89.5  C 846.88 89.5  840.5 83.12  840.5 75  C 840.5 66.88  846.88 60.5  855 60.5  Z " stroke-width="1" stroke="#ffffff" fill="none" />
    </g>
  </defs>
  <g transform="matrix(1 0 0 1 -836 -56 )">
    <use xlink:href="#widget193" filter="url(#filter192)" />
    <use xlink:href="#widget193" />
  </g>
</svg>