<?xml version="1.0" encoding="utf-8"?>
<svg version="1.1" xmlns:xlink="http://www.w3.org/1999/xlink" width="63px" height="39px" xmlns="http://www.w3.org/2000/svg">
  <defs>
    <filter x="538px" y="137px" width="63px" height="39px" filterUnits="userSpaceOnUse" id="filter16">
      <feOffset dx="1" dy="1" in="SourceAlpha" result="shadowOffsetInner" />
      <feGaussianBlur stdDeviation="2.5" in="shadowOffsetInner" result="shadowGaussian" />
      <feComposite in2="shadowGaussian" operator="atop" in="SourceAlpha" result="shadowComposite" />
      <feColorMatrix type="matrix" values="0 0 0 0 0  0 0 0 0 0  0 0 0 0 0  0 0 0 0.698039215686274 0  " in="shadowComposite" />
    </filter>
    <g id="widget17">
      <path d="M 562.229508196721 169.5  C 562.229508196721 169.5  562.229508196721 162.421833033244  562.229508196721 162.421833033244  C 562.229508196721 162.421833033244  543.641868156012 153.722751560363  543.641868156012 153.722751560363  C 543.641868156012 153.722751560363  562.229508196721 148.621138316541  562.229508196721 148.621138316541  C 562.229508196721 148.621138316541  562.229508196721 141.671597633136  562.229508196721 141.671597633136  C 562.229508196721 141.671597633136  594.5 141.671597633136  594.5 141.671597633136  C 594.5 141.671597633136  594.5 169.5  594.5 169.5  C 594.5 169.5  562.229508196721 169.5  562.229508196721 169.5  Z " fill-rule="nonzero" fill="#009dd9" stroke="none" />
      <path d="M 561.729508196721 170  C 561.729508196721 170  561.729508196721 162.739879110878  561.729508196721 162.739879110878  C 561.729508196721 162.739879110878  542.200000000001 153.600000000002  542.200000000001 153.600000000002  C 542.200000000001 153.600000000002  561.729508196721 148.239879110878  561.729508196721 148.239879110878  C 561.729508196721 148.239879110878  561.729508196721 141.171597633136  561.729508196721 141.171597633136  C 561.729508196721 141.171597633136  595 141.171597633136  595 141.171597633136  C 595 141.171597633136  595 170  595 170  C 595 170  561.729508196721 170  561.729508196721 170  Z M 562.729508196721 169  C 562.729508196721 169  594 169  594 169  C 594 169  594 142.171597633136  594 142.171597633136  C 594 142.171597633136  562.729508196721 142.171597633136  562.729508196721 142.171597633136  C 562.729508196721 142.171597633136  562.729508196721 149.002397522204  562.729508196721 149.002397522204  C 562.729508196721 149.002397522204  545.083736312023 153.845503120725  545.083736312023 153.845503120725  C 545.083736312023 153.845503120725  562.729508196721 162.103786955609  562.729508196721 162.103786955609  C 562.729508196721 162.103786955609  562.729508196721 169  562.729508196721 169  Z " fill-rule="nonzero" fill="#ffffff" stroke="none" />
    </g>
  </defs>
  <g transform="matrix(1 0 0 1 -538 -137 )">
    <use xlink:href="#widget17" filter="url(#filter16)" />
    <use xlink:href="#widget17" />
  </g>
</svg>