<?xml version="1.0" encoding="utf-8"?>
<svg version="1.1" xmlns:xlink="http://www.w3.org/1999/xlink" width="12px" height="12px" viewBox="157 292  12 12" xmlns="http://www.w3.org/2000/svg">
  <path d="M 163 292  C 166.36 292  169 294.64  169 298  C 169 301.36  166.36 304  163 304  C 159.64 304  157 301.36  157 298  C 157 294.64  159.64 292  163 292  Z " fill-rule="nonzero" fill="#ffffff" stroke="none" />
  <path d="M 163 292.5  C 166.08 292.5  168.5 294.92  168.5 298  C 168.5 301.08  166.08 303.5  163 303.5  C 159.92 303.5  157.5 301.08  157.5 298  C 157.5 294.92  159.92 292.5  163 292.5  Z " stroke-width="1" stroke="#797979" fill="none" />
  <path d="M 163 301  C 161.32 301  160 299.68  160 298  C 160 296.32  161.32 295  163 295  C 164.68 295  166 296.32  166 298  C 166 299.68  164.68 301  163 301  " fill-rule="nonzero" fill="#797979" stroke="none" />
</svg>