<?xml version="1.0" encoding="utf-8"?>
<svg version="1.1" xmlns:xlink="http://www.w3.org/1999/xlink" width="44px" height="51px" xmlns="http://www.w3.org/2000/svg">
  <g transform="matrix(1 0 0 1 -568 10 )">
    <path d="M 568.850157492125 19  C 568.850157492125 19  568.850157492125 -1  568.850157492125 -1  C 568.850157492125 -5.97056274847714  572.879594743648 -10  577.850157492125 -10  C 577.850157492125 -10  603 -10  603 -10  C 607.970562748477 -10  612 -5.97056274847714  612 -1  C 612 -1  612 19  612 19  C 612 23.9705627484772  607.970562748477 28  603 28  C 603 28  596.903777115548 28  596.903777115548 28  C 596.903777115548 28  588.799999999999 40.5999999999985  588.799999999999 40.5999999999985  C 588.799999999999 40.5999999999985  576.851280177992 27.9443973587553  576.851280177992 27.9443973587553  C 572.29557696579 27.4356332233896  568.850157492125 23.5840236368395  568.850157492125 19  Z " fill-rule="nonzero" fill="#02a7f0" stroke="none" />
  </g>
</svg>