<?xml version="1.0" encoding="utf-8"?>
<svg version="1.1" xmlns:xlink="http://www.w3.org/1999/xlink" width="68px" height="38px" xmlns="http://www.w3.org/2000/svg">
  <g transform="matrix(1 0 0 1 -1109 -262 )">
    <path d="M 1133.85015749213 272.201356017583  C 1133.85015749213 272.201356017583  1133.85015749213 271  1133.85015749213 271  C 1133.85015749213 266.029437251523  1137.87959474365 262  1142.85015749213 262  C 1142.85015749213 262  1168 262  1168 262  C 1172.97056274848 262  1177 266.029437251523  1177 271  C 1177 271  1177 291  1177 291  C 1177 295.970562748477  1172.97056274848 300  1168 300  C 1168 300  1142.85015749213 300  1142.85015749213 300  C 1137.95869567989 300  1133.96277930188 296.093221727368  1133.85244727155 291.203004400541  C 1133.85244727155 291.203004400541  1109.4 273.600000000002  1109.4 273.600000000002  C 1109.4 273.600000000002  1133.85015749213 272.201356017583  1133.85015749213 272.201356017583  Z " fill-rule="nonzero" fill="#02a7f0" stroke="none" />
  </g>
</svg>