<?xml version="1.0" encoding="utf-8"?>
<svg version="1.1" xmlns:xlink="http://www.w3.org/1999/xlink" width="44px" height="51px" xmlns="http://www.w3.org/2000/svg">
  <g transform="matrix(1 0 0 1 -1055 -154 )">
    <path d="M 1055.85015749213 183  C 1055.85015749213 183  1055.85015749213 163  1055.85015749213 163  C 1055.85015749213 158.029437251523  1059.87959474365 154  1064.85015749213 154  C 1064.85015749213 154  1090 154  1090 154  C 1094.97056274848 154  1099 158.029437251523  1099 163  C 1099 163  1099 183  1099 183  C 1099 187.970562748477  1094.97056274848 192  1090 192  C 1090 192  1087.10377711555 192  1087.10377711555 192  C 1087.10377711555 192  1075.8 204.599999999999  1075.8 204.599999999999  C 1075.8 204.599999999999  1067.10377711555 192  1067.10377711555 192  C 1067.10377711555 192  1064.85015749213 192  1064.85015749213 192  C 1059.87959474365 192  1055.85015749213 187.970562748477  1055.85015749213 183  Z " fill-rule="nonzero" fill="#02a7f0" stroke="none" />
  </g>
</svg>