<?xml version="1.0" encoding="utf-8"?>
<svg version="1.1" xmlns:xlink="http://www.w3.org/1999/xlink" width="12px" height="9px" xmlns="http://www.w3.org/2000/svg">
  <g transform="matrix(1 0 0 1 -713 -266 )">
    <path d="M 6.56822810590637 8.52580645161291  C 6.27087576374743 8.84193548387096  6.08146639511199 9  6 9  C 5.91853360488801 9  5.72912423625257 8.84193548387096  5.43177189409363 8.52580645161291  C 5.13441955193485 8.20967741935484  4.98574338085535 8.00860215053763  4.98574338085535 7.92258064516128  C 4.98574338085535 7.78494623655914  5.11303462321791 7.66881720430108  5.36761710794292 7.5741935483871  C 5.62219959266804 7.47956989247311  5.83299389002042 7.43225806451612  6 7.43225806451612  C 6.16700610997958 7.43225806451612  6.37780040733196 7.47956989247311  6.63238289205708 7.5741935483871  C 6.88696537678209 7.66881720430108  7.01425661914465 7.78494623655914  7.01425661914465 7.92258064516128  C 7.01425661914465 8.00860215053763  6.86558044806515 8.20967741935484  6.56822810590637 8.52580645161291  Z M 8.22097759674131 6.76774193548387  C 7.91344195519349 7.09032258064516  7.72301425661914 7.25161290322581  7.64969450101836 7.25161290322581  C 7.64154786150715 7.25161290322581  7.56008146639505 7.1978494623656  7.40529531568234 7.09032258064516  C 7.25050916496946 6.98279569892473  7.04378818737268 6.87526881720429  6.78513238289207 6.76774193548387  C 6.5264765784114 6.66021505376343  6.26476578411405 6.60645161290324  6 6.60645161290324  C 5.73523421588595 6.60645161290324  5.4735234215886 6.66021505376343  5.21486761710793 6.76774193548387  C 4.95621181262732 6.87526881720429  4.7505091649694 6.98279569892473  4.59775967413447 7.09032258064516  C 4.44501018329942 7.1978494623656  4.36252545824846 7.25161290322581  4.35030549898164 7.25161290322581  C 4.27698574338086 7.25161290322581  4.08655804480651 7.09032258064516  3.77902240325869 6.76774193548387  C 3.47148676171076 6.44516129032259  3.31771894093691 6.24516129032258  3.31771894093691 6.16774193548387  C 3.31771894093691 6.11182795698925  3.33808553971488 6.06236559139785  3.37881873727093 6.01935483870968  C 3.69653767820773 5.68817204301075  4.09572301425663 5.42795698924732  4.57637474541752 5.23870967741935  C 5.05702647657841 5.0494623655914  5.53156822810587 4.95483870967743  6 4.95483870967743  C 6.46843177189413 4.95483870967743  6.94297352342159 5.0494623655914  7.42362525458248 5.23870967741935  C 7.90427698574337 5.42795698924732  8.30346232179227 5.68817204301075  8.62118126272907 6.01935483870968  C 8.66191446028512 6.06236559139785  8.68228105906309 6.11182795698925  8.68228105906309 6.16774193548387  C 8.68228105906309 6.24516129032258  8.52851323828924 6.44516129032259  8.22097759674131 6.76774193548387  Z M 9.87983706720979 5.01290322580645  C 9.57433808553969 5.33548387096775  9.38696537678203 5.49677419354838  9.31771894093691 5.49677419354838  C 9.27291242362526 5.49677419354838  9.22606924643588 5.47956989247311  9.17718940936862 5.44516129032259  C 8.6232179226069 4.99354838709679  8.10997963340122 4.66129032258063  7.63747454175154 4.44838709677421  C 7.16496945010186 4.23548387096774  6.61914460285135 4.12903225806451  6 4.12903225806451  C 5.65376782077391 4.12903225806451  5.30651731160896 4.1763440860215  4.95824847250509 4.27096774193549  C 4.60997963340122 4.36559139784946  4.3065173116089 4.47956989247312  4.04786150712829 4.61290322580645  C 3.78920570264762 4.74623655913979  3.55804480651727 4.87956989247311  3.35437881873725 5.01290322580645  C 3.15071283095722 5.14623655913978  2.98981670061096 5.26021505376345  2.87169042769858 5.35483870967741  C 2.75356415478615 5.44946236559139  2.69042769857441 5.49677419354838  2.68228105906309 5.49677419354838  C 2.61303462321797 5.49677419354838  2.42566191446031 5.33548387096775  2.12016293279021 5.01290322580645  C 1.81466395112017 4.69032258064516  1.66191446028512 4.49032258064516  1.66191446028512 4.41290322580645  C 1.66191446028512 4.36129032258065  1.6822810590632 4.31397849462366  1.72301425661914 4.27096774193549  C 2.26069246435844 3.7032258064516  2.91242362525463 3.26236559139785  3.6782077393076 2.94838709677419  C 4.44399185336044 2.63440860215054  5.21792260692467 2.47741935483871  6 2.47741935483871  C 6.78207739307533 2.47741935483871  7.55600814663956 2.63440860215054  8.3217922606924 2.94838709677419  C 9.08757637474537 3.26236559139785  9.73930753564156 3.7032258064516  10.2769857433809 4.27096774193549  C 10.3177189409368 4.31397849462366  10.3380855397149 4.36129032258065  10.3380855397149 4.41290322580645  C 10.3380855397149 4.49032258064516  10.1853360488798 4.69032258064516  9.87983706720979 5.01290322580645  Z M 11.5386965376782 3.26451612903226  C 11.2311608961303 3.58709677419354  11.0427698574338 3.7483870967742  10.9735234215886 3.7483870967742  C 10.9287169042769 3.7483870967742  10.8839103869654 3.72903225806452  10.8391038696538 3.69032258064517  C 10.1099796334012 3.01505376344086  9.35336048879839 2.50645161290323  8.56924643584517 2.16451612903225  C 7.78513238289207 1.82258064516129  6.928716904277 1.6516129032258  6 1.6516129032258  C 5.071283095723 1.6516129032258  4.21486761710793 1.82258064516129  3.43075356415483 2.16451612903225  C 2.64663951120161 2.50645161290323  1.89002036659883 3.01505376344086  1.1608961303462 3.69032258064517  C 1.1160896130346 3.72903225806452  1.07128309572306 3.7483870967742  1.0264765784114 3.7483870967742  C 0.957230142566175 3.7483870967742  0.768839103869652 3.58709677419354  0.46130346232178 3.26451612903226  C 0.153767820773908 2.94193548387097  0 2.74193548387096  0 2.66451612903225  C 0 2.60860215053763  0.0203665987779686 2.55913978494624  0.0610997963340196 2.51612903225806  C 0.822810590631377 1.71612903225807  1.72912423625252 1.09677419354838  2.78004073319755 0.658064516129031  C 3.83095723014259 0.219354838709684  4.90427698574337 0  6 0  C 7.09572301425663 0  8.16904276985741 0.219354838709684  9.21995926680245 0.658064516129031  C 10.2708757637475 1.09677419354838  11.1771894093686 1.71612903225807  11.938900203666 2.51612903225806  C 11.979633401222 2.55913978494624  12 2.60860215053763  12 2.66451612903225  C 12 2.74193548387096  11.8462321792261 2.94193548387097  11.5386965376782 3.26451612903226  Z " fill-rule="nonzero" fill="#333333" stroke="none" transform="matrix(1 0 0 1 713 266 )" />
  </g>
</svg>