<?xml version="1.0" encoding="utf-8"?>
<svg version="1.1" xmlns:xlink="http://www.w3.org/1999/xlink" width="160px" height="160px" xmlns="http://www.w3.org/2000/svg">
  <g transform="matrix(1 0 0 1 -1182 -340 )">
    <path d="M 29 116  L 44 116  L 44 131  L 29 131  L 29 116  Z M 29 29  L 44 29  L 44 44  L 29 44  L 29 29  Z M 116 29  L 131 29  L 131 44  L 116 44  L 116 29  Z M 15 101  L 15 145  L 59 145  L 59 101  L 15 101  Z M 15 15  L 15 59  L 59 59  L 59 15  L 15 15  Z M 101 15  L 101 59  L 145 59  L 145 15  L 101 15  Z M 0 87  L 73 87  L 73 160  L 0 160  L 0 87  Z M 116 145  L 131 145  L 131 160  L 116 160  L 116 145  Z M 145 145  L 160 145  L 160 160  L 145 160  L 145 145  Z M 145 87  L 160 87  L 160 131  L 116 131  L 116 116  L 101 116  L 101 160  L 87 160  L 87 87  L 131 87  L 131 101  L 145 101  L 145 87  Z M 0 0  L 73 0  L 73 73  L 0 73  L 0 0  Z M 87 0  L 160 0  L 160 73  L 87 73  L 87 0  Z " fill-rule="nonzero" fill="#333333" stroke="none" transform="matrix(1 0 0 1 1182 340 )" />
  </g>
</svg>