<?xml version="1.0" encoding="utf-8"?>
<svg version="1.1" xmlns:xlink="http://www.w3.org/1999/xlink" width="12px" height="12px" viewBox="230 672.5  12 12" xmlns="http://www.w3.org/2000/svg">
  <path d="M 236 672.5  C 239.36 672.5  242 675.14  242 678.5  C 242 681.86  239.36 684.5  236 684.5  C 232.64 684.5  230 681.86  230 678.5  C 230 675.14  232.64 672.5  236 672.5  Z " fill-rule="nonzero" fill="#ffffff" stroke="none" />
  <path d="M 236 673  C 239.08 673  241.5 675.42  241.5 678.5  C 241.5 681.58  239.08 684  236 684  C 232.92 684  230.5 681.58  230.5 678.5  C 230.5 675.42  232.92 673  236 673  Z " stroke-width="1" stroke="#797979" fill="none" />
  <path d="M 236 681.5  C 234.32 681.5  233 680.18  233 678.5  C 233 676.82  234.32 675.5  236 675.5  C 237.68 675.5  239 676.82  239 678.5  C 239 680.18  237.68 681.5  236 681.5  " fill-rule="nonzero" fill="#797979" stroke="none" />
</svg>