<?xml version="1.0" encoding="utf-8"?>
<svg version="1.1" xmlns:xlink="http://www.w3.org/1999/xlink" width="12px" height="12px" viewBox="39 809  12 12" xmlns="http://www.w3.org/2000/svg">
  <path d="M 45 809  C 48.36 809  51 811.64  51 815  C 51 818.36  48.36 821  45 821  C 41.64 821  39 818.36  39 815  C 39 811.64  41.64 809  45 809  Z " fill-rule="nonzero" fill="#ffffff" stroke="none" />
  <path d="M 45 809.5  C 48.08 809.5  50.5 811.92  50.5 815  C 50.5 818.08  48.08 820.5  45 820.5  C 41.92 820.5  39.5 818.08  39.5 815  C 39.5 811.92  41.92 809.5  45 809.5  Z " stroke-width="1" stroke="#797979" fill="none" />
  <path d="M 45 818  C 43.32 818  42 816.68  42 815  C 42 813.32  43.32 812  45 812  C 46.68 812  48 813.32  48 815  C 48 816.68  46.68 818  45 818  " fill-rule="nonzero" fill="#797979" stroke="none" />
</svg>