<?xml version="1.0" encoding="utf-8"?>
<svg version="1.1" xmlns:xlink="http://www.w3.org/1999/xlink" width="12px" height="12px" viewBox="41 863  12 12" xmlns="http://www.w3.org/2000/svg">
  <path d="M 47 863  C 50.36 863  53 865.64  53 869  C 53 872.36  50.36 875  47 875  C 43.64 875  41 872.36  41 869  C 41 865.64  43.64 863  47 863  Z " fill-rule="nonzero" fill="#ffffff" stroke="none" />
  <path d="M 47 863.5  C 50.08 863.5  52.5 865.92  52.5 869  C 52.5 872.08  50.08 874.5  47 874.5  C 43.92 874.5  41.5 872.08  41.5 869  C 41.5 865.92  43.92 863.5  47 863.5  Z " stroke-width="1" stroke="#797979" fill="none" />
  <path d="M 47 872  C 45.32 872  44 870.68  44 869  C 44 867.32  45.32 866  47 866  C 48.68 866  50 867.32  50 869  C 50 870.68  48.68 872  47 872  " fill-rule="nonzero" fill="#797979" stroke="none" />
</svg>