<?xml version="1.0" encoding="utf-8"?>
<svg version="1.1" xmlns:xlink="http://www.w3.org/1999/xlink" width="185px" height="91px" xmlns="http://www.w3.org/2000/svg">
  <defs>
    <filter x="1092px" y="342px" width="185px" height="91px" filterUnits="userSpaceOnUse" id="filter83">
      <feOffset dx="1" dy="1" in="SourceAlpha" result="shadowOffsetInner" />
      <feGaussianBlur stdDeviation="2.5" in="shadowOffsetInner" result="shadowGaussian" />
      <feComposite in2="shadowGaussian" operator="atop" in="SourceAlpha" result="shadowComposite" />
      <feColorMatrix type="matrix" values="0 0 0 0 0  0 0 0 0 0  0 0 0 0 0  0 0 0 0.698039215686274 0  " in="shadowComposite" />
    </filter>
    <g id="widget84">
      <path d="M 1131.44196192491 411  C 1131.44196192491 411  1131.44196192491 402.902775722241  1131.44196192491 402.902775722241  C 1131.44196192491 402.902775722241  1098.6699308115 404.791407454484  1098.6699308115 404.791407454484  C 1098.6699308115 404.791407454484  1131.44196192491 383.705266694794  1131.44196192491 383.705266694794  C 1131.44196192491 383.705266694794  1131.44196192491 362.479289940828  1131.44196192491 362.479289940828  C 1131.44196192491 353.918876318451  1138.38154830253 346.979289940828  1146.94196192491 346.979289940828  C 1146.94196192491 346.979289940828  1255 346.979289940828  1255 346.979289940828  C 1263.56041362238 346.979289940828  1270.5 353.918876318451  1270.5 362.479289940828  C 1270.5 362.479289940828  1270.5 411  1270.5 411  C 1270.5 419.560413622377  1263.56041362238 426.5  1255 426.5  C 1255 426.5  1146.94196192491 426.5  1146.94196192491 426.5  C 1138.38154830253 426.5  1131.44196192491 419.560413622377  1131.44196192491 411  Z " fill-rule="nonzero" fill="#009dd9" stroke="none" />
      <path d="M 1130.94196192491 411  C 1130.94196192491 411  1130.94196192491 403.43242000872  1130.94196192491 403.43242000872  C 1130.94196192491 403.43242000872  1096.8 405.400000000001  1096.8 405.400000000001  C 1096.8 405.400000000001  1130.94196192491 383.43242000872  1130.94196192491 383.43242000872  C 1130.94196192491 383.43242000872  1130.94196192491 362.479289940828  1130.94196192491 362.479289940828  C 1130.94196192491 353.642733943536  1138.10540592761 346.479289940828  1146.94196192491 346.479289940828  C 1146.94196192491 346.479289940828  1255 346.479289940828  1255 346.479289940828  C 1263.83655599729 346.479289940828  1271 353.642733943536  1271 362.479289940828  C 1271 362.479289940828  1271 411  1271 411  C 1271 419.836555997293  1263.83655599729 427  1255 427  C 1255 427  1146.94196192491 427  1146.94196192491 427  C 1138.10540592761 427  1130.94196192491 419.836555997293  1130.94196192491 411  Z M 1131.94196192491 411  C 1131.94196192491 419.284271247462  1138.65769067745 426  1146.94196192491 426  C 1146.94196192491 426  1255 426  1255 426  C 1263.28427124746 426  1270 419.284271247462  1270 411  C 1270 411  1270 362.479289940828  1270 362.479289940828  C 1270 354.195018693366  1263.28427124746 347.479289940828  1255 347.479289940828  C 1255 347.479289940828  1146.94196192491 347.479289940828  1146.94196192491 347.479289940828  C 1138.65769067745 347.479289940828  1131.94196192491 354.195018693366  1131.94196192491 362.479289940828  C 1131.94196192491 362.479289940828  1131.94196192491 383.978113380868  1131.94196192491 383.978113380868  C 1131.94196192491 383.978113380868  1100.539861623 404.182814908967  1100.539861623 404.182814908967  C 1100.539861623 404.182814908967  1131.94196192491 402.373131435763  1131.94196192491 402.373131435763  C 1131.94196192491 402.373131435763  1131.94196192491 411  1131.94196192491 411  Z " fill-rule="nonzero" fill="#ffffff" stroke="none" />
    </g>
  </defs>
  <g transform="matrix(1 0 0 1 -1092 -342 )">
    <use xlink:href="#widget84" filter="url(#filter83)" />
    <use xlink:href="#widget84" />
  </g>
</svg>