<?xml version="1.0" encoding="utf-8"?>
<svg version="1.1" xmlns:xlink="http://www.w3.org/1999/xlink" width="79px" height="49px" xmlns="http://www.w3.org/2000/svg">
  <defs>
    <filter x="334px" y="65px" width="79px" height="49px" filterUnits="userSpaceOnUse" id="filter85">
      <feOffset dx="1" dy="1" in="SourceAlpha" result="shadowOffsetInner" />
      <feGaussianBlur stdDeviation="2.5" in="shadowOffsetInner" result="shadowGaussian" />
      <feComposite in2="shadowGaussian" operator="atop" in="SourceAlpha" result="shadowComposite" />
      <feColorMatrix type="matrix" values="0 0 0 0 0  0 0 0 0 0  0 0 0 0 0  0 0 0 0.698039215686274 0  " in="shadowComposite" />
    </filter>
    <g id="widget86">
      <path d="M 362.877750586732 79.1149050817279  C 363.896179898124 73.6741038743438  368.646130530316 69.7307692307692  374.18142781597 69.7307692307692  C 374.18142781597 69.7307692307692  395 69.7307692307692  395 69.7307692307692  C 401.351274623054 69.7307692307692  406.5 74.8794946077151  406.5 81.2307692307692  C 406.5 81.2307692307692  406.5 96  406.5 96  C 406.5 102.351274623054  401.351274623054 107.5  395 107.5  C 395 107.5  374.18142781597 107.5  374.18142781597 107.5  C 368.643114815693 107.5  363.891476033864 103.552470007288  362.876280764357 98.1079967128527  C 362.876280764357 98.1079967128527  339.908593305442 88.6005454007964  339.908593305442 88.6005454007964  C 339.908593305442 88.6005454007964  362.877750586732 79.1149050817279  362.877750586732 79.1149050817279  Z " fill-rule="nonzero" fill="#009dd9" stroke="none" />
      <path d="M 362.439623157453 78.754880832394  C 363.610141409764 73.2037434398987  368.508224194616 69.2307692307692  374.18142781597 69.2307692307692  C 374.18142781597 69.2307692307692  395 69.2307692307692  395 69.2307692307692  C 401.627416997969 69.2307692307692  407 74.6033522327997  407 81.2307692307692  C 407 81.2307692307692  407 96  407 96  C 407 102.62741699797  401.627416997969 108  395 108  C 395 108  374.18142781597 108  374.18142781597 108  C 368.50507342715 108  363.605175593573 104.022710768544  362.437893709298 98.4676723213218  C 362.437893709298 98.4676723213218  338.599999999999 88.5999999999985  338.599999999999 88.5999999999985  C 338.599999999999 88.5999999999985  362.439623157453 78.754880832394  362.439623157453 78.754880832394  Z M 363.322939082151 79.472013301847  C 363.322939082151 79.472013301847  341.217186610886 88.6010908015943  341.217186610886 88.6010908015943  C 341.217186610886 88.6010908015943  363.321724765913 97.7512423203461  363.321724765913 97.7512423203461  C 364.18128849422 103.081519423384  368.782288644011 107  374.18142781597 107  C 374.18142781597 107  395 107  395 107  C 401.075132248139 107  406 102.075132248139  406 96  C 406 96  406 81.2307692307692  406 81.2307692307692  C 406 75.1556369826305  401.075132248139 70.2307692307692  395 70.2307692307692  C 395 70.2307692307692  374.18142781597 70.2307692307692  374.18142781597 70.2307692307692  C 368.785169300003 70.2307692307692  364.185730142056 74.1451758199913  363.322939082151 79.472013301847  Z " fill-rule="nonzero" fill="#ffffff" stroke="none" />
    </g>
  </defs>
  <g transform="matrix(1 0 0 1 -334 -65 )">
    <use xlink:href="#widget86" filter="url(#filter85)" />
    <use xlink:href="#widget86" />
  </g>
</svg>