<?xml version="1.0" encoding="utf-8"?>
<svg version="1.1" xmlns:xlink="http://www.w3.org/1999/xlink" width="12px" height="12px" viewBox="39 898  12 12" xmlns="http://www.w3.org/2000/svg">
  <path d="M 45 898  C 48.36 898  51 900.64  51 904  C 51 907.36  48.36 910  45 910  C 41.64 910  39 907.36  39 904  C 39 900.64  41.64 898  45 898  Z " fill-rule="nonzero" fill="#ffffff" stroke="none" />
  <path d="M 45 898.5  C 48.08 898.5  50.5 900.92  50.5 904  C 50.5 907.08  48.08 909.5  45 909.5  C 41.92 909.5  39.5 907.08  39.5 904  C 39.5 900.92  41.92 898.5  45 898.5  Z " stroke-width="1" stroke="#797979" fill="none" />
  <path d="M 45 907  C 43.32 907  42 905.68  42 904  C 42 902.32  43.32 901  45 901  C 46.68 901  48 902.32  48 904  C 48 905.68  46.68 907  45 907  " fill-rule="nonzero" fill="#797979" stroke="none" />
</svg>