<?xml version="1.0" encoding="utf-8"?>
<svg version="1.1" xmlns:xlink="http://www.w3.org/1999/xlink" width="12px" height="12px" viewBox="106 492  12 12" xmlns="http://www.w3.org/2000/svg">
  <path d="M 112 492  C 115.36 492  118 494.64  118 498  C 118 501.36  115.36 504  112 504  C 108.64 504  106 501.36  106 498  C 106 494.64  108.64 492  112 492  Z " fill-rule="nonzero" fill="#ffffff" stroke="none" />
  <path d="M 112 492.5  C 115.08 492.5  117.5 494.92  117.5 498  C 117.5 501.08  115.08 503.5  112 503.5  C 108.92 503.5  106.5 501.08  106.5 498  C 106.5 494.92  108.92 492.5  112 492.5  Z " stroke-width="1" stroke="#797979" fill="none" />
  <path d="M 112 501  C 110.32 501  109 499.68  109 498  C 109 496.32  110.32 495  112 495  C 113.68 495  115 496.32  115 498  C 115 499.68  113.68 501  112 501  " fill-rule="nonzero" fill="#797979" stroke="none" />
</svg>