<?xml version="1.0" encoding="utf-8"?>
<svg version="1.1" xmlns:xlink="http://www.w3.org/1999/xlink" width="12px" height="12px" viewBox="106 1314  12 12" xmlns="http://www.w3.org/2000/svg">
  <path d="M 112 1314  C 115.36 1314  118 1316.64  118 1320  C 118 1323.36  115.36 1326  112 1326  C 108.64 1326  106 1323.36  106 1320  C 106 1316.64  108.64 1314  112 1314  Z " fill-rule="nonzero" fill="#ffffff" stroke="none" />
  <path d="M 112 1314.5  C 115.08 1314.5  117.5 1316.92  117.5 1320  C 117.5 1323.08  115.08 1325.5  112 1325.5  C 108.92 1325.5  106.5 1323.08  106.5 1320  C 106.5 1316.92  108.92 1314.5  112 1314.5  Z " stroke-width="1" stroke="#797979" fill="none" />
  <path d="M 112 1323  C 110.32 1323  109 1321.68  109 1320  C 109 1318.32  110.32 1317  112 1317  C 113.68 1317  115 1318.32  115 1320  C 115 1321.68  113.68 1323  112 1323  " fill-rule="nonzero" fill="#797979" stroke="none" />
</svg>