<?xml version="1.0" encoding="utf-8"?>
<svg version="1.1" xmlns:xlink="http://www.w3.org/1999/xlink" width="55px" height="60px" xmlns="http://www.w3.org/2000/svg">
  <defs>
    <filter x="357px" y="115px" width="55px" height="60px" filterUnits="userSpaceOnUse" id="filter81">
      <feOffset dx="1" dy="1" in="SourceAlpha" result="shadowOffsetInner" />
      <feGaussianBlur stdDeviation="2.5" in="shadowOffsetInner" result="shadowGaussian" />
      <feComposite in2="shadowGaussian" operator="atop" in="SourceAlpha" result="shadowComposite" />
      <feColorMatrix type="matrix" values="0 0 0 0 0  0 0 0 0 0  0 0 0 0 0  0 0 0 0.698039215686274 0  " in="shadowComposite" />
    </filter>
    <g id="widget82">
      <path d="M 361.68142781597 146  C 361.68142781597 146  361.68142781597 131.230769230769  361.68142781597 131.230769230769  C 361.68142781597 124.879494607715  366.830153192916 119.730769230769  373.18142781597 119.730769230769  C 373.18142781597 119.730769230769  394 119.730769230769  394 119.730769230769  C 400.351274623054 119.730769230769  405.5 124.879494607715  405.5 131.230769230769  C 405.5 131.230769230769  405.5 146  405.5 146  C 405.5 152.351274623054  400.351274623054 157.5  394 157.5  C 394 157.5  382.96602804394 157.5  382.96602804394 157.5  C 382.96602804394 157.5  380.881449053449 167.479671357486  380.881449053449 167.479671357486  C 380.881449053449 167.479671357486  365.90577336208 154.905888628743  365.90577336208 154.905888628743  C 363.232297174856 152.721795638161  361.68142781597 149.452207571274  361.68142781597 146  Z " fill-rule="nonzero" fill="#009dd9" stroke="none" />
      <path d="M 361.18142781597 146  C 361.18142781597 146  361.18142781597 131.230769230769  361.18142781597 131.230769230769  C 361.18142781597 124.6033522328  366.554010818001 119.230769230769  373.18142781597 119.230769230769  C 373.18142781597 119.230769230769  394 119.230769230769  394 119.230769230769  C 400.627416997969 119.230769230769  406 124.6033522328  406 131.230769230769  C 406 131.230769230769  406 146  406 146  C 406 152.62741699797  400.627416997969 158  394 158  C 394 158  383.372378300299 158  383.372378300299 158  C 383.372378300299 158  381.200000000001 168.400000000001  381.200000000001 168.400000000001  C 381.200000000001 168.400000000001  365.586810511576 155.290951942605  365.586810511576 155.290951942605  C 362.798662412787 153.011861712768  361.18142781597 149.601114007709  361.18142781597 146  Z M 362.18142781597 146  C 362.18142781597 149.303275571757  363.665909421044 152.431682453198  366.224680223803 154.520778305934  C 366.224680223803 154.520778305934  380.562898106897 166.559342714971  380.562898106897 166.559342714971  C 380.562898106897 166.559342714971  382.559677787582 157  382.559677787582 157  C 382.559677787582 157  394 157  394 157  C 400.075132248139 157  405 152.075132248139  405 146  C 405 146  405 131.230769230769  405 131.230769230769  C 405 125.155636982631  400.075132248139 120.230769230769  394 120.230769230769  C 394 120.230769230769  373.18142781597 120.230769230769  373.18142781597 120.230769230769  C 367.106295567832 120.230769230769  362.18142781597 125.155636982631  362.18142781597 131.230769230769  C 362.18142781597 131.230769230769  362.18142781597 146  362.18142781597 146  Z " fill-rule="nonzero" fill="#ffffff" stroke="none" />
    </g>
  </defs>
  <g transform="matrix(1 0 0 1 -357 -115 )">
    <use xlink:href="#widget82" filter="url(#filter81)" />
    <use xlink:href="#widget82" />
  </g>
</svg>