<?xml version="1.0" encoding="utf-8"?>
<svg version="1.1" xmlns:xlink="http://www.w3.org/1999/xlink" width="18px" height="18px" preserveAspectRatio="xMinYMid meet" viewBox="203 437  18 16" xmlns="http://www.w3.org/2000/svg">
  <path d="M 210 445.5  L 267 445.5  A 5 5 0 0 0 272.5 440.5 L 272.5 341  A 5 5 0 0 1 277.5 336.5 L 328 336.5  " stroke-width="1" stroke="#66cc00" fill="none" />
  <path d="M 212 442.5  A 3 3 0 0 0 209 445.5 A 3 3 0 0 0 212 448.5 A 3 3 0 0 0 215 445.5 A 3 3 0 0 0 212 442.5 Z M 326 333.5  A 3 3 0 0 0 323 336.5 A 3 3 0 0 0 326 339.5 A 3 3 0 0 0 329 336.5 A 3 3 0 0 0 326 333.5 Z " fill-rule="nonzero" fill="#66cc00" stroke="none" />
</svg>