<?xml version="1.0" encoding="utf-8"?>
<svg version="1.1" xmlns:xlink="http://www.w3.org/1999/xlink" width="12px" height="12px" viewBox="605 338.5  12 12" xmlns="http://www.w3.org/2000/svg">
  <path d="M 611 338.5  C 614.36 338.5  617 341.14  617 344.5  C 617 347.86  614.36 350.5  611 350.5  C 607.64 350.5  605 347.86  605 344.5  C 605 341.14  607.64 338.5  611 338.5  Z " fill-rule="nonzero" fill="#ffffff" stroke="none" />
  <path d="M 611 339  C 614.08 339  616.5 341.42  616.5 344.5  C 616.5 347.58  614.08 350  611 350  C 607.92 350  605.5 347.58  605.5 344.5  C 605.5 341.42  607.92 339  611 339  Z " stroke-width="1" stroke="#797979" fill="none" />
  <path d="M 611 347.5  C 609.32 347.5  608 346.18  608 344.5  C 608 342.82  609.32 341.5  611 341.5  C 612.68 341.5  614 342.82  614 344.5  C 614 346.18  612.68 347.5  611 347.5  " fill-rule="nonzero" fill="#797979" stroke="none" />
</svg>