<?xml version="1.0" encoding="utf-8"?>
<svg version="1.1" xmlns:xlink="http://www.w3.org/1999/xlink" width="179px" height="91px" xmlns="http://www.w3.org/2000/svg">
  <defs>
    <filter x="866px" y="395px" width="179px" height="91px" filterUnits="userSpaceOnUse" id="filter216">
      <feOffset dx="1" dy="1" in="SourceAlpha" result="shadowOffsetInner" />
      <feGaussianBlur stdDeviation="2.5" in="shadowOffsetInner" result="shadowGaussian" />
      <feComposite in2="shadowGaussian" operator="atop" in="SourceAlpha" result="shadowComposite" />
      <feColorMatrix type="matrix" values="0 0 0 0 0  0 0 0 0 0  0 0 0 0 0  0 0 0 0.698039215686274 0  " in="shadowComposite" />
    </filter>
    <g id="widget217">
      <path d="M 899.441961924908 464  C 899.441961924908 464  899.441961924908 456.153203050603  899.441961924908 456.153203050603  C 899.441961924908 456.153203050603  871.57544027412 438.983409256102  871.57544027412 438.983409256102  C 871.57544027412 438.983409256102  899.441961924908 436.896373314533  899.441961924908 436.896373314533  C 899.441961924908 436.896373314533  899.441961924908 415.479289940828  899.441961924908 415.479289940828  C 899.441961924908 406.918876318451  906.38154830253 399.979289940828  914.941961924908 399.979289940828  C 914.941961924908 399.979289940828  1023 399.979289940828  1023 399.979289940828  C 1031.56041362238 399.979289940828  1038.5 406.918876318451  1038.5 415.479289940828  C 1038.5 415.479289940828  1038.5 464  1038.5 464  C 1038.5 472.560413622377  1031.56041362238 479.5  1023 479.5  C 1023 479.5  914.941961924908 479.5  914.941961924908 479.5  C 906.38154830253 479.5  899.441961924908 472.560413622377  899.441961924908 464  Z " fill-rule="nonzero" fill="#009dd9" stroke="none" />
      <path d="M 898.941961924908 464  C 898.941961924908 464  898.941961924908 456.43242000872  898.941961924908 456.43242000872  C 898.941961924908 456.43242000872  870 438.599999999999  870 438.599999999999  C 870 438.599999999999  898.941961924908 436.43242000872  898.941961924908 436.43242000872  C 898.941961924908 436.43242000872  898.941961924908 415.479289940828  898.941961924908 415.479289940828  C 898.941961924908 406.642733943536  906.105405927615 399.479289940828  914.941961924908 399.479289940828  C 914.941961924908 399.479289940828  1023 399.479289940828  1023 399.479289940828  C 1031.83655599729 399.479289940828  1039 406.642733943536  1039 415.479289940828  C 1039 415.479289940828  1039 464  1039 464  C 1039 472.836555997293  1031.83655599729 480  1023 480  C 1023 480  914.941961924908 480  914.941961924908 480  C 906.105405927615 480  898.941961924908 472.836555997293  898.941961924908 464  Z M 899.941961924908 464  C 899.941961924908 472.284271247462  906.657690677446 479  914.941961924908 479  C 914.941961924908 479  1023 479  1023 479  C 1031.28427124746 479  1038 472.284271247462  1038 464  C 1038 464  1038 415.479289940828  1038 415.479289940828  C 1038 407.195018693366  1031.28427124746 400.479289940828  1023 400.479289940828  C 1023 400.479289940828  914.941961924908 400.479289940828  914.941961924908 400.479289940828  C 906.657690677446 400.479289940828  899.941961924908 407.195018693366  899.941961924908 415.479289940828  C 899.941961924908 415.479289940828  899.941961924908 437.360326620347  899.941961924908 437.360326620347  C 899.941961924908 437.360326620347  873.15088054824 439.366818512205  873.15088054824 439.366818512205  C 873.15088054824 439.366818512205  899.941961924908 455.873986092486  899.941961924908 455.873986092486  C 899.941961924908 455.873986092486  899.941961924908 464  899.941961924908 464  Z " fill-rule="nonzero" fill="#ffffff" stroke="none" />
    </g>
  </defs>
  <g transform="matrix(1 0 0 1 -866 -395 )">
    <use xlink:href="#widget217" filter="url(#filter216)" />
    <use xlink:href="#widget217" />
  </g>
</svg>