<?xml version="1.0" encoding="utf-8"?>
<svg version="1.1" xmlns:xlink="http://www.w3.org/1999/xlink" width="188px" height="91px" xmlns="http://www.w3.org/2000/svg">
  <defs>
    <filter x="589px" y="387px" width="188px" height="91px" filterUnits="userSpaceOnUse" id="filter218">
      <feOffset dx="1" dy="1" in="SourceAlpha" result="shadowOffsetInner" />
      <feGaussianBlur stdDeviation="2.5" in="shadowOffsetInner" result="shadowGaussian" />
      <feComposite in2="shadowGaussian" operator="atop" in="SourceAlpha" result="shadowComposite" />
      <feColorMatrix type="matrix" values="0 0 0 0 0  0 0 0 0 0  0 0 0 0 0  0 0 0 0.698039215686274 0  " in="shadowComposite" />
    </filter>
    <g id="widget219">
      <path d="M 631.441961924908 456  C 631.441961924908 456  631.441961924908 448.067028979281  631.441961924908 448.067028979281  C 631.441961924908 448.067028979281  595.154684207967 436.498373186242  595.154684207967 436.498373186242  C 595.154684207967 436.498373186242  631.441961924908 428.837886737477  631.441961924908 428.837886737477  C 631.441961924908 428.837886737477  631.441961924908 407.479289940828  631.441961924908 407.479289940828  C 631.441961924908 398.918876318451  638.38154830253 391.979289940828  646.941961924908 391.979289940828  C 646.941961924908 391.979289940828  755 391.979289940828  755 391.979289940828  C 763.560413622377 391.979289940828  770.5 398.918876318451  770.5 407.479289940828  C 770.5 407.479289940828  770.5 456  770.5 456  C 770.5 464.560413622377  763.560413622377 471.5  755 471.5  C 755 471.5  646.941961924908 471.5  646.941961924908 471.5  C 638.38154830253 471.5  631.441961924908 464.560413622377  631.441961924908 456  Z " fill-rule="nonzero" fill="#009dd9" stroke="none" />
      <path d="M 630.941961924908 456  C 630.941961924908 456  630.941961924908 448.43242000872  630.941961924908 448.43242000872  C 630.941961924908 448.43242000872  593.200000000001 436.400000000001  593.200000000001 436.400000000001  C 593.200000000001 436.400000000001  630.941961924908 428.43242000872  630.941961924908 428.43242000872  C 630.941961924908 428.43242000872  630.941961924908 407.479289940828  630.941961924908 407.479289940828  C 630.941961924908 398.642733943536  638.105405927615 391.479289940828  646.941961924908 391.479289940828  C 646.941961924908 391.479289940828  755 391.479289940828  755 391.479289940828  C 763.836555997292 391.479289940828  771 398.642733943536  771 407.479289940828  C 771 407.479289940828  771 456  771 456  C 771 464.836555997293  763.836555997292 472  755 472  C 755 472  646.941961924908 472  646.941961924908 472  C 638.105405927615 472  630.941961924908 464.836555997293  630.941961924908 456  Z M 631.941961924908 456  C 631.941961924908 464.284271247462  638.657690677446 471  646.941961924908 471  C 646.941961924908 471  755 471  755 471  C 763.284271247462 471  770 464.284271247462  770 456  C 770 456  770 407.479289940828  770 407.479289940828  C 770 399.195018693366  763.284271247462 392.479289940828  755 392.479289940828  C 755 392.479289940828  646.941961924908 392.479289940828  646.941961924908 392.479289940828  C 638.657690677446 392.479289940828  631.941961924908 399.195018693366  631.941961924908 407.479289940828  C 631.941961924908 407.479289940828  631.941961924908 429.243353466234  631.941961924908 429.243353466234  C 631.941961924908 429.243353466234  597.109368415933 436.596746372483  597.109368415933 436.596746372483  C 597.109368415933 436.596746372483  631.941961924908 447.701637949843  631.941961924908 447.701637949843  C 631.941961924908 447.701637949843  631.941961924908 456  631.941961924908 456  Z " fill-rule="nonzero" fill="#ffffff" stroke="none" />
    </g>
  </defs>
  <g transform="matrix(1 0 0 1 -589 -387 )">
    <use xlink:href="#widget219" filter="url(#filter218)" />
    <use xlink:href="#widget219" />
  </g>
</svg>