<?xml version="1.0" encoding="utf-8"?>
<svg version="1.1" xmlns:xlink="http://www.w3.org/1999/xlink" width="12px" height="12px" viewBox="450 209.5  12 12" xmlns="http://www.w3.org/2000/svg">
  <path d="M 456 209.5  C 459.36 209.5  462 212.14  462 215.5  C 462 218.86  459.36 221.5  456 221.5  C 452.64 221.5  450 218.86  450 215.5  C 450 212.14  452.64 209.5  456 209.5  Z " fill-rule="nonzero" fill="#ffffff" stroke="none" />
  <path d="M 456 210  C 459.08 210  461.5 212.42  461.5 215.5  C 461.5 218.58  459.08 221  456 221  C 452.92 221  450.5 218.58  450.5 215.5  C 450.5 212.42  452.92 210  456 210  Z " stroke-width="1" stroke="#797979" fill="none" />
  <path d="M 456 218.5  C 454.32 218.5  453 217.18  453 215.5  C 453 213.82  454.32 212.5  456 212.5  C 457.68 212.5  459 213.82  459 215.5  C 459 217.18  457.68 218.5  456 218.5  " fill-rule="nonzero" fill="#797979" stroke="none" />
</svg>