<?xml version="1.0" encoding="utf-8"?>
<svg version="1.1" xmlns:xlink="http://www.w3.org/1999/xlink" width="179px" height="91px" xmlns="http://www.w3.org/2000/svg">
  <defs>
    <filter x="417px" y="451px" width="179px" height="91px" filterUnits="userSpaceOnUse" id="filter26">
      <feOffset dx="1" dy="1" in="SourceAlpha" result="shadowOffsetInner" />
      <feGaussianBlur stdDeviation="2.5" in="shadowOffsetInner" result="shadowGaussian" />
      <feComposite in2="shadowGaussian" operator="atop" in="SourceAlpha" result="shadowComposite" />
      <feColorMatrix type="matrix" values="0 0 0 0 0  0 0 0 0 0  0 0 0 0 0  0 0 0 0.698039215686274 0  " in="shadowComposite" />
    </filter>
    <g id="widget27">
      <path d="M 450.441961924908 520  C 450.441961924908 520  450.441961924908 512.153203050603  450.441961924908 512.153203050603  C 450.441961924908 512.153203050603  422.57544027412 494.983409256102  422.57544027412 494.983409256102  C 422.57544027412 494.983409256102  450.441961924908 492.896373314533  450.441961924908 492.896373314533  C 450.441961924908 492.896373314533  450.441961924908 471.479289940828  450.441961924908 471.479289940828  C 450.441961924908 462.918876318451  457.38154830253 455.979289940828  465.941961924908 455.979289940828  C 465.941961924908 455.979289940828  574 455.979289940828  574 455.979289940828  C 582.560413622377 455.979289940828  589.5 462.918876318451  589.5 471.479289940828  C 589.5 471.479289940828  589.5 520  589.5 520  C 589.5 528.560413622377  582.560413622377 535.5  574 535.5  C 574 535.5  465.941961924908 535.5  465.941961924908 535.5  C 457.38154830253 535.5  450.441961924908 528.560413622377  450.441961924908 520  Z " fill-rule="nonzero" fill="#009dd9" stroke="none" />
      <path d="M 449.941961924908 520  C 449.941961924908 520  449.941961924908 512.43242000872  449.941961924908 512.43242000872  C 449.941961924908 512.43242000872  421 494.599999999999  421 494.599999999999  C 421 494.599999999999  449.941961924908 492.43242000872  449.941961924908 492.43242000872  C 449.941961924908 492.43242000872  449.941961924908 471.479289940828  449.941961924908 471.479289940828  C 449.941961924908 462.642733943536  457.105405927615 455.479289940828  465.941961924908 455.479289940828  C 465.941961924908 455.479289940828  574 455.479289940828  574 455.479289940828  C 582.836555997292 455.479289940828  590 462.642733943536  590 471.479289940828  C 590 471.479289940828  590 520  590 520  C 590 528.836555997293  582.836555997292 536  574 536  C 574 536  465.941961924908 536  465.941961924908 536  C 457.105405927615 536  449.941961924908 528.836555997293  449.941961924908 520  Z M 450.941961924908 520  C 450.941961924908 528.284271247462  457.657690677446 535  465.941961924908 535  C 465.941961924908 535  574 535  574 535  C 582.284271247462 535  589 528.284271247462  589 520  C 589 520  589 471.479289940828  589 471.479289940828  C 589 463.195018693366  582.284271247462 456.479289940828  574 456.479289940828  C 574 456.479289940828  465.941961924908 456.479289940828  465.941961924908 456.479289940828  C 457.657690677446 456.479289940828  450.941961924908 463.195018693366  450.941961924908 471.479289940828  C 450.941961924908 471.479289940828  450.941961924908 493.360326620347  450.941961924908 493.360326620347  C 450.941961924908 493.360326620347  424.15088054824 495.366818512205  424.15088054824 495.366818512205  C 424.15088054824 495.366818512205  450.941961924908 511.873986092486  450.941961924908 511.873986092486  C 450.941961924908 511.873986092486  450.941961924908 520  450.941961924908 520  Z " fill-rule="nonzero" fill="#ffffff" stroke="none" />
    </g>
  </defs>
  <g transform="matrix(1 0 0 1 -417 -451 )">
    <use xlink:href="#widget27" filter="url(#filter26)" />
    <use xlink:href="#widget27" />
  </g>
</svg>