<?xml version="1.0" encoding="utf-8"?>
<svg version="1.1" xmlns:xlink="http://www.w3.org/1999/xlink" width="61px" height="38px" xmlns="http://www.w3.org/2000/svg">
  <g transform="matrix(1 0 0 1 -593 -127 )">
    <path d="M 610.850157492125 141.069901593794  C 610.850157492125 141.069901593794  610.850157492125 136  610.850157492125 136  C 610.850157492125 131.029437251523  614.879594743648 127  619.850157492125 127  C 619.850157492125 127  645 127  645 127  C 649.970562748477 127  654 131.029437251523  654 136  C 654 136  654 156  654 156  C 654 160.970562748477  649.970562748477 165  645 165  C 645 165  619.850157492125 165  619.850157492125 165  C 616.721075606143 165  613.816573522054 163.374755448507  612.179738092147 160.707936514911  C 612.179738092147 160.707936514911  593.200000000001 151.600000000002  593.200000000001 151.600000000002  C 593.200000000001 151.600000000002  610.850157492125 141.069901593794  610.850157492125 141.069901593794  Z " fill-rule="nonzero" fill="#02a7f0" stroke="none" />
  </g>
</svg>