<?xml version="1.0" encoding="utf-8"?>
<svg version="1.1" xmlns:xlink="http://www.w3.org/1999/xlink" width="60px" height="38px" xmlns="http://www.w3.org/2000/svg">
  <g transform="matrix(1 0 0 1 -665 -192 )">
    <path d="M 681.850157492125 202.534950796897  C 681.850157492125 202.534950796897  681.850157492125 201  681.850157492125 201  C 681.850157492125 196.029437251523  685.879594743648 192  690.850157492125 192  C 690.850157492125 192  716 192  716 192  C 720.970562748477 192  725 196.029437251523  725 201  C 725 201  725 221  725 221  C 725 225.970562748477  720.970562748477 230  716 230  C 716 230  690.850157492125 230  690.850157492125 230  C 686.089053357258 230  682.151637250412 226.291867174028  681.866331197578 221.539319116484  C 681.866331197578 221.539319116484  665.799999999999 217.200000000001  665.799999999999 217.200000000001  C 665.799999999999 217.200000000001  681.850157492125 202.534950796897  681.850157492125 202.534950796897  Z " fill-rule="nonzero" fill="#02a7f0" stroke="none" />
  </g>
</svg>