<?xml version="1.0" encoding="utf-8"?>
<svg version="1.1" xmlns:xlink="http://www.w3.org/1999/xlink" width="60px" height="38px" xmlns="http://www.w3.org/2000/svg">
  <g transform="matrix(1 0 0 1 -1199 -699 )">
    <path d="M 1215.85015749213 728  C 1215.85015749213 728  1215.85015749213 726.887992865395  1215.85015749213 726.887992865395  C 1215.85015749213 726.887992865395  1199.8 720.800000000003  1199.8 720.800000000003  C 1199.8 720.800000000003  1215.85086156428 707.887426454458  1215.85086156428 707.887426454458  C 1215.91248501891 702.961156240359  1219.92350186457 699  1224.85015749213 699  C 1224.85015749213 699  1250 699  1250 699  C 1254.97056274848 699  1259 703.029437251523  1259 708  C 1259 708  1259 728  1259 728  C 1259 732.970562748477  1254.97056274848 737  1250 737  C 1250 737  1224.85015749213 737  1224.85015749213 737  C 1219.87959474365 737  1215.85015749213 732.970562748477  1215.85015749213 728  Z " fill-rule="nonzero" fill="#02a7f0" stroke="none" />
  </g>
</svg>