<?xml version="1.0" encoding="utf-8"?>
<svg version="1.1" xmlns:xlink="http://www.w3.org/1999/xlink" width="44px" height="56px" xmlns="http://www.w3.org/2000/svg">
  <g transform="matrix(1 0 0 1 -787 -595 )">
    <path d="M 787.850157492125 624  C 787.850157492125 624  787.850157492125 604  787.850157492125 604  C 787.850157492125 599.029437251523  791.879594743648 595  796.850157492125 595  C 796.850157492125 595  822 595  822 595  C 826.970562748477 595  831 599.029437251523  831 604  C 831 604  831 624  831 624  C 831 628.970562748477  826.970562748477 633  822 633  C 822 633  818.345945731202 633  818.345945731202 633  C 818.345945731202 633  808.600000000002 650.399999999998  808.600000000002 650.399999999998  C 808.600000000002 650.399999999998  798.345945731202 633  798.345945731202 633  C 798.345945731202 633  796.850157492125 633  796.850157492125 633  C 791.879594743648 633  787.850157492125 628.970562748477  787.850157492125 624  Z " fill-rule="nonzero" fill="#02a7f0" stroke="none" />
  </g>
</svg>