<?xml version="1.0" encoding="utf-8"?>
<svg version="1.1" xmlns:xlink="http://www.w3.org/1999/xlink" width="213px" height="117px" xmlns="http://www.w3.org/2000/svg">
  <defs>
    <filter x="468px" y="200px" width="213px" height="117px" filterUnits="userSpaceOnUse" id="filter181">
      <feOffset dx="1" dy="1" in="SourceAlpha" result="shadowOffsetInner" />
      <feGaussianBlur stdDeviation="2.5" in="shadowOffsetInner" result="shadowGaussian" />
      <feComposite in2="shadowGaussian" operator="atop" in="SourceAlpha" result="shadowComposite" />
      <feColorMatrix type="matrix" values="0 0 0 0 0  0 0 0 0 0  0 0 0 0 0  0 0 0 0.698039215686274 0  " in="shadowComposite" />
    </filter>
    <g id="widget182">
      <path d="M 513.032675832893 295  C 513.032675832893 295  513.032675832893 279.333628547962  513.032675832893 279.333628547962  C 513.032675832893 279.333628547962  474.608333803918 281.855315276816  474.608333803918 281.855315276816  C 474.608333803918 281.855315276816  513.032675832893 253.701260460996  513.032675832893 253.701260460996  C 513.032675832893 253.701260460996  513.032675832893 220.633136094675  513.032675832893 220.633136094675  C 513.032675832893 212.072722472297  519.972262210516 205.133136094675  528.532675832893 205.133136094675  C 528.532675832893 205.133136094675  659 205.133136094675  659 205.133136094675  C 667.560413622377 205.133136094675  674.5 212.072722472297  674.5 220.633136094675  C 674.5 220.633136094675  674.5 295  674.5 295  C 674.5 303.560413622377  667.560413622377 310.5  659 310.5  C 659 310.5  528.532675832893 310.5  528.532675832893 310.5  C 519.972262210516 310.5  513.032675832893 303.560413622377  513.032675832893 295  Z " fill-rule="nonzero" fill="#009dd9" stroke="none" />
      <path d="M 512.532675832893 295  C 512.532675832893 295  512.532675832893 279.867517789296  512.532675832893 279.867517789296  C 512.532675832893 279.867517789296  472.927999999999 282.466666666669  472.927999999999 282.466666666669  C 472.927999999999 282.466666666669  512.532675832893 253.447764702877  512.532675832893 253.447764702877  C 512.532675832893 253.447764702877  512.532675832893 220.633136094675  512.532675832893 220.633136094675  C 512.532675832893 211.796580097382  519.6961198356 204.633136094675  528.532675832893 204.633136094675  C 528.532675832893 204.633136094675  659 204.633136094675  659 204.633136094675  C 667.836555997292 204.633136094675  675 211.796580097382  675 220.633136094675  C 675 220.633136094675  675 295  675 295  C 675 303.836555997293  667.836555997292 311  659 311  C 659 311  528.532675832893 311  528.532675832893 311  C 519.6961198356 311  512.532675832893 303.836555997293  512.532675832893 295  Z M 513.532675832893 295  C 513.532675832893 303.284271247462  520.248404585431 310  528.532675832893 310  C 528.532675832893 310  659 310  659 310  C 667.284271247461 310  674 303.284271247462  674 295  C 674 295  674 220.633136094675  674 220.633136094675  C 674 212.348864847213  667.284271247461 205.633136094675  659 205.633136094675  C 659 205.633136094675  528.532675832893 205.633136094675  528.532675832893 205.633136094675  C 520.248404585431 205.633136094675  513.532675832893 212.348864847213  513.532675832893 220.633136094675  C 513.532675832893 220.633136094675  513.532675832893 253.954756219116  513.532675832893 253.954756219116  C 513.532675832893 253.954756219116  476.288667607836 281.243963886962  476.288667607836 281.243963886962  C 476.288667607836 281.243963886962  513.532675832893 278.799739306627  513.532675832893 278.799739306627  C 513.532675832893 278.799739306627  513.532675832893 295  513.532675832893 295  Z " fill-rule="nonzero" fill="#ffffff" stroke="none" />
    </g>
  </defs>
  <g transform="matrix(1 0 0 1 -468 -200 )">
    <use xlink:href="#widget182" filter="url(#filter181)" />
    <use xlink:href="#widget182" />
  </g>
</svg>