<?xml version="1.0" encoding="utf-8"?>
<svg version="1.1" xmlns:xlink="http://www.w3.org/1999/xlink" width="18px" height="18px" preserveAspectRatio="xMinYMid meet" viewBox="845 318  18 16" xmlns="http://www.w3.org/2000/svg">
  <path d="M 641 281.5  L 712 281.5  A 5 5 0 0 1 717.5 286.5 L 717.5 321  A 5 5 0 0 0 722.5 326.5 L 856 326.5  " stroke-width="1" stroke="#6699ff" fill="none" />
  <path d="M 643 278.5  A 3 3 0 0 0 640 281.5 A 3 3 0 0 0 643 284.5 A 3 3 0 0 0 646 281.5 A 3 3 0 0 0 643 278.5 Z M 854 323.5  A 3 3 0 0 0 851 326.5 A 3 3 0 0 0 854 329.5 A 3 3 0 0 0 857 326.5 A 3 3 0 0 0 854 323.5 Z " fill-rule="nonzero" fill="#6699ff" stroke="none" />
</svg>