<?xml version="1.0" encoding="utf-8"?>
<svg version="1.1" xmlns:xlink="http://www.w3.org/1999/xlink" width="10px" height="238px" preserveAspectRatio="xMidYMin meet" viewBox="705 480  8 238" xmlns="http://www.w3.org/2000/svg">
  <path d="M 857 485.5  L 714 485.5  A 5 5 0 0 0 709.5 490.5 L 709.5 708  A 5 5 0 0 1 704.5 713.5 L 668 713.5  " stroke-width="1" stroke="#6699ff" fill="none" />
  <path d="M 855 482.5  A 3 3 0 0 0 852 485.5 A 3 3 0 0 0 855 488.5 A 3 3 0 0 0 858 485.5 A 3 3 0 0 0 855 482.5 Z M 670 710.5  A 3 3 0 0 0 667 713.5 A 3 3 0 0 0 670 716.5 A 3 3 0 0 0 673 713.5 A 3 3 0 0 0 670 710.5 Z " fill-rule="nonzero" fill="#6699ff" stroke="none" />
</svg>