<?xml version="1.0" encoding="utf-8"?>
<svg version="1.1" xmlns:xlink="http://www.w3.org/1999/xlink" width="18px" height="18px" preserveAspectRatio="xMinYMid meet" viewBox="200 837  18 16" xmlns="http://www.w3.org/2000/svg">
  <path d="M 207 845.5  L 485 845.5  A 5 5 0 0 1 490.5 850.5 L 490.5 928  A 5 5 0 0 0 495.5 933.5 L 505 933.5  " stroke-width="1" stroke="#6699ff" fill="none" />
  <path d="M 209 842.5  A 3 3 0 0 0 206 845.5 A 3 3 0 0 0 209 848.5 A 3 3 0 0 0 212 845.5 A 3 3 0 0 0 209 842.5 Z M 503 930.5  A 3 3 0 0 0 500 933.5 A 3 3 0 0 0 503 936.5 A 3 3 0 0 0 506 933.5 A 3 3 0 0 0 503 930.5 Z " fill-rule="nonzero" fill="#6699ff" stroke="none" />
</svg>