<?xml version="1.0" encoding="utf-8"?>
<svg version="1.1" xmlns:xlink="http://www.w3.org/1999/xlink" width="10px" height="84px" preserveAspectRatio="xMidYMin meet" viewBox="486 928  8 84" xmlns="http://www.w3.org/2000/svg">
  <path d="M 207 933.5  L 485 933.5  A 5 5 0 0 1 490.5 938.5 L 490.5 1002  A 5 5 0 0 0 495.5 1007.5 L 505 1007.5  " stroke-width="1" stroke="#6699ff" fill="none" />
  <path d="M 209 930.5  A 3 3 0 0 0 206 933.5 A 3 3 0 0 0 209 936.5 A 3 3 0 0 0 212 933.5 A 3 3 0 0 0 209 930.5 Z M 503 1004.5  A 3 3 0 0 0 500 1007.5 A 3 3 0 0 0 503 1010.5 A 3 3 0 0 0 506 1007.5 A 3 3 0 0 0 503 1004.5 Z " fill-rule="nonzero" fill="#6699ff" stroke="none" />
</svg>