<?xml version="1.0" encoding="utf-8"?>
<svg version="1.1" xmlns:xlink="http://www.w3.org/1999/xlink" width="183px" height="10px" preserveAspectRatio="xMinYMid meet" viewBox="675 440  183 8" xmlns="http://www.w3.org/2000/svg">
  <path d="M 857 444.5  L 685 444.5  A 5 5 0 0 0 680.5 449.5 L 680.5 475  A 5 5 0 0 1 675.5 480.5 L 668 480.5  " stroke-width="1" stroke="#6699ff" fill="none" />
  <path d="M 855 441.5  A 3 3 0 0 0 852 444.5 A 3 3 0 0 0 855 447.5 A 3 3 0 0 0 858 444.5 A 3 3 0 0 0 855 441.5 Z M 670 477.5  A 3 3 0 0 0 667 480.5 A 3 3 0 0 0 670 483.5 A 3 3 0 0 0 673 480.5 A 3 3 0 0 0 670 477.5 Z " fill-rule="nonzero" fill="#6699ff" stroke="none" />
</svg>