<?xml version="1.0" encoding="utf-8"?>
<svg version="1.1" xmlns:xlink="http://www.w3.org/1999/xlink" width="18px" height="18px" preserveAspectRatio="xMinYMid meet" viewBox="520 749  18 16" xmlns="http://www.w3.org/2000/svg">
  <path d="M 471 505.5  L 485 505.5  A 5 5 0 0 1 490.5 510.5 L 490.5 752  A 5 5 0 0 0 495.5 757.5 L 531 757.5  " stroke-width="1" stroke="#6699ff" fill="none" />
  <path d="M 473 502.5  A 3 3 0 0 0 470 505.5 A 3 3 0 0 0 473 508.5 A 3 3 0 0 0 476 505.5 A 3 3 0 0 0 473 502.5 Z M 529 754.5  A 3 3 0 0 0 526 757.5 A 3 3 0 0 0 529 760.5 A 3 3 0 0 0 532 757.5 A 3 3 0 0 0 529 754.5 Z " fill-rule="nonzero" fill="#6699ff" stroke="none" />
</svg>