<?xml version="1.0" encoding="utf-8"?>
<svg version="1.1" xmlns:xlink="http://www.w3.org/1999/xlink" width="18px" height="18px" preserveAspectRatio="xMinYMid meet" viewBox="846 520  18 16" xmlns="http://www.w3.org/2000/svg">
  <path d="M 857 528.5  L 741 528.5  A 5 5 0 0 0 736.5 533.5 L 736.5 928  A 5 5 0 0 1 731.5 933.5 L 668 933.5  " stroke-width="1" stroke="#6699ff" fill="none" />
  <path d="M 855 525.5  A 3 3 0 0 0 852 528.5 A 3 3 0 0 0 855 531.5 A 3 3 0 0 0 858 528.5 A 3 3 0 0 0 855 525.5 Z M 670 930.5  A 3 3 0 0 0 667 933.5 A 3 3 0 0 0 670 936.5 A 3 3 0 0 0 673 933.5 A 3 3 0 0 0 670 930.5 Z " fill-rule="nonzero" fill="#6699ff" stroke="none" />
</svg>