<?xml version="1.0" encoding="utf-8"?>
<svg version="1.1" xmlns:xlink="http://www.w3.org/1999/xlink" width="10px" height="42px" preserveAspectRatio="xMidYMin meet" viewBox="583 966  8 42" xmlns="http://www.w3.org/2000/svg">
  <path d="M 854 1003.5  L 592 1003.5  A 5 5 0 0 1 587.5 998.5 L 587.5 967  " stroke-width="1" stroke="#6699ff" fill="none" />
  <path d="M 852 1000.5  A 3 3 0 0 0 849 1003.5 A 3 3 0 0 0 852 1006.5 A 3 3 0 0 0 855 1003.5 A 3 3 0 0 0 852 1000.5 Z M 587.5 966  A 3 3 0 0 0 584.5 969 A 3 3 0 0 0 587.5 972 A 3 3 0 0 0 590.5 969 A 3 3 0 0 0 587.5 966 Z " fill-rule="nonzero" fill="#6699ff" stroke="none" />
</svg>