<?xml version="1.0" encoding="utf-8"?>
<svg version="1.1" xmlns:xlink="http://www.w3.org/1999/xlink" width="18px" height="18px" preserveAspectRatio="xMinYMid meet" viewBox="977 520  18 16" xmlns="http://www.w3.org/2000/svg">
  <path d="M 998 1003.5  L 1035 1003.5  A 5 5 0 0 0 1040.5 998.5 L 1040.5 533  A 5 5 0 0 0 1035.5 528.5 L 984 528.5  " stroke-width="1" stroke="#6699ff" fill="none" />
  <path d="M 1000 1000.5  A 3 3 0 0 0 997 1003.5 A 3 3 0 0 0 1000 1006.5 A 3 3 0 0 0 1003 1003.5 A 3 3 0 0 0 1000 1000.5 Z M 986 525.5  A 3 3 0 0 0 983 528.5 A 3 3 0 0 0 986 531.5 A 3 3 0 0 0 989 528.5 A 3 3 0 0 0 986 525.5 Z " fill-rule="nonzero" fill="#6699ff" stroke="none" />
</svg>