<?xml version="1.0" encoding="utf-8"?>
<svg version="1.1" xmlns:xlink="http://www.w3.org/1999/xlink" width="92px" height="92px" xmlns="http://www.w3.org/2000/svg">
  <g transform="matrix(1 0 0 1 -207 -195 )">
    <path d="M 208 199  A 3 3 0 0 1 211 196 L 295 196  A 3 3 0 0 1 298 199 L 298 283  A 3 3 0 0 1 295 286 L 211 286  A 3 3 0 0 1 208 283 L 208 199  Z " fill-rule="nonzero" fill="#000000" stroke="none" fill-opacity="0.0196078431372549" />
    <path d="M 207.5 199  A 3.5 3.5 0 0 1 211 195.5 L 295 195.5  A 3.5 3.5 0 0 1 298.5 199 L 298.5 283  A 3.5 3.5 0 0 1 295 286.5 L 211 286.5  A 3.5 3.5 0 0 1 207.5 283 L 207.5 199  Z " stroke-width="1" stroke-dasharray="9,4" stroke="#d9d9d9" fill="none" stroke-dashoffset="0.5" />
  </g>
</svg>