<?xml version="1.0" encoding="utf-8"?>
<svg version="1.1" xmlns:xlink="http://www.w3.org/1999/xlink" width="92px" height="92px" xmlns="http://www.w3.org/2000/svg">
  <g transform="matrix(1 0 0 1 -32 -203 )">
    <path d="M 33 207  A 3 3 0 0 1 36 204 L 120 204  A 3 3 0 0 1 123 207 L 123 291  A 3 3 0 0 1 120 294 L 36 294  A 3 3 0 0 1 33 291 L 33 207  Z " fill-rule="nonzero" fill="#000000" stroke="none" fill-opacity="0.0196078431372549" />
    <path d="M 32.5 207  A 3.5 3.5 0 0 1 36 203.5 L 120 203.5  A 3.5 3.5 0 0 1 123.5 207 L 123.5 291  A 3.5 3.5 0 0 1 120 294.5 L 36 294.5  A 3.5 3.5 0 0 1 32.5 291 L 32.5 207  Z " stroke-width="1" stroke-dasharray="9,4" stroke="#d9d9d9" fill="none" stroke-dashoffset="0.5" />
  </g>
</svg>