<?xml version="1.0" encoding="utf-8"?>
<svg version="1.1" xmlns:xlink="http://www.w3.org/1999/xlink" width="14px" height="14px" xmlns="http://www.w3.org/2000/svg">
  <g transform="matrix(1 0 0 1 -70 -59 )">
    <path d="M 77 59  C 80.92 59  84 62.08  84 66  C 84 69.92  80.92 73  77 73  C 73.08 73  70 69.92  70 66  C 70 62.08  73.08 59  77 59  Z " fill-rule="nonzero" fill="#ffffff" stroke="none" fill-opacity="0" />
    <path d="M 77 59.5  C 80.64 59.5  83.5 62.36  83.5 66  C 83.5 69.64  80.64 72.5  77 72.5  C 73.36 72.5  70.5 69.64  70.5 66  C 70.5 62.36  73.36 59.5  77 59.5  Z " stroke-width="1" stroke="#1890ff" fill="none" />
  </g>
</svg>