<?xml version="1.0" encoding="utf-8"?>
<svg version="1.1" xmlns:xlink="http://www.w3.org/1999/xlink" width="14px" height="14px" xmlns="http://www.w3.org/2000/svg">
  <g transform="matrix(1 0 0 1 -144 -59 )">
    <path d="M 151 59  C 154.92 59  158 62.08  158 66  C 158 69.92  154.92 73  151 73  C 147.08 73  144 69.92  144 66  C 144 62.08  147.08 59  151 59  Z " fill-rule="nonzero" fill="#ffffff" stroke="none" fill-opacity="0" />
    <path d="M 151 59.5  C 154.64 59.5  157.5 62.36  157.5 66  C 157.5 69.64  154.64 72.5  151 72.5  C 147.36 72.5  144.5 69.64  144.5 66  C 144.5 62.36  147.36 59.5  151 59.5  Z " stroke-width="1" stroke="#d9d9d9" fill="none" />
  </g>
</svg>