<?xml version="1.0" encoding="utf-8"?>
<svg version="1.1" xmlns:xlink="http://www.w3.org/1999/xlink" width="14px" height="14px" xmlns="http://www.w3.org/2000/svg">
  <g transform="matrix(1 0 0 1 -70 -64 )">
    <path d="M 77 64  C 80.92 64  84 67.08  84 71  C 84 74.92  80.92 78  77 78  C 73.08 78  70 74.92  70 71  C 70 67.08  73.08 64  77 64  Z " fill-rule="nonzero" fill="#ffffff" stroke="none" fill-opacity="0" />
    <path d="M 77 64.5  C 80.64 64.5  83.5 67.36  83.5 71  C 83.5 74.64  80.64 77.5  77 77.5  C 73.36 77.5  70.5 74.64  70.5 71  C 70.5 67.36  73.36 64.5  77 64.5  Z " stroke-width="1" stroke="#1890ff" fill="none" />
  </g>
</svg>