<?xml version="1.0" encoding="utf-8"?>
<svg version="1.1" xmlns:xlink="http://www.w3.org/1999/xlink" width="14px" height="14px" xmlns="http://www.w3.org/2000/svg">
  <g transform="matrix(1 0 0 1 -144 -64 )">
    <path d="M 151 64  C 154.92 64  158 67.08  158 71  C 158 74.92  154.92 78  151 78  C 147.08 78  144 74.92  144 71  C 144 67.08  147.08 64  151 64  Z " fill-rule="nonzero" fill="#ffffff" stroke="none" fill-opacity="0" />
    <path d="M 151 64.5  C 154.64 64.5  157.5 67.36  157.5 71  C 157.5 74.64  154.64 77.5  151 77.5  C 147.36 77.5  144.5 74.64  144.5 71  C 144.5 67.36  147.36 64.5  151 64.5  Z " stroke-width="1" stroke="#d9d9d9" fill="none" />
  </g>
</svg>