<?xml version="1.0" encoding="utf-8"?>
<svg version="1.1" xmlns:xlink="http://www.w3.org/1999/xlink" width="57px" height="39px" xmlns="http://www.w3.org/2000/svg">
  <defs>
    <filter x="69px" y="905px" width="57px" height="39px" filterUnits="userSpaceOnUse" id="filter37">
      <feOffset dx="1" dy="1" in="SourceAlpha" result="shadowOffsetInner" />
      <feGaussianBlur stdDeviation="2.5" in="shadowOffsetInner" result="shadowGaussian" />
      <feComposite in2="shadowGaussian" operator="atop" in="SourceAlpha" result="shadowComposite" />
      <feColorMatrix type="matrix" values="0 0 0 0 0  0 0 0 0 0  0 0 0 0 0  0 0 0 0.698039215686274 0  " in="shadowComposite" />
    </filter>
    <g id="widget38">
      <path d="M 74.2295081967213 937.5  C 74.2295081967213 937.5  74.2295081967213 909.671597633136  74.2295081967213 909.671597633136  C 74.2295081967213 909.671597633136  106.5 909.671597633136  106.5 909.671597633136  C 106.5 909.671597633136  106.5 920.560455399933  106.5 920.560455399933  C 106.5 920.560455399933  118.223540166459 928.200851291308  118.223540166459 928.200851291308  C 118.223540166459 928.200851291308  106.5 934.490333997246  106.5 934.490333997246  C 106.5 934.490333997246  106.5 937.5  106.5 937.5  C 106.5 937.5  74.2295081967213 937.5  74.2295081967213 937.5  Z " fill-rule="nonzero" fill="#009dd9" stroke="none" />
      <path d="M 73.7295081967213 938  C 73.7295081967213 938  73.7295081967213 909.171597633136  73.7295081967213 909.171597633136  C 73.7295081967213 909.171597633136  107 909.171597633136  107 909.171597633136  C 107 909.171597633136  107 920.289501902568  107 920.289501902568  C 107 920.289501902568  119.203360655738 928.242603550296  119.203360655738 928.242603550296  C 119.203360655738 928.242603550296  107 934.789501902568  107 934.789501902568  C 107 934.789501902568  107 938  107 938  C 107 938  73.7295081967213 938  73.7295081967213 938  Z M 74.7295081967213 937  C 74.7295081967213 937  106 937  106 937  C 106 937  106 934.191166091923  106 934.191166091923  C 106 934.191166091923  117.243719677179 928.15909903232  117.243719677179 928.15909903232  C 117.243719677179 928.15909903232  106 920.831408897298  106 920.831408897298  C 106 920.831408897298  106 910.171597633136  106 910.171597633136  C 106 910.171597633136  74.7295081967213 910.171597633136  74.7295081967213 910.171597633136  C 74.7295081967213 910.171597633136  74.7295081967213 937  74.7295081967213 937  Z " fill-rule="nonzero" fill="#ffffff" stroke="none" />
    </g>
  </defs>
  <g transform="matrix(1 0 0 1 -69 -905 )">
    <use xlink:href="#widget38" filter="url(#filter37)" />
    <use xlink:href="#widget38" />
  </g>
</svg>