<?xml version="1.0" encoding="utf-8"?>
<svg version="1.1" xmlns:xlink="http://www.w3.org/1999/xlink" width="57px" height="39px" xmlns="http://www.w3.org/2000/svg">
  <defs>
    <filter x="69px" y="956px" width="57px" height="39px" filterUnits="userSpaceOnUse" id="filter39">
      <feOffset dx="1" dy="1" in="SourceAlpha" result="shadowOffsetInner" />
      <feGaussianBlur stdDeviation="2.5" in="shadowOffsetInner" result="shadowGaussian" />
      <feComposite in2="shadowGaussian" operator="atop" in="SourceAlpha" result="shadowComposite" />
      <feColorMatrix type="matrix" values="0 0 0 0 0  0 0 0 0 0  0 0 0 0 0  0 0 0 0.698039215686274 0  " in="shadowComposite" />
    </filter>
    <g id="widget40">
      <path d="M 74.2295081967213 988.5  C 74.2295081967213 988.5  74.2295081967213 960.671597633136  74.2295081967213 960.671597633136  C 74.2295081967213 960.671597633136  106.5 960.671597633136  106.5 960.671597633136  C 106.5 960.671597633136  106.5 965.780387611834  106.5 965.780387611834  C 106.5 965.780387611834  118.150094856764 978.814496311251  118.150094856764 978.814496311251  C 118.150094856764 978.814496311251  106.5 979.622998691566  106.5 979.622998691566  C 106.5 979.622998691566  106.5 988.5  106.5 988.5  C 106.5 988.5  74.2295081967213 988.5  74.2295081967213 988.5  Z " fill-rule="nonzero" fill="#009dd9" stroke="none" />
      <path d="M 73.7295081967213 989  C 73.7295081967213 989  73.7295081967213 960.171597633136  73.7295081967213 960.171597633136  C 73.7295081967213 960.171597633136  107 960.171597633136  107 960.171597633136  C 107 960.171597633136  107 965.589501902568  107 965.589501902568  C 107 965.589501902568  119.203360655738 979.242603550296  119.203360655738 979.242603550296  C 119.203360655738 979.242603550296  107 980.089501902568  107 980.089501902568  C 107 980.089501902568  107 989  107 989  C 107 989  73.7295081967213 989  73.7295081967213 989  Z M 74.7295081967213 988  C 74.7295081967213 988  106 988  106 988  C 106 988  106 979.156495480564  106 979.156495480564  C 106 979.156495480564  117.096829057791 978.386389072206  117.096829057791 978.386389072206  C 117.096829057791 978.386389072206  106 965.9712733211  106 965.9712733211  C 106 965.9712733211  106 961.171597633136  106 961.171597633136  C 106 961.171597633136  74.7295081967213 961.171597633136  74.7295081967213 961.171597633136  C 74.7295081967213 961.171597633136  74.7295081967213 988  74.7295081967213 988  Z " fill-rule="nonzero" fill="#ffffff" stroke="none" />
    </g>
  </defs>
  <g transform="matrix(1 0 0 1 -69 -956 )">
    <use xlink:href="#widget40" filter="url(#filter39)" />
    <use xlink:href="#widget40" />
  </g>
</svg>