<?xml version="1.0" encoding="utf-8"?>
<svg version="1.1" xmlns:xlink="http://www.w3.org/1999/xlink" width="59px" height="39px" xmlns="http://www.w3.org/2000/svg">
  <defs>
    <filter x="271px" y="1049px" width="59px" height="39px" filterUnits="userSpaceOnUse" id="filter43">
      <feOffset dx="1" dy="1" in="SourceAlpha" result="shadowOffsetInner" />
      <feGaussianBlur stdDeviation="2.5" in="shadowOffsetInner" result="shadowGaussian" />
      <feComposite in2="shadowGaussian" operator="atop" in="SourceAlpha" result="shadowComposite" />
      <feColorMatrix type="matrix" values="0 0 0 0 0  0 0 0 0 0  0 0 0 0 0  0 0 0 0.698039215686274 0  " in="shadowComposite" />
    </filter>
    <g id="widget44">
      <path d="M 291.229508196721 1081.5  C 291.229508196721 1081.5  291.229508196721 1072.54995210778  291.229508196721 1072.54995210778  C 291.229508196721 1072.54995210778  276.438395830049 1071.06414945202  276.438395830049 1071.06414945202  C 276.438395830049 1071.06414945202  291.229508196721 1058.73640764991  291.229508196721 1058.73640764991  C 291.229508196721 1058.73640764991  291.229508196721 1053.67159763314  291.229508196721 1053.67159763314  C 291.229508196721 1053.67159763314  323.5 1053.67159763314  323.5 1053.67159763314  C 323.5 1053.67159763314  323.5 1081.5  323.5 1081.5  C 323.5 1081.5  291.229508196721 1081.5  291.229508196721 1081.5  Z " fill-rule="nonzero" fill="#009dd9" stroke="none" />
      <path d="M 290.729508196721 1082  C 290.729508196721 1082  290.729508196721 1073.00224224942  290.729508196721 1073.00224224942  C 290.729508196721 1073.00224224942  275.203360655738 1071.4426035503  275.203360655738 1071.4426035503  C 275.203360655738 1071.4426035503  290.729508196721 1058.50224224942  290.729508196721 1058.50224224942  C 290.729508196721 1058.50224224942  290.729508196721 1053.17159763314  290.729508196721 1053.17159763314  C 290.729508196721 1053.17159763314  324 1053.17159763314  324 1053.17159763314  C 324 1053.17159763314  324 1082  324 1082  C 324 1082  290.729508196721 1082  290.729508196721 1082  Z M 291.729508196721 1081  C 291.729508196721 1081  323 1081  323 1081  C 323 1081  323 1054.17159763314  323 1054.17159763314  C 323 1054.17159763314  291.729508196721 1054.17159763314  291.729508196721 1054.17159763314  C 291.729508196721 1054.17159763314  291.729508196721 1058.97057305041  291.729508196721 1058.97057305041  C 291.729508196721 1058.97057305041  277.67343100436 1070.68569535374  277.67343100436 1070.68569535374  C 277.67343100436 1070.68569535374  291.729508196721 1072.09766196614  291.729508196721 1072.09766196614  C 291.729508196721 1072.09766196614  291.729508196721 1081  291.729508196721 1081  Z " fill-rule="nonzero" fill="#ffffff" stroke="none" />
    </g>
  </defs>
  <g transform="matrix(1 0 0 1 -271 -1049 )">
    <use xlink:href="#widget44" filter="url(#filter43)" />
    <use xlink:href="#widget44" />
  </g>
</svg>