<?xml version="1.0" encoding="utf-8"?>
<svg version="1.1" xmlns:xlink="http://www.w3.org/1999/xlink" width="12px" height="12px" viewBox="707 889  12 12" xmlns="http://www.w3.org/2000/svg">
  <path d="M 713 889  C 716.36 889  719 891.64  719 895  C 719 898.36  716.36 901  713 901  C 709.64 901  707 898.36  707 895  C 707 891.64  709.64 889  713 889  Z " fill-rule="nonzero" fill="#ffffff" stroke="none" />
  <path d="M 713 889.5  C 716.08 889.5  718.5 891.92  718.5 895  C 718.5 898.08  716.08 900.5  713 900.5  C 709.92 900.5  707.5 898.08  707.5 895  C 707.5 891.92  709.92 889.5  713 889.5  Z " stroke-width="1" stroke="#797979" fill="none" />
  <path d="M 713 898  C 711.32 898  710 896.68  710 895  C 710 893.32  711.32 892  713 892  C 714.68 892  716 893.32  716 895  C 716 896.68  714.68 898  713 898  " fill-rule="nonzero" fill="#797979" stroke="none" />
</svg>