<?xml version="1.0" encoding="utf-8"?>
<svg version="1.1" xmlns:xlink="http://www.w3.org/1999/xlink" width="64px" height="39px" xmlns="http://www.w3.org/2000/svg">
  <defs>
    <filter x="174px" y="988px" width="64px" height="39px" filterUnits="userSpaceOnUse" id="filter51">
      <feOffset dx="1" dy="1" in="SourceAlpha" result="shadowOffsetInner" />
      <feGaussianBlur stdDeviation="2.5" in="shadowOffsetInner" result="shadowGaussian" />
      <feComposite in2="shadowGaussian" operator="atop" in="SourceAlpha" result="shadowComposite" />
      <feColorMatrix type="matrix" values="0 0 0 0 0  0 0 0 0 0  0 0 0 0 0  0 0 0 0.698039215686274 0  " in="shadowComposite" />
    </filter>
    <g id="widget52">
      <path d="M 199.229508196721 1020.5  C 199.229508196721 1020.5  199.229508196721 1012.9302222205  199.229508196721 1012.9302222205  C 199.229508196721 1012.9302222205  180.131135874966 1011.82980240148  180.131135874966 1011.82980240148  C 180.131135874966 1011.82980240148  199.229508196721 999.170688852202  199.229508196721 999.170688852202  C 199.229508196721 999.170688852202  199.229508196721 992.671597633136  199.229508196721 992.671597633136  C 199.229508196721 992.671597633136  231.5 992.671597633136  231.5 992.671597633136  C 231.5 992.671597633136  231.5 1020.5  231.5 1020.5  C 231.5 1020.5  199.229508196721 1020.5  199.229508196721 1020.5  Z " fill-rule="nonzero" fill="#009dd9" stroke="none" />
      <path d="M 198.729508196721 1021  C 198.729508196721 1021  198.729508196721 1013.40224224942  198.729508196721 1013.40224224942  C 198.729508196721 1013.40224224942  178.603360655738 1012.2426035503  178.603360655738 1012.2426035503  C 178.603360655738 1012.2426035503  198.729508196721 998.90224224942  198.729508196721 998.90224224942  C 198.729508196721 998.90224224942  198.729508196721 992.171597633136  198.729508196721 992.171597633136  C 198.729508196721 992.171597633136  232 992.171597633136  232 992.171597633136  C 232 992.171597633136  232 1021  232 1021  C 232 1021  198.729508196721 1021  198.729508196721 1021  Z M 199.729508196721 1020  C 199.729508196721 1020  231 1020  231 1020  C 231 1020  231 993.171597633136  231 993.171597633136  C 231 993.171597633136  199.729508196721 993.171597633136  199.729508196721 993.171597633136  C 199.729508196721 993.171597633136  199.729508196721 999.439135454985  199.729508196721 999.439135454985  C 199.729508196721 999.439135454985  181.658911094194 1011.41700125267  181.658911094194 1011.41700125267  C 181.658911094194 1011.41700125267  199.729508196721 1012.45820219158  199.729508196721 1012.45820219158  C 199.729508196721 1012.45820219158  199.729508196721 1020  199.729508196721 1020  Z " fill-rule="nonzero" fill="#ffffff" stroke="none" />
    </g>
  </defs>
  <g transform="matrix(1 0 0 1 -174 -988 )">
    <use xlink:href="#widget52" filter="url(#filter51)" />
    <use xlink:href="#widget52" />
  </g>
</svg>