<?xml version="1.0" encoding="utf-8"?>
<svg version="1.1" xmlns:xlink="http://www.w3.org/1999/xlink" width="12px" height="12px" viewBox="706 889  12 12" xmlns="http://www.w3.org/2000/svg">
  <path d="M 712 889  C 715.36 889  718 891.64  718 895  C 718 898.36  715.36 901  712 901  C 708.64 901  706 898.36  706 895  C 706 891.64  708.64 889  712 889  Z " fill-rule="nonzero" fill="#ffffff" stroke="none" />
  <path d="M 712 889.5  C 715.08 889.5  717.5 891.92  717.5 895  C 717.5 898.08  715.08 900.5  712 900.5  C 708.92 900.5  706.5 898.08  706.5 895  C 706.5 891.92  708.92 889.5  712 889.5  Z " stroke-width="1" stroke="#797979" fill="none" />
  <path d="M 712 898  C 710.32 898  709 896.68  709 895  C 709 893.32  710.32 892  712 892  C 713.68 892  715 893.32  715 895  C 715 896.68  713.68 898  712 898  " fill-rule="nonzero" fill="#797979" stroke="none" />
</svg>