<?xml version="1.0" encoding="utf-8"?>
<svg version="1.1" xmlns:xlink="http://www.w3.org/1999/xlink" width="44px" height="51px" xmlns="http://www.w3.org/2000/svg">
  <defs>
    <filter x="973px" y="2662px" width="44px" height="51px" filterUnits="userSpaceOnUse" id="filter69">
      <feOffset dx="1" dy="1" in="SourceAlpha" result="shadowOffsetInner" />
      <feGaussianBlur stdDeviation="2.5" in="shadowOffsetInner" result="shadowGaussian" />
      <feComposite in2="shadowGaussian" operator="atop" in="SourceAlpha" result="shadowComposite" />
      <feColorMatrix type="matrix" values="0 0 0 0 0  0 0 0 0 0  0 0 0 0 0  0 0 0 0.698039215686274 0  " in="shadowComposite" />
    </filter>
    <g id="widget70">
      <path d="M 978.229508196721 2694.5  C 978.229508196721 2694.5  978.229508196721 2666.67159763314  978.229508196721 2666.67159763314  C 978.229508196721 2666.67159763314  1010.5 2666.67159763314  1010.5 2666.67159763314  C 1010.5 2666.67159763314  1010.5 2694.5  1010.5 2694.5  C 1010.5 2694.5  1003.95005782207 2694.5  1003.95005782207 2694.5  C 1003.95005782207 2694.5  1000.35882710388 2705.7635756935  1000.35882710388 2705.7635756935  C 1000.35882710388 2705.7635756935  987.503497053916 2694.5  987.503497053916 2694.5  C 987.503497053916 2694.5  978.229508196721 2694.5  978.229508196721 2694.5  Z " fill-rule="nonzero" fill="#009dd9" stroke="none" />
      <path d="M 977.729508196721 2695  C 977.729508196721 2695  977.729508196721 2666.17159763314  977.729508196721 2666.17159763314  C 977.729508196721 2666.17159763314  1011 2666.17159763314  1011 2666.17159763314  C 1011 2666.17159763314  1011 2695  1011 2695  C 1011 2695  1004.31543900877 2695  1004.31543900877 2695  C 1004.31543900877 2695  1000.60336065574 2706.6426035503  1000.60336065574 2706.6426035503  C 1000.60336065574 2706.6426035503  987.315439008773 2695  987.315439008773 2695  C 987.315439008773 2695  977.729508196721 2695  977.729508196721 2695  Z M 978.729508196721 2694  C 978.729508196721 2694  987.69155509906 2694  987.69155509906 2694  C 987.69155509906 2694  1000.11429355201 2704.8845478367  1000.11429355201 2704.8845478367  C 1000.11429355201 2704.8845478367  1003.58467663537 2694  1003.58467663537 2694  C 1003.58467663537 2694  1010 2694  1010 2694  C 1010 2694  1010 2667.17159763314  1010 2667.17159763314  C 1010 2667.17159763314  978.729508196721 2667.17159763314  978.729508196721 2667.17159763314  C 978.729508196721 2667.17159763314  978.729508196721 2694  978.729508196721 2694  Z " fill-rule="nonzero" fill="#ffffff" stroke="none" />
    </g>
  </defs>
  <g transform="matrix(1 0 0 1 -973 -2662 )">
    <use xlink:href="#widget70" filter="url(#filter69)" />
    <use xlink:href="#widget70" />
  </g>
</svg>