<?xml version="1.0" encoding="utf-8"?>
<svg version="1.1" xmlns:xlink="http://www.w3.org/1999/xlink" width="44px" height="49px" xmlns="http://www.w3.org/2000/svg">
  <defs>
    <filter x="551px" y="2725px" width="44px" height="49px" filterUnits="userSpaceOnUse" id="filter79">
      <feOffset dx="1" dy="1" in="SourceAlpha" result="shadowOffsetInner" />
      <feGaussianBlur stdDeviation="2.5" in="shadowOffsetInner" result="shadowGaussian" />
      <feComposite in2="shadowGaussian" operator="atop" in="SourceAlpha" result="shadowComposite" />
      <feColorMatrix type="matrix" values="0 0 0 0 0  0 0 0 0 0  0 0 0 0 0  0 0 0 0.698039215686274 0  " in="shadowComposite" />
    </filter>
    <g id="widget80">
      <path d="M 556.229508196721 2757.5  C 556.229508196721 2757.5  556.229508196721 2729.67159763314  556.229508196721 2729.67159763314  C 556.229508196721 2729.67159763314  588.5 2729.67159763314  588.5 2729.67159763314  C 588.5 2729.67159763314  588.5 2757.5  588.5 2757.5  C 588.5 2757.5  581.556803779928 2757.5  581.556803779928 2757.5  C 581.556803779928 2757.5  574.545391226842 2767.07543901705  574.545391226842 2767.07543901705  C 574.545391226842 2767.07543901705  565.018246429933 2757.5  565.018246429933 2757.5  C 565.018246429933 2757.5  556.229508196721 2757.5  556.229508196721 2757.5  Z " fill-rule="nonzero" fill="#009dd9" stroke="none" />
      <path d="M 555.729508196721 2758  C 555.729508196721 2758  555.729508196721 2729.17159763314  555.729508196721 2729.17159763314  C 555.729508196721 2729.17159763314  589 2729.17159763314  589 2729.17159763314  C 589 2729.17159763314  589 2758  589 2758  C 589 2758  581.810398783674 2758  581.810398783674 2758  C 581.810398783674 2758  574.603360655738 2767.8426035503  574.603360655738 2767.8426035503  C 574.603360655738 2767.8426035503  564.810398783674 2758  564.810398783674 2758  C 564.810398783674 2758  555.729508196721 2758  555.729508196721 2758  Z M 556.729508196721 2757  C 556.729508196721 2757  565.226094076193 2757  565.226094076193 2757  C 565.226094076193 2757  574.487421797946 2766.3082744838  574.487421797946 2766.3082744838  C 574.487421797946 2766.3082744838  581.303208776183 2757  581.303208776183 2757  C 581.303208776183 2757  588 2757  588 2757  C 588 2757  588 2730.17159763314  588 2730.17159763314  C 588 2730.17159763314  556.729508196721 2730.17159763314  556.729508196721 2730.17159763314  C 556.729508196721 2730.17159763314  556.729508196721 2757  556.729508196721 2757  Z " fill-rule="nonzero" fill="#ffffff" stroke="none" />
    </g>
  </defs>
  <g transform="matrix(1 0 0 1 -551 -2725 )">
    <use xlink:href="#widget80" filter="url(#filter79)" />
    <use xlink:href="#widget80" />
  </g>
</svg>