<?xml version="1.0" encoding="utf-8"?>
<svg version="1.1" xmlns:xlink="http://www.w3.org/1999/xlink" width="37px" height="42px" xmlns="http://www.w3.org/2000/svg">
  <g transform="matrix(1 0 0 1 -263 -150 )">
    <path d="M 36.9080255681818 32.0878906250001  C 36.9693418560606 33.0084635416668  37 33.9518229166668  37 34.9179687500001  C 37 37.1054687499999  36.3605587121212 38.8326822916667  35.0816761363636 40.0996093749999  C 33.8027935606061 41.3665364583333  32.1034564393939 42  29.9836647727273 42  L 7.01633522727269 42  C 4.89654356060612 42  3.19720643939388 41.3665364583333  1.91832386363637 40.0996093749999  C 0.639441287878753 38.8326822916667  0 37.1054687499999  0 34.9179687500001  C 0 33.9518229166668  0.0306581439394336 33.0084635416668  0.091974431818187 32.0878906250001  C 0.15329071969694 31.1673177083334  0.275923295454504 30.1738281249999  0.459872159090878 29.1074218749999  C 0.643821022727309 28.0410156249999  0.87594696969694 27.0520833333333  1.15625 26.1406250000001  C 1.43655303030306 25.2291666666666  1.81321022727269 24.3404947916667  2.28622159090912 23.4746093750001  C 2.7592329545455 22.6087239583332  3.30232007575762 21.8704427083332  3.9154829545455 21.2597656250001  C 4.52864583333343 20.6490885416667  5.27758049242425 20.1614583333333  6.16228693181819 19.7968749999999  C 7.04699337121207 19.4322916666668  8.02367424242425 19.2500000000001  9.0923295454545 19.2500000000001  C 9.25 19.2500000000001  9.61789772727269 19.4459635416666  10.1960227272727 19.8378906249999  C 10.7741477272727 20.2298177083332  11.4267282196969 20.6673177083334  12.1537642045455 21.1503906249999  C 12.8808001893939 21.6334635416667  13.8268229166667 22.0709635416666  14.9918323863637 22.4628906249999  C 16.1568418560606 22.8548177083332  17.3262310606059 23.05078125  18.5 23.05078125  C 19.6737689393941 23.05078125  20.8431581439394 22.8548177083332  22.0081676136363 22.4628906249999  C 23.1731770833333 22.0709635416666  24.1191998106059 21.6334635416667  24.8462357954546 21.1503906249999  C 25.5732717803031 20.6673177083334  26.2258522727273 20.2298177083332  26.8039772727273 19.8378906249999  C 27.3821022727273 19.4459635416666  27.75 19.2500000000001  27.9076704545455 19.2500000000001  C 28.9763257575759 19.2500000000001  29.9530066287878 19.4322916666668  30.8377130681818 19.7968749999999  C 31.7224195075759 20.1614583333333  32.4713541666668 20.6490885416667  33.0845170454545 21.2597656250001  C 33.6976799242425 21.8704427083332  34.2407670454545 22.6087239583332  34.713778409091 23.4746093750001  C 35.1867897727273 24.3404947916667  35.563446969697 25.2291666666666  35.84375 26.1406250000001  C 36.124053030303 27.0520833333333  36.3561789772727 28.0410156249999  36.540127840909 29.1074218749999  C 36.7240767045455 30.1738281249999  36.846709280303 31.1673177083334  36.9080255681818 32.0878906250001  Z M 25.6345880681818 3.076171875  C 27.60546875 5.126953125  28.590909090909 7.60156250000011  28.590909090909 10.5  C 28.590909090909 13.3984374999999  27.60546875 15.873046875  25.6345880681818 17.923828125  C 23.6637073863637 19.974609375  21.2855113636363 21  18.5 21  C 15.7144886363637 21  13.3362926136363 19.974609375  11.3654119318182 17.923828125  C 9.39453125 15.873046875  8.40909090909099 13.3984374999999  8.40909090909099 10.5  C 8.40909090909099 7.60156250000011  9.39453125 5.126953125  11.3654119318182 3.076171875  C 13.3362926136363 1.025390625  15.7144886363637 0  18.5 0  C 21.2855113636363 0  23.6637073863637 1.025390625  25.6345880681818 3.076171875  Z " fill-rule="nonzero" fill="#333333" stroke="none" transform="matrix(1 0 0 1 263 150 )" />
  </g>
</svg>