<?xml version="1.0" encoding="utf-8"?>
<svg version="1.1" xmlns:xlink="http://www.w3.org/1999/xlink" width="25px" height="28px" xmlns="http://www.w3.org/2000/svg">
  <g transform="matrix(1 0 0 1 -1160 -130 )">
    <path d="M 24.9378551136363 21.3919270833334  C 24.9792850378788 22.0056423611112  25 22.6345486111112  25 23.2786458333334  C 25 24.7369791666666  24.5679450757575 25.8884548611112  23.7038352272727 26.7330729166666  C 22.839725378788 27.5776909722222  21.691524621212 28  20.2592329545455 28  L 4.7407670454545 28  C 3.30847537878799 28  2.16027462121201 27.5776909722222  1.29616477272725 26.7330729166666  C 0.432054924242493 25.8884548611112  0 24.7369791666666  0 23.2786458333334  C 0 22.6345486111112  0.0207149621212466 22.0056423611112  0.0621448863637397 21.3919270833334  C 0.103574810606005 20.7782118055556  0.186434659090992 20.1158854166666  0.310724431818244 19.4049479166666  C 0.435014204545496 18.6940104166666  0.591856060606005 18.0347222222222  0.78125 17.4270833333334  C 0.970643939393995 16.8194444444444  1.2251420454545 16.2269965277778  1.54474431818176 15.6497395833334  C 1.86434659090901 15.0724826388888  2.23129734848499 14.5802951388888  2.64559659090901 14.1731770833334  C 3.05989583333348 13.7660590277778  3.5659327651515 13.4409722222222  4.16370738636374 13.1979166666666  C 4.76148200757575 12.9548611111112  5.4214015151515 12.8333333333334  6.14346590909099 12.8333333333334  C 6.25 12.8333333333334  6.4985795454545 12.9639756944444  6.8892045454545 13.2252604166666  C 7.2798295454545 13.4865451388888  7.72076231060601 13.7782118055556  8.21200284090901 14.1002604166666  C 8.70324337121201 14.4223090277778  9.34244791666674 14.7139756944444  10.1296164772727 14.9752604166666  C 10.9167850378788 15.2365451388888  11.7069128787878 15.3671875  12.5 15.3671875  C 13.2930871212122 15.3671875  14.0832149621212 15.2365451388888  14.8703835227273 14.9752604166666  C 15.6575520833333 14.7139756944444  16.2967566287878 14.4223090277778  16.787997159091 14.1002604166666  C 17.279237689394 13.7782118055556  17.7201704545455 13.4865451388888  18.1107954545455 13.2252604166666  C 18.5014204545455 12.9639756944444  18.75 12.8333333333334  18.856534090909 12.8333333333334  C 19.5785984848485 12.8333333333334  20.2385179924242 12.9548611111112  20.8362926136363 13.1979166666666  C 21.4340672348485 13.4409722222222  21.9401041666667 13.7660590277778  22.354403409091 14.1731770833334  C 22.7687026515152 14.5802951388888  23.135653409091 15.0724826388888  23.4552556818182 15.6497395833334  C 23.7748579545455 16.2269965277778  24.029356060606 16.8194444444444  24.21875 17.4270833333334  C 24.408143939394 18.0347222222222  24.5649857954545 18.6940104166666  24.6892755681818 19.4049479166666  C 24.813565340909 20.1158854166666  24.896425189394 20.7782118055556  24.9378551136363 21.3919270833334  Z M 17.3206676136363 2.05078125  C 18.65234375 3.41796875  19.3181818181818 5.0677083333334  19.3181818181818 7  C 19.3181818181818 8.9322916666666  18.65234375 10.58203125  17.3206676136363 11.94921875  C 15.9889914772727 13.31640625  14.3821022727273 14  12.5 14  C 10.6178977272727 14  9.01100852272725 13.31640625  7.67933238636374 11.94921875  C 6.34765625 10.58203125  5.68181818181824 8.9322916666666  5.68181818181824 7  C 5.68181818181824 5.0677083333334  6.34765625 3.41796875  7.67933238636374 2.05078125  C 9.01100852272725 0.68359375  10.6178977272727 0  12.5 0  C 14.3821022727273 0  15.9889914772727 0.68359375  17.3206676136363 2.05078125  Z " fill-rule="nonzero" fill="#333333" stroke="none" transform="matrix(1 0 0 1 1160 130 )" />
  </g>
</svg>