<?xml version="1.0" encoding="utf-8"?>
<svg version="1.1" xmlns:xlink="http://www.w3.org/1999/xlink" width="31px" height="10px" preserveAspectRatio="xMinYMid meet" viewBox="404 323  31 8" xmlns="http://www.w3.org/2000/svg">
  <path d="M 529 217.5  L 435 217.5  A 5 5 0 0 0 430.5 222.5 L 430.5 322  A 5 5 0 0 1 425.5 327.5 L 405 327.5  " stroke-width="1" stroke="#6699ff" fill="none" />
  <path d="M 527 214.5  A 3 3 0 0 0 524 217.5 A 3 3 0 0 0 527 220.5 A 3 3 0 0 0 530 217.5 A 3 3 0 0 0 527 214.5 Z M 407 324.5  A 3 3 0 0 0 404 327.5 A 3 3 0 0 0 407 330.5 A 3 3 0 0 0 410 327.5 A 3 3 0 0 0 407 324.5 Z " fill-rule="nonzero" fill="#6699ff" stroke="none" />
</svg>