<?xml version="1.0" encoding="utf-8"?>
<svg version="1.1" xmlns:xlink="http://www.w3.org/1999/xlink" width="70px" height="48px" xmlns="http://www.w3.org/2000/svg">
  <g transform="matrix(1 0 0 1 -783 -338 )">
    <path d="M 804.282435878206 377  C 804.282435878206 377  804.282435878206 372  804.282435878206 372  C 804.282435878206 372  783 363.200000000001  783 363.200000000001  C 783 363.200000000001  804.282435878206 352  804.282435878206 352  C 804.282435878206 352  804.282435878206 347  804.282435878206 347  C 804.282435878206 342.029437251523  808.311873129729 338  813.282435878206 338  C 813.282435878206 338  844 338  844 338  C 848.970562748477 338  853 342.029437251523  853 347  C 853 347  853 377  853 377  C 853 381.970562748477  848.970562748477 386  844 386  C 844 386  813.282435878206 386  813.282435878206 386  C 808.311873129729 386  804.282435878206 381.970562748477  804.282435878206 377  Z " fill-rule="nonzero" fill="#02a7f0" stroke="none" />
  </g>
</svg>