<?xml version="1.0" encoding="utf-8"?>
<svg version="1.1" xmlns:xlink="http://www.w3.org/1999/xlink" width="12px" height="12px" viewBox="130 781  12 12" xmlns="http://www.w3.org/2000/svg">
  <path d="M 136 781  C 139.36 781  142 783.64  142 787  C 142 790.36  139.36 793  136 793  C 132.64 793  130 790.36  130 787  C 130 783.64  132.64 781  136 781  Z " fill-rule="nonzero" fill="#ffffff" stroke="none" />
  <path d="M 136 781.5  C 139.08 781.5  141.5 783.92  141.5 787  C 141.5 790.08  139.08 792.5  136 792.5  C 132.92 792.5  130.5 790.08  130.5 787  C 130.5 783.92  132.92 781.5  136 781.5  Z " stroke-width="1" stroke="#797979" fill="none" />
  <path d="M 136 790  C 134.32 790  133 788.68  133 787  C 133 785.32  134.32 784  136 784  C 137.68 784  139 785.32  139 787  C 139 788.68  137.68 790  136 790  " fill-rule="nonzero" fill="#797979" stroke="none" />
</svg>