<?xml version="1.0" encoding="utf-8"?>
<svg version="1.1" xmlns:xlink="http://www.w3.org/1999/xlink" width="12px" height="12px" viewBox="253 781  12 12" xmlns="http://www.w3.org/2000/svg">
  <path d="M 259 781  C 262.36 781  265 783.64  265 787  C 265 790.36  262.36 793  259 793  C 255.64 793  253 790.36  253 787  C 253 783.64  255.64 781  259 781  Z " fill-rule="nonzero" fill="#ffffff" stroke="none" />
  <path d="M 259 781.5  C 262.08 781.5  264.5 783.92  264.5 787  C 264.5 790.08  262.08 792.5  259 792.5  C 255.92 792.5  253.5 790.08  253.5 787  C 253.5 783.92  255.92 781.5  259 781.5  Z " stroke-width="1" stroke="#797979" fill="none" />
  <path d="M 259 790  C 257.32 790  256 788.68  256 787  C 256 785.32  257.32 784  259 784  C 260.68 784  262 785.32  262 787  C 262 788.68  260.68 790  259 790  " fill-rule="nonzero" fill="#797979" stroke="none" />
</svg>