<?xml version="1.0" encoding="utf-8"?>
<svg version="1.1" xmlns:xlink="http://www.w3.org/1999/xlink" width="63px" height="39px" xmlns="http://www.w3.org/2000/svg">
  <defs>
    <filter x="185px" y="1064px" width="63px" height="39px" filterUnits="userSpaceOnUse" id="filter362">
      <feOffset dx="1" dy="1" in="SourceAlpha" result="shadowOffsetInner" />
      <feGaussianBlur stdDeviation="2.5" in="shadowOffsetInner" result="shadowGaussian" />
      <feComposite in2="shadowGaussian" operator="atop" in="SourceAlpha" result="shadowComposite" />
      <feColorMatrix type="matrix" values="0 0 0 0 0  0 0 0 0 0  0 0 0 0 0  0 0 0 0.698039215686274 0  " in="shadowComposite" />
    </filter>
    <g id="widget363">
      <path d="M 190.229508196721 1096.5  C 190.229508196721 1096.5  190.229508196721 1068.67159763314  190.229508196721 1068.67159763314  C 190.229508196721 1068.67159763314  222.5 1068.67159763314  222.5 1068.67159763314  C 222.5 1068.67159763314  222.5 1079.85578308208  222.5 1079.85578308208  C 222.5 1079.85578308208  239.52986994295 1077.7303806394  239.52986994295 1077.7303806394  C 239.52986994295 1077.7303806394  222.5 1093.57172861551  222.5 1093.57172861551  C 222.5 1093.57172861551  222.5 1096.5  222.5 1096.5  C 222.5 1096.5  190.229508196721 1096.5  190.229508196721 1096.5  Z " fill-rule="nonzero" fill="#009dd9" stroke="none" />
      <path d="M 189.729508196721 1097  C 189.729508196721 1097  189.729508196721 1068.17159763314  189.729508196721 1068.17159763314  C 189.729508196721 1068.17159763314  223 1068.17159763314  223 1068.17159763314  C 223 1068.17159763314  223 1079.28950190257  223 1079.28950190257  C 223 1079.28950190257  241.003360655738 1077.0426035503  241.003360655738 1077.0426035503  C 241.003360655738 1077.0426035503  223 1093.78950190257  223 1093.78950190257  C 223 1093.78950190257  223 1097  223 1097  C 223 1097  189.729508196721 1097  189.729508196721 1097  Z M 190.729508196721 1096  C 190.729508196721 1096  222 1096  222 1096  C 222 1096  222 1093.35395532846  222 1093.35395532846  C 222 1093.35395532846  238.056379230161 1078.41815772851  238.056379230161 1078.41815772851  C 238.056379230161 1078.41815772851  222 1080.4220642616  222 1080.4220642616  C 222 1080.4220642616  222 1069.17159763314  222 1069.17159763314  C 222 1069.17159763314  190.729508196721 1069.17159763314  190.729508196721 1069.17159763314  C 190.729508196721 1069.17159763314  190.729508196721 1096  190.729508196721 1096  Z " fill-rule="nonzero" fill="#ffffff" stroke="none" />
    </g>
  </defs>
  <g transform="matrix(1 0 0 1 -185 -1064 )">
    <use xlink:href="#widget363" filter="url(#filter362)" />
    <use xlink:href="#widget363" />
  </g>
</svg>