<?xml version="1.0" encoding="utf-8"?>
<svg version="1.1" xmlns:xlink="http://www.w3.org/1999/xlink" width="12px" height="12px" viewBox="258 717  12 12" xmlns="http://www.w3.org/2000/svg">
  <path d="M 264 717  C 267.36 717  270 719.64  270 723  C 270 726.36  267.36 729  264 729  C 260.64 729  258 726.36  258 723  C 258 719.64  260.64 717  264 717  Z " fill-rule="nonzero" fill="#ffffff" stroke="none" />
  <path d="M 264 717.5  C 267.08 717.5  269.5 719.92  269.5 723  C 269.5 726.08  267.08 728.5  264 728.5  C 260.92 728.5  258.5 726.08  258.5 723  C 258.5 719.92  260.92 717.5  264 717.5  Z " stroke-width="1" stroke="#797979" fill="none" />
  <path d="M 264 726  C 262.32 726  261 724.68  261 723  C 261 721.32  262.32 720  264 720  C 265.68 720  267 721.32  267 723  C 267 724.68  265.68 726  264 726  " fill-rule="nonzero" fill="#797979" stroke="none" />
</svg>