<?xml version="1.0" encoding="utf-8"?>
<svg version="1.1" xmlns:xlink="http://www.w3.org/1999/xlink" width="60px" height="43px" xmlns="http://www.w3.org/2000/svg">
  <defs>
    <filter x="641px" y="253px" width="60px" height="43px" filterUnits="userSpaceOnUse" id="filter7">
      <feOffset dx="1" dy="1" in="SourceAlpha" result="shadowOffsetInner" />
      <feGaussianBlur stdDeviation="2.5" in="shadowOffsetInner" result="shadowGaussian" />
      <feComposite in2="shadowGaussian" operator="atop" in="SourceAlpha" result="shadowComposite" />
      <feColorMatrix type="matrix" values="0 0 0 0 0  0 0 0 0 0  0 0 0 0 0  0 0 0 0.698039215686274 0  " in="shadowComposite" />
    </filter>
    <g id="widget8">
      <path d="M 662.229508196721 285.5  C 662.229508196721 285.5  662.229508196721 278.848199798767  662.229508196721 278.848199798767  C 662.229508196721 278.848199798767  647.109331094536 288.091307045075  647.109331094536 288.091307045075  C 647.109331094536 288.091307045075  662.229508196721 263.380715040816  662.229508196721 263.380715040816  C 662.229508196721 263.380715040816  662.229508196721 257.671597633136  662.229508196721 257.671597633136  C 662.229508196721 257.671597633136  694.5 257.671597633136  694.5 257.671597633136  C 694.5 257.671597633136  694.5 285.5  694.5 285.5  C 694.5 285.5  662.229508196721 285.5  662.229508196721 285.5  Z " fill-rule="nonzero" fill="#009dd9" stroke="none" />
      <path d="M 661.729508196721 286  C 661.729508196721 286  661.729508196721 279.739879110878  661.729508196721 279.739879110878  C 661.729508196721 279.739879110878  645.599999999999 289.600000000002  645.599999999999 289.600000000002  C 645.599999999999 289.600000000002  661.729508196721 263.239879110878  661.729508196721 263.239879110878  C 661.729508196721 263.239879110878  661.729508196721 257.171597633136  661.729508196721 257.171597633136  C 661.729508196721 257.171597633136  695 257.171597633136  695 257.171597633136  C 695 257.171597633136  695 286  695 286  C 695 286  661.729508196721 286  661.729508196721 286  Z M 662.729508196721 285  C 662.729508196721 285  694 285  694 285  C 694 285  694 258.171597633136  694 258.171597633136  C 694 258.171597633136  662.729508196721 258.171597633136  662.729508196721 258.171597633136  C 662.729508196721 258.171597633136  662.729508196721 263.521550970754  662.729508196721 263.521550970754  C 662.729508196721 263.521550970754  648.618662189074 286.582614090149  648.618662189074 286.582614090149  C 648.618662189074 286.582614090149  662.729508196721 277.956520486656  662.729508196721 277.956520486656  C 662.729508196721 277.956520486656  662.729508196721 285  662.729508196721 285  Z " fill-rule="nonzero" fill="#ffffff" stroke="none" />
    </g>
  </defs>
  <g transform="matrix(1 0 0 1 -641 -253 )">
    <use xlink:href="#widget8" filter="url(#filter7)" />
    <use xlink:href="#widget8" />
  </g>
</svg>