<?xml version="1.0" encoding="utf-8"?>
<svg version="1.1" xmlns:xlink="http://www.w3.org/1999/xlink" width="12px" height="12px" viewBox="399 58  12 12" xmlns="http://www.w3.org/2000/svg">
  <path d="M 405 58  C 408.36 58  411 60.64  411 64  C 411 67.36  408.36 70  405 70  C 401.64 70  399 67.36  399 64  C 399 60.64  401.64 58  405 58  Z " fill-rule="nonzero" fill="#ffffff" stroke="none" />
  <path d="M 405 58.5  C 408.08 58.5  410.5 60.92  410.5 64  C 410.5 67.08  408.08 69.5  405 69.5  C 401.92 69.5  399.5 67.08  399.5 64  C 399.5 60.92  401.92 58.5  405 58.5  Z " stroke-width="1" stroke="#797979" fill="none" />
  <path d="M 405 67  C 403.32 67  402 65.68  402 64  C 402 62.32  403.32 61  405 61  C 406.68 61  408 62.32  408 64  C 408 65.68  406.68 67  405 67  " fill-rule="nonzero" fill="#797979" stroke="none" />
</svg>