<?xml version="1.0" encoding="utf-8"?>
<svg version="1.1" xmlns:xlink="http://www.w3.org/1999/xlink" width="44px" height="56px" xmlns="http://www.w3.org/2000/svg">
  <defs>
    <filter x="240px" y="527px" width="44px" height="56px" filterUnits="userSpaceOnUse" id="filter14">
      <feOffset dx="1" dy="1" in="SourceAlpha" result="shadowOffsetInner" />
      <feGaussianBlur stdDeviation="2.5" in="shadowOffsetInner" result="shadowGaussian" />
      <feComposite in2="shadowGaussian" operator="atop" in="SourceAlpha" result="shadowComposite" />
      <feColorMatrix type="matrix" values="0 0 0 0 0  0 0 0 0 0  0 0 0 0 0  0 0 0 0.698039215686274 0  " in="shadowComposite" />
    </filter>
    <g id="widget15">
      <path d="M 245.229508196721 559.5  C 245.229508196721 559.5  245.229508196721 531.671597633136  245.229508196721 531.671597633136  C 245.229508196721 531.671597633136  277.5 531.671597633136  277.5 531.671597633136  C 277.5 531.671597633136  277.5 559.5  277.5 559.5  C 277.5 559.5  260.930883758984 559.5  260.930883758984 559.5  C 260.930883758984 559.5  263.48950114303 575.337194519316  263.48950114303 575.337194519316  C 263.48950114303 575.337194519316  244.913720054156 559.5  244.913720054156 559.5  C 244.913720054156 559.5  245.229508196721 559.5  245.229508196721 559.5  Z " fill-rule="nonzero" fill="#009dd9" stroke="none" />
      <path d="M 244.729508196721 560  C 244.729508196721 560  244.729508196721 531.171597633136  244.729508196721 531.171597633136  C 244.729508196721 531.171597633136  278 531.171597633136  278 531.171597633136  C 278 531.171597633136  278 560  278 560  C 278 560  261.518145677674 560  261.518145677674 560  C 261.518145677674 560  264.200000000001 576.599999999999  264.200000000001 576.599999999999  C 264.200000000001 576.599999999999  244.729508196721 560  244.729508196721 560  Z M 245.729508196721 559  C 245.729508196721 559  245.09793191159 559  245.09793191159 559  C 245.09793191159 559  262.77900228606 574.074389038634  262.77900228606 574.074389038634  C 262.77900228606 574.074389038634  260.343621840295 559  260.343621840295 559  C 260.343621840295 559  277 559  277 559  C 277 559  277 532.171597633136  277 532.171597633136  C 277 532.171597633136  245.729508196721 532.171597633136  245.729508196721 532.171597633136  C 245.729508196721 532.171597633136  245.729508196721 559  245.729508196721 559  Z " fill-rule="nonzero" fill="#ffffff" stroke="none" />
    </g>
  </defs>
  <g transform="matrix(1 0 0 1 -240 -527 )">
    <use xlink:href="#widget15" filter="url(#filter14)" />
    <use xlink:href="#widget15" />
  </g>
</svg>