<?xml version="1.0" encoding="utf-8"?>
<svg version="1.1" xmlns:xlink="http://www.w3.org/1999/xlink" width="44px" height="53px" xmlns="http://www.w3.org/2000/svg">
  <defs>
    <filter x="457px" y="475px" width="44px" height="53px" filterUnits="userSpaceOnUse" id="filter16">
      <feOffset dx="1" dy="1" in="SourceAlpha" result="shadowOffsetInner" />
      <feGaussianBlur stdDeviation="2.5" in="shadowOffsetInner" result="shadowGaussian" />
      <feComposite in2="shadowGaussian" operator="atop" in="SourceAlpha" result="shadowComposite" />
      <feColorMatrix type="matrix" values="0 0 0 0 0  0 0 0 0 0  0 0 0 0 0  0 0 0 0.698039215686274 0  " in="shadowComposite" />
    </filter>
    <g id="widget17">
      <path d="M 462.229508196721 507.5  C 462.229508196721 507.5  462.229508196721 479.671597633136  462.229508196721 479.671597633136  C 462.229508196721 479.671597633136  494.5 479.671597633136  494.5 479.671597633136  C 494.5 479.671597633136  494.5 507.5  494.5 507.5  C 494.5 507.5  478.24811225634 507.5  478.24811225634 507.5  C 478.24811225634 507.5  474.556527127137 520.243496111563  474.556527127137 520.243496111563  C 474.556527127137 520.243496111563  461.93806034901 507.5  461.93806034901 507.5  C 461.93806034901 507.5  462.229508196721 507.5  462.229508196721 507.5  Z " fill-rule="nonzero" fill="#009dd9" stroke="none" />
      <path d="M 461.729508196721 508  C 461.729508196721 508  461.729508196721 479.171597633136  461.729508196721 479.171597633136  C 461.729508196721 479.171597633136  495 479.171597633136  495 479.171597633136  C 495 479.171597633136  495 508  495 508  C 495 508  478.623826937198 508  478.623826937198 508  C 478.623826937198 508  474.799999999999 521.200000000001  474.799999999999 521.200000000001  C 474.799999999999 521.200000000001  461.729508196721 508  461.729508196721 508  Z M 462.729508196721 507  C 462.729508196721 507  462.146612501298 507  462.146612501298 507  C 462.146612501298 507  474.313054254276 519.286992223126  474.313054254276 519.286992223126  C 474.313054254276 519.286992223126  477.872397575483 507  477.872397575483 507  C 477.872397575483 507  494 507  494 507  C 494 507  494 480.171597633136  494 480.171597633136  C 494 480.171597633136  462.729508196721 480.171597633136  462.729508196721 480.171597633136  C 462.729508196721 480.171597633136  462.729508196721 507  462.729508196721 507  Z " fill-rule="nonzero" fill="#ffffff" stroke="none" />
    </g>
  </defs>
  <g transform="matrix(1 0 0 1 -457 -475 )">
    <use xlink:href="#widget17" filter="url(#filter16)" />
    <use xlink:href="#widget17" />
  </g>
</svg>