<?xml version="1.0" encoding="utf-8"?>
<svg version="1.1" xmlns:xlink="http://www.w3.org/1999/xlink" width="12px" height="12px" viewBox="47 821  12 12" xmlns="http://www.w3.org/2000/svg">
  <path d="M 53 821  C 56.36 821  59 823.64  59 827  C 59 830.36  56.36 833  53 833  C 49.64 833  47 830.36  47 827  C 47 823.64  49.64 821  53 821  Z " fill-rule="nonzero" fill="#ffffff" stroke="none" />
  <path d="M 53 821.5  C 56.08 821.5  58.5 823.92  58.5 827  C 58.5 830.08  56.08 832.5  53 832.5  C 49.92 832.5  47.5 830.08  47.5 827  C 47.5 823.92  49.92 821.5  53 821.5  Z " stroke-width="1" stroke="#797979" fill="none" />
  <path d="M 53 830  C 51.32 830  50 828.68  50 827  C 50 825.32  51.32 824  53 824  C 54.68 824  56 825.32  56 827  C 56 828.68  54.68 830  53 830  " fill-rule="nonzero" fill="#797979" stroke="none" />
</svg>