<?xml version="1.0" encoding="utf-8"?>
<svg version="1.1" xmlns:xlink="http://www.w3.org/1999/xlink" width="148px" height="95px" xmlns="http://www.w3.org/2000/svg">
  <g transform="matrix(1 0 0 1 -839 -870 )">
    <path d="M 839.782828537281 947  C 839.782828537281 947  839.782828537281 888  839.782828537281 888  C 839.782828537281 878.335016877961  847.617845415242 870.5  857.282828537281 870.5  C 857.282828537281 870.5  954.339622641509 870.5  954.339622641509 870.5  C 964.004605763548 870.5  971.839622641509 878.335016877961  971.839622641509 888  C 971.839622641509 888  971.839622641509 912.185095302018  971.839622641509 912.185095302018  C 971.839622641509 912.185095302018  986.046258053233 921.351326093457  986.046258053233 921.351326093457  C 986.046258053233 921.351326093457  971.839622641509 931.657672630773  971.839622641509 931.657672630773  C 971.839622641509 931.657672630773  971.839622641509 947  971.839622641509 947  C 971.839622641509 956.664983122039  964.004605763548 964.5  954.339622641509 964.5  C 954.339622641509 964.5  857.282828537281 964.5  857.282828537281 964.5  C 847.617845415242 964.5  839.782828537281 956.664983122039  839.782828537281 947  Z " fill-rule="nonzero" fill="#ffffff" stroke="none" />
    <path d="M 839.282828537281 947  C 839.282828537281 947  839.282828537281 888  839.282828537281 888  C 839.282828537281 878.058874503046  847.341703040327 870  857.282828537281 870  C 857.282828537281 870  954.339622641509 870  954.339622641509 870  C 964.280748138463 870  972.339622641509 878.058874503046  972.339622641509 888  C 972.339622641509 888  972.339622641509 911.912658615943  972.339622641509 911.912658615943  C 972.339622641509 911.912658615943  986.931050547404 921.327160493826  986.931050547404 921.327160493826  C 986.931050547404 921.327160493826  972.339622641509 931.912658615943  972.339622641509 931.912658615943  C 972.339622641509 931.912658615943  972.339622641509 947  972.339622641509 947  C 972.339622641509 956.941125496954  964.280748138463 965  954.339622641509 965  C 954.339622641509 965  857.282828537281 965  857.282828537281 965  C 847.341703040327 965  839.282828537281 956.941125496954  839.282828537281 947  Z M 840.282828537281 947  C 840.282828537281 956.388840747123  847.893987790158 964  857.282828537281 964  C 857.282828537281 964  954.339622641509 964  954.339622641509 964  C 963.728463388633 964  971.339622641509 956.388840747123  971.339622641509 947  C 971.339622641509 947  971.339622641509 931.402686645603  971.339622641509 931.402686645603  C 971.339622641509 931.402686645603  985.161465559063 921.375491693089  985.161465559063 921.375491693089  C 985.161465559063 921.375491693089  971.339622641509 912.457531988093  971.339622641509 912.457531988093  C 971.339622641509 912.457531988093  971.339622641509 888  971.339622641509 888  C 971.339622641509 878.611159252877  963.728463388633 871  954.339622641509 871  C 954.339622641509 871  857.282828537281 871  857.282828537281 871  C 847.893987790158 871  840.282828537281 878.611159252877  840.282828537281 888  C 840.282828537281 888  840.282828537281 947  840.282828537281 947  Z " fill-rule="nonzero" fill="#81d3f8" stroke="none" />
  </g>
</svg>