<?xml version="1.0" encoding="utf-8"?>
<svg version="1.1" xmlns:xlink="http://www.w3.org/1999/xlink" width="62px" height="38px" xmlns="http://www.w3.org/2000/svg">
  <g transform="matrix(1 0 0 1 -736 -142 )">
    <path d="M 754.850157492125 171  C 754.850157492125 171  754.850157492125 170.5  754.850157492125 170.5  C 754.850157492125 170.5  736 161.950000000001  736 161.950000000001  C 736 161.950000000001  754.850157492125 151.5  754.850157492125 151.5  C 754.850157492125 151.5  754.850157492125 151  754.850157492125 151  C 754.850157492125 146.029437251523  758.879594743648 142  763.850157492125 142  C 763.850157492125 142  789 142  789 142  C 793.970562748477 142  798 146.029437251523  798 151  C 798 151  798 171  798 171  C 798 175.970562748477  793.970562748477 180  789 180  C 789 180  763.850157492125 180  763.850157492125 180  C 758.879594743648 180  754.850157492125 175.970562748477  754.850157492125 171  Z " fill-rule="nonzero" fill="#02a7f0" stroke="none" />
  </g>
</svg>