<?xml version="1.0" encoding="utf-8"?>
<svg version="1.1" xmlns:xlink="http://www.w3.org/1999/xlink" width="235px" height="99px" xmlns="http://www.w3.org/2000/svg">
  <g transform="matrix(1 0 0 1 -722 -373 )">
    <path d="M 753.060221988901 446  C 753.060221988901 446  753.060221988901 433.036395441266  753.060221988901 433.036395441266  C 753.060221988901 433.036395441266  724.651542262527 449.639491748966  724.651542262527 449.639491748966  C 724.651542262527 449.639491748966  753.060221988901 408.009458180059  753.060221988901 408.009458180059  C 753.060221988901 408.009458180059  753.060221988901 399  753.060221988901 399  C 753.060221988901 384.916738879315  764.476960868215 373.5  778.560221988901 373.5  C 778.560221988901 373.5  931 373.5  931 373.5  C 945.083261120685 373.5  956.5 384.916738879315  956.5 399  C 956.5 399  956.5 446  956.5 446  C 956.5 460.083261120685  945.083261120685 471.5  931 471.5  C 931 471.5  778.560221988901 471.5  778.560221988901 471.5  C 764.476960868215 471.5  753.060221988901 460.083261120685  753.060221988901 446  Z " fill-rule="nonzero" fill="#ffffff" stroke="none" />
    <path d="M 752.560221988901 446  C 752.560221988901 446  752.560221988901 433.907744360901  752.560221988901 433.907744360901  C 752.560221988901 433.907744360901  722.987251919457 451.191295546557  722.987251919457 451.191295546557  C 722.987251919457 451.191295546557  752.560221988901 407.855112781953  752.560221988901 407.855112781953  C 752.560221988901 407.855112781953  752.560221988901 399  752.560221988901 399  C 752.560221988901 384.640596504399  764.2008184933 373  778.560221988901 373  C 778.560221988901 373  931 373  931 373  C 945.359403495601 373  957 384.640596504399  957 399  C 957 399  957 446  957 446  C 957 460.359403495601  945.359403495601 472  931 472  C 931 472  778.560221988901 472  778.560221988901 472  C 764.2008184933 472  752.560221988901 460.359403495601  752.560221988901 446  Z M 753.560221988901 446  C 753.560221988901 459.80711874577  764.753103243131 471  778.560221988901 471  C 778.560221988901 471  931 471  931 471  C 944.80711874577 471  956 459.80711874577  956 446  C 956 446  956 399  956 399  C 956 385.19288125423  944.80711874577 374  931 374  C 931 374  778.560221988901 374  778.560221988901 374  C 764.753103243131 374  753.560221988901 385.19288125423  753.560221988901 399  C 753.560221988901 399  753.560221988901 408.163803578166  753.560221988901 408.163803578166  C 753.560221988901 408.163803578166  726.315832605598 448.087687951375  726.315832605598 448.087687951375  C 726.315832605598 448.087687951375  753.560221988901 432.165046521632  753.560221988901 432.165046521632  C 753.560221988901 432.165046521632  753.560221988901 446  753.560221988901 446  Z " fill-rule="nonzero" fill="#797979" stroke="none" />
  </g>
</svg>