<?xml version="1.0" encoding="utf-8"?>
<svg version="1.1" xmlns:xlink="http://www.w3.org/1999/xlink" width="179px" height="91px" xmlns="http://www.w3.org/2000/svg">
  <defs>
    <filter x="419px" y="231px" width="179px" height="91px" filterUnits="userSpaceOnUse" id="filter13">
      <feOffset dx="1" dy="1" in="SourceAlpha" result="shadowOffsetInner" />
      <feGaussianBlur stdDeviation="2.5" in="shadowOffsetInner" result="shadowGaussian" />
      <feComposite in2="shadowGaussian" operator="atop" in="SourceAlpha" result="shadowComposite" />
      <feColorMatrix type="matrix" values="0 0 0 0 0  0 0 0 0 0  0 0 0 0 0  0 0 0 0.698039215686274 0  " in="shadowComposite" />
    </filter>
    <g id="widget14">
      <path d="M 452.441961924908 300  C 452.441961924908 300  452.441961924908 292.153203050603  452.441961924908 292.153203050603  C 452.441961924908 292.153203050603  424.57544027412 274.983409256102  424.57544027412 274.983409256102  C 424.57544027412 274.983409256102  452.441961924908 272.896373314533  452.441961924908 272.896373314533  C 452.441961924908 272.896373314533  452.441961924908 251.479289940828  452.441961924908 251.479289940828  C 452.441961924908 242.918876318451  459.38154830253 235.979289940828  467.941961924908 235.979289940828  C 467.941961924908 235.979289940828  576 235.979289940828  576 235.979289940828  C 584.560413622377 235.979289940828  591.5 242.918876318451  591.5 251.479289940828  C 591.5 251.479289940828  591.5 300  591.5 300  C 591.5 308.560413622377  584.560413622377 315.5  576 315.5  C 576 315.5  467.941961924908 315.5  467.941961924908 315.5  C 459.38154830253 315.5  452.441961924908 308.560413622377  452.441961924908 300  Z " fill-rule="nonzero" fill="#009dd9" stroke="none" />
      <path d="M 451.941961924908 300  C 451.941961924908 300  451.941961924908 292.43242000872  451.941961924908 292.43242000872  C 451.941961924908 292.43242000872  423 274.599999999999  423 274.599999999999  C 423 274.599999999999  451.941961924908 272.43242000872  451.941961924908 272.43242000872  C 451.941961924908 272.43242000872  451.941961924908 251.479289940828  451.941961924908 251.479289940828  C 451.941961924908 242.642733943536  459.105405927615 235.479289940828  467.941961924908 235.479289940828  C 467.941961924908 235.479289940828  576 235.479289940828  576 235.479289940828  C 584.836555997292 235.479289940828  592 242.642733943536  592 251.479289940828  C 592 251.479289940828  592 300  592 300  C 592 308.836555997293  584.836555997292 316  576 316  C 576 316  467.941961924908 316  467.941961924908 316  C 459.105405927615 316  451.941961924908 308.836555997293  451.941961924908 300  Z M 452.941961924908 300  C 452.941961924908 308.284271247462  459.657690677446 315  467.941961924908 315  C 467.941961924908 315  576 315  576 315  C 584.284271247462 315  591 308.284271247462  591 300  C 591 300  591 251.479289940828  591 251.479289940828  C 591 243.195018693367  584.284271247462 236.479289940828  576 236.479289940828  C 576 236.479289940828  467.941961924908 236.479289940828  467.941961924908 236.479289940828  C 459.657690677446 236.479289940828  452.941961924908 243.195018693367  452.941961924908 251.479289940828  C 452.941961924908 251.479289940828  452.941961924908 273.360326620347  452.941961924908 273.360326620347  C 452.941961924908 273.360326620347  426.15088054824 275.366818512205  426.15088054824 275.366818512205  C 426.15088054824 275.366818512205  452.941961924908 291.873986092486  452.941961924908 291.873986092486  C 452.941961924908 291.873986092486  452.941961924908 300  452.941961924908 300  Z " fill-rule="nonzero" fill="#ffffff" stroke="none" />
    </g>
  </defs>
  <g transform="matrix(1 0 0 1 -419 -231 )">
    <use xlink:href="#widget14" filter="url(#filter13)" />
    <use xlink:href="#widget14" />
  </g>
</svg>