<?xml version="1.0" encoding="utf-8"?>
<svg version="1.1" xmlns:xlink="http://www.w3.org/1999/xlink" width="12px" height="12px" viewBox="894 631.5  12 12" xmlns="http://www.w3.org/2000/svg">
  <path d="M 900 631.5  C 903.36 631.5  906 634.14  906 637.5  C 906 640.86  903.36 643.5  900 643.5  C 896.64 643.5  894 640.86  894 637.5  C 894 634.14  896.64 631.5  900 631.5  Z " fill-rule="nonzero" fill="#ffffff" stroke="none" />
  <path d="M 900 632  C 903.08 632  905.5 634.42  905.5 637.5  C 905.5 640.58  903.08 643  900 643  C 896.92 643  894.5 640.58  894.5 637.5  C 894.5 634.42  896.92 632  900 632  Z " stroke-width="1" stroke="#797979" fill="none" />
  <path d="M 900 640.5  C 898.32 640.5  897 639.18  897 637.5  C 897 635.82  898.32 634.5  900 634.5  C 901.68 634.5  903 635.82  903 637.5  C 903 639.18  901.68 640.5  900 640.5  " fill-rule="nonzero" fill="#797979" stroke="none" />
</svg>