<?xml version="1.0" encoding="utf-8"?>
<svg version="1.1" xmlns:xlink="http://www.w3.org/1999/xlink" width="12px" height="12px" viewBox="1073 340.5  12 12" xmlns="http://www.w3.org/2000/svg">
  <path d="M 1079 340.5  C 1082.36 340.5  1085 343.14  1085 346.5  C 1085 349.86  1082.36 352.5  1079 352.5  C 1075.64 352.5  1073 349.86  1073 346.5  C 1073 343.14  1075.64 340.5  1079 340.5  Z " fill-rule="nonzero" fill="#ffffff" stroke="none" />
  <path d="M 1079 341  C 1082.08 341  1084.5 343.42  1084.5 346.5  C 1084.5 349.58  1082.08 352  1079 352  C 1075.92 352  1073.5 349.58  1073.5 346.5  C 1073.5 343.42  1075.92 341  1079 341  Z " stroke-width="1" stroke="#797979" fill="none" />
  <path d="M 1079 349.5  C 1077.32 349.5  1076 348.18  1076 346.5  C 1076 344.82  1077.32 343.5  1079 343.5  C 1080.68 343.5  1082 344.82  1082 346.5  C 1082 348.18  1080.68 349.5  1079 349.5  " fill-rule="nonzero" fill="#797979" stroke="none" />
</svg>