<?xml version="1.0" encoding="utf-8"?>
<svg version="1.1" xmlns:xlink="http://www.w3.org/1999/xlink" width="12px" height="12px" viewBox="289 672.5  12 12" xmlns="http://www.w3.org/2000/svg">
  <path d="M 295 672.5  C 298.36 672.5  301 675.14  301 678.5  C 301 681.86  298.36 684.5  295 684.5  C 291.64 684.5  289 681.86  289 678.5  C 289 675.14  291.64 672.5  295 672.5  Z " fill-rule="nonzero" fill="#ffffff" stroke="none" />
  <path d="M 295 673  C 298.08 673  300.5 675.42  300.5 678.5  C 300.5 681.58  298.08 684  295 684  C 291.92 684  289.5 681.58  289.5 678.5  C 289.5 675.42  291.92 673  295 673  Z " stroke-width="1" stroke="#797979" fill="none" />
  <path d="M 295 681.5  C 293.32 681.5  292 680.18  292 678.5  C 292 676.82  293.32 675.5  295 675.5  C 296.68 675.5  298 676.82  298 678.5  C 298 680.18  296.68 681.5  295 681.5  " fill-rule="nonzero" fill="#797979" stroke="none" />
</svg>