<?xml version="1.0" encoding="utf-8"?>
<svg version="1.1" xmlns:xlink="http://www.w3.org/1999/xlink" width="185px" height="91px" xmlns="http://www.w3.org/2000/svg">
  <defs>
    <filter x="206px" y="335px" width="185px" height="91px" filterUnits="userSpaceOnUse" id="filter32">
      <feOffset dx="1" dy="1" in="SourceAlpha" result="shadowOffsetInner" />
      <feGaussianBlur stdDeviation="2.5" in="shadowOffsetInner" result="shadowGaussian" />
      <feComposite in2="shadowGaussian" operator="atop" in="SourceAlpha" result="shadowComposite" />
      <feColorMatrix type="matrix" values="0 0 0 0 0  0 0 0 0 0  0 0 0 0 0  0 0 0 0.698039215686274 0  " in="shadowComposite" />
    </filter>
    <g id="widget33">
      <path d="M 245.441961924908 404  C 245.441961924908 404  245.441961924908 395.902775722241  245.441961924908 395.902775722241  C 245.441961924908 395.902775722241  212.669930811497 397.791407454484  212.669930811497 397.791407454484  C 212.669930811497 397.791407454484  245.441961924908 376.705266694794  245.441961924908 376.705266694794  C 245.441961924908 376.705266694794  245.441961924908 355.479289940828  245.441961924908 355.479289940828  C 245.441961924908 346.918876318451  252.38154830253 339.979289940828  260.941961924908 339.979289940828  C 260.941961924908 339.979289940828  369 339.979289940828  369 339.979289940828  C 377.560413622377 339.979289940828  384.5 346.918876318451  384.5 355.479289940828  C 384.5 355.479289940828  384.5 404  384.5 404  C 384.5 412.560413622377  377.560413622377 419.5  369 419.5  C 369 419.5  260.941961924908 419.5  260.941961924908 419.5  C 252.38154830253 419.5  245.441961924908 412.560413622377  245.441961924908 404  Z " fill-rule="nonzero" fill="#009dd9" stroke="none" />
      <path d="M 244.941961924908 404  C 244.941961924908 404  244.941961924908 396.43242000872  244.941961924908 396.43242000872  C 244.941961924908 396.43242000872  210.799999999999 398.400000000001  210.799999999999 398.400000000001  C 210.799999999999 398.400000000001  244.941961924908 376.43242000872  244.941961924908 376.43242000872  C 244.941961924908 376.43242000872  244.941961924908 355.479289940828  244.941961924908 355.479289940828  C 244.941961924908 346.642733943536  252.105405927615 339.479289940828  260.941961924908 339.479289940828  C 260.941961924908 339.479289940828  369 339.479289940828  369 339.479289940828  C 377.836555997292 339.479289940828  385 346.642733943536  385 355.479289940828  C 385 355.479289940828  385 404  385 404  C 385 412.836555997293  377.836555997292 420  369 420  C 369 420  260.941961924908 420  260.941961924908 420  C 252.105405927615 420  244.941961924908 412.836555997293  244.941961924908 404  Z M 245.941961924908 404  C 245.941961924908 412.284271247462  252.657690677446 419  260.941961924908 419  C 260.941961924908 419  369 419  369 419  C 377.284271247462 419  384 412.284271247462  384 404  C 384 404  384 355.479289940828  384 355.479289940828  C 384 347.195018693366  377.284271247462 340.479289940828  369 340.479289940828  C 369 340.479289940828  260.941961924908 340.479289940828  260.941961924908 340.479289940828  C 252.657690677446 340.479289940828  245.941961924908 347.195018693366  245.941961924908 355.479289940828  C 245.941961924908 355.479289940828  245.941961924908 376.978113380868  245.941961924908 376.978113380868  C 245.941961924908 376.978113380868  214.539861622996 397.182814908967  214.539861622996 397.182814908967  C 214.539861622996 397.182814908967  245.941961924908 395.373131435763  245.941961924908 395.373131435763  C 245.941961924908 395.373131435763  245.941961924908 404  245.941961924908 404  Z " fill-rule="nonzero" fill="#ffffff" stroke="none" />
    </g>
  </defs>
  <g transform="matrix(1 0 0 1 -206 -335 )">
    <use xlink:href="#widget33" filter="url(#filter32)" />
    <use xlink:href="#widget33" />
  </g>
</svg>