<?xml version="1.0" encoding="utf-8"?>
<svg version="1.1" xmlns:xlink="http://www.w3.org/1999/xlink" width="170px" height="60px" xmlns="http://www.w3.org/2000/svg">
  <defs>
    <filter x="302px" y="364px" width="170px" height="60px" filterUnits="userSpaceOnUse" id="filter148">
      <feOffset dx="1" dy="1" in="SourceAlpha" result="shadowOffsetInner" />
      <feGaussianBlur stdDeviation="2.5" in="shadowOffsetInner" result="shadowGaussian" />
      <feComposite in2="shadowGaussian" operator="atop" in="SourceAlpha" result="shadowComposite" />
      <feColorMatrix type="matrix" values="0 0 0 0 0  0 0 0 0 0  0 0 0 0 0  0 0 0 0.698039215686274 0  " in="shadowComposite" />
    </filter>
    <g id="widget149">
      <path d="M 326.441961924908 411  C 326.441961924908 411  326.441961924908 406.881830580647  326.441961924908 406.881830580647  C 326.441961924908 406.881830580647  307.71632836045 402.545290206087  307.71632836045 402.545290206087  C 307.71632836045 402.545290206087  326.441961924908 387.519127213578  326.441961924908 387.519127213578  C 326.441961924908 387.519127213578  326.441961924908 375.295857988166  326.441961924908 375.295857988166  C 326.441961924908 371.706007114266  329.352111051007 368.795857988166  332.941961924908 368.795857988166  C 332.941961924908 368.795857988166  459 368.795857988166  459 368.795857988166  C 462.5898508739 368.795857988166  465.5 371.706007114266  465.5 375.295857988166  C 465.5 375.295857988166  465.5 411  465.5 411  C 465.5 414.5898508739  462.5898508739 417.5  459 417.5  C 459 417.5  332.941961924908 417.5  332.941961924908 417.5  C 329.352111051007 417.5  326.441961924908 414.5898508739  326.441961924908 411  Z " fill-rule="nonzero" fill="#009dd9" stroke="none" />
      <path d="M 325.941961924908 411  C 325.941961924908 411  325.941961924908 407.279271610321  325.941961924908 407.279271610321  C 325.941961924908 407.279271610321  306.599999999999 402.799999999999  306.599999999999 402.799999999999  C 306.599999999999 402.799999999999  325.941961924908 387.279271610321  325.941961924908 387.279271610321  C 325.941961924908 387.279271610321  325.941961924908 375.295857988166  325.941961924908 375.295857988166  C 325.941961924908 371.42986473935  329.075968676092 368.295857988166  332.941961924908 368.295857988166  C 332.941961924908 368.295857988166  459 368.295857988166  459 368.295857988166  C 462.865993248815 368.295857988166  466 371.42986473935  466 375.295857988166  C 466 375.295857988166  466 411  466 411  C 466 414.865993248816  462.865993248815 418  459 418  C 459 418  332.941961924908 418  332.941961924908 418  C 329.075968676092 418  325.941961924908 414.865993248816  325.941961924908 411  Z M 326.941961924908 411  C 326.941961924908 414.313708498985  329.628253425923 417  332.941961924908 417  C 332.941961924908 417  459 417  459 417  C 462.313708498984 417  465 414.313708498985  465 411  C 465 411  465 375.295857988166  465 375.295857988166  C 465 371.982149489181  462.313708498984 369.295857988166  459 369.295857988166  C 459 369.295857988166  332.941961924908 369.295857988166  332.941961924908 369.295857988166  C 329.628253425923 369.295857988166  326.941961924908 371.982149489181  326.941961924908 375.295857988166  C 326.941961924908 375.295857988166  326.941961924908 387.758982816835  326.941961924908 387.758982816835  C 326.941961924908 387.758982816835  308.832656720901 402.290580412175  308.832656720901 402.290580412175  C 308.832656720901 402.290580412175  326.941961924908 406.484389550972  326.941961924908 406.484389550972  C 326.941961924908 406.484389550972  326.941961924908 411  326.941961924908 411  Z " fill-rule="nonzero" fill="#ffffff" stroke="none" />
    </g>
  </defs>
  <g transform="matrix(1 0 0 1 -302 -364 )">
    <use xlink:href="#widget149" filter="url(#filter148)" />
    <use xlink:href="#widget149" />
  </g>
</svg>