<?xml version="1.0" encoding="utf-8"?>
<svg version="1.1" xmlns:xlink="http://www.w3.org/1999/xlink" width="12px" height="12px" viewBox="230 474.5  12 12" xmlns="http://www.w3.org/2000/svg">
  <path d="M 236 474.5  C 239.36 474.5  242 477.14  242 480.5  C 242 483.86  239.36 486.5  236 486.5  C 232.64 486.5  230 483.86  230 480.5  C 230 477.14  232.64 474.5  236 474.5  Z " fill-rule="nonzero" fill="#ffffff" stroke="none" />
  <path d="M 236 475  C 239.08 475  241.5 477.42  241.5 480.5  C 241.5 483.58  239.08 486  236 486  C 232.92 486  230.5 483.58  230.5 480.5  C 230.5 477.42  232.92 475  236 475  Z " stroke-width="1" stroke="#797979" fill="none" />
  <path d="M 236 483.5  C 234.32 483.5  233 482.18  233 480.5  C 233 478.82  234.32 477.5  236 477.5  C 237.68 477.5  239 478.82  239 480.5  C 239 482.18  237.68 483.5  236 483.5  " fill-rule="nonzero" fill="#797979" stroke="none" />
</svg>