<?xml version="1.0" encoding="utf-8"?>
<svg version="1.1" xmlns:xlink="http://www.w3.org/1999/xlink" width="178px" height="60px" xmlns="http://www.w3.org/2000/svg">
  <defs>
    <filter x="299px" y="421px" width="178px" height="60px" filterUnits="userSpaceOnUse" id="filter150">
      <feOffset dx="1" dy="1" in="SourceAlpha" result="shadowOffsetInner" />
      <feGaussianBlur stdDeviation="2.5" in="shadowOffsetInner" result="shadowGaussian" />
      <feComposite in2="shadowGaussian" operator="atop" in="SourceAlpha" result="shadowComposite" />
      <feColorMatrix type="matrix" values="0 0 0 0 0  0 0 0 0 0  0 0 0 0 0  0 0 0 0.698039215686274 0  " in="shadowComposite" />
    </filter>
    <g id="widget151">
      <path d="M 331.441961924908 468  C 331.441961924908 468  331.441961924908 463.96934552598  331.441961924908 463.96934552598  C 331.441961924908 463.96934552598  304.495091053348 450.584353416991  304.495091053348 450.584353416991  C 304.495091053348 450.584353416991  331.441961924908 444.681601205107  331.441961924908 444.681601205107  C 331.441961924908 444.681601205107  331.441961924908 432.295857988166  331.441961924908 432.295857988166  C 331.441961924908 428.706007114266  334.352111051007 425.795857988166  337.941961924908 425.795857988166  C 337.941961924908 425.795857988166  464 425.795857988166  464 425.795857988166  C 467.5898508739 425.795857988166  470.5 428.706007114266  470.5 432.295857988166  C 470.5 432.295857988166  470.5 468  470.5 468  C 470.5 471.5898508739  467.5898508739 474.5  464 474.5  C 464 474.5  337.941961924908 474.5  337.941961924908 474.5  C 334.352111051007 474.5  331.441961924908 471.5898508739  331.441961924908 468  Z " fill-rule="nonzero" fill="#009dd9" stroke="none" />
      <path d="M 330.941961924908 468  C 330.941961924908 468  330.941961924907 464.279271610321  330.941961924907 464.279271610321  C 330.941961924907 464.279271610321  303 450.400000000001  303 450.400000000001  C 303 450.400000000001  330.941961924907 444.279271610321  330.941961924907 444.279271610321  C 330.941961924907 444.279271610321  330.941961924908 432.295857988166  330.941961924908 432.295857988166  C 330.941961924908 428.42986473935  334.075968676092 425.295857988166  337.941961924908 425.295857988166  C 337.941961924908 425.295857988166  464 425.295857988166  464 425.295857988166  C 467.865993248815 425.295857988166  471 428.42986473935  471 432.295857988166  C 471 432.295857988166  471 468  471 468  C 471 471.865993248816  467.865993248815 475  464 475  C 464 475  337.941961924908 475  337.941961924908 475  C 334.075968676092 475  330.941961924908 471.865993248816  330.941961924908 468  Z M 331.941961924908 468  C 331.941961924908 471.313708498985  334.628253425923 474  337.941961924908 474  C 337.941961924908 474  464 474  464 474  C 467.313708498984 474  470 471.313708498985  470 468  C 470 468  470 432.295857988166  470 432.295857988166  C 470 428.982149489181  467.313708498984 426.295857988166  464 426.295857988166  C 464 426.295857988166  337.941961924908 426.295857988166  337.941961924908 426.295857988166  C 334.628253425923 426.295857988166  331.941961924908 428.982149489181  331.941961924908 432.295857988166  C 331.941961924908 432.295857988166  331.941961924908 445.083930799894  331.941961924908 445.083930799894  C 331.941961924908 445.083930799894  305.990182106696 450.76870683398  305.990182106696 450.76870683398  C 305.990182106696 450.76870683398  331.941961924908 463.65941944164  331.941961924908 463.65941944164  C 331.941961924908 463.65941944164  331.941961924908 468  331.941961924908 468  Z " fill-rule="nonzero" fill="#ffffff" stroke="none" />
    </g>
  </defs>
  <g transform="matrix(1 0 0 1 -299 -421 )">
    <use xlink:href="#widget151" filter="url(#filter150)" />
    <use xlink:href="#widget151" />
  </g>
</svg>