<?xml version="1.0" encoding="utf-8"?>
<svg version="1.1" xmlns:xlink="http://www.w3.org/1999/xlink" width="173px" height="76px" xmlns="http://www.w3.org/2000/svg">
  <defs>
    <filter x="508px" y="545px" width="173px" height="76px" filterUnits="userSpaceOnUse" id="filter41">
      <feOffset dx="1" dy="1" in="SourceAlpha" result="shadowOffsetInner" />
      <feGaussianBlur stdDeviation="2.5" in="shadowOffsetInner" result="shadowGaussian" />
      <feComposite in2="shadowGaussian" operator="atop" in="SourceAlpha" result="shadowComposite" />
      <feColorMatrix type="matrix" values="0 0 0 0 0  0 0 0 0 0  0 0 0 0 0  0 0 0 0.698039215686274 0  " in="shadowComposite" />
    </filter>
    <g id="widget42">
      <path d="M 540.414436649467 599  C 540.414436649467 599  540.414436649467 597.362327133167  540.414436649467 597.362327133167  C 540.414436649467 597.362327133167  513.51285858019 581.574765291009  513.51285858019 581.574765291009  C 513.51285858019 581.574765291009  540.414436649467 578.088015129603  540.414436649467 578.088015129603  C 540.414436649467 578.088015129603  540.414436649467 565.390532544379  540.414436649467 565.390532544379  C 540.414436649467 556.830118922001  547.35402302709 549.890532544379  555.914436649467 549.890532544379  C 555.914436649467 549.890532544379  659 549.890532544379  659 549.890532544379  C 667.560413622377 549.890532544379  674.5 556.830118922001  674.5 565.390532544379  C 674.5 565.390532544379  674.5 599  674.5 599  C 674.5 607.560413622377  667.560413622377 614.5  659 614.5  C 659 614.5  555.914436649467 614.5  555.914436649467 614.5  C 547.35402302709 614.5  540.414436649467 607.560413622377  540.414436649467 599  Z " fill-rule="nonzero" fill="#009dd9" stroke="none" />
      <path d="M 539.914436649467 599  C 539.914436649467 599  539.914436649467 597.648638525623  539.914436649467 597.648638525623  C 539.914436649467 597.648638525623  512 581.266666666666  512 581.266666666666  C 512 581.266666666666  539.914436649467 577.648638525623  539.914436649467 577.648638525623  C 539.914436649467 577.648638525623  539.914436649467 565.390532544379  539.914436649467 565.390532544379  C 539.914436649467 556.553976547086  547.077880652174 549.390532544379  555.914436649467 549.390532544379  C 555.914436649467 549.390532544379  659 549.390532544379  659 549.390532544379  C 667.836555997292 549.390532544379  675 556.553976547086  675 565.390532544379  C 675 565.390532544379  675 599  675 599  C 675 607.836555997293  667.836555997292 615  659 615  C 659 615  555.914436649467 615  555.914436649467 615  C 547.077880652174 615  539.914436649467 607.836555997293  539.914436649467 599  Z M 540.914436649467 599  C 540.914436649467 607.284271247462  547.630165402005 614  555.914436649467 614  C 555.914436649467 614  659 614  659 614  C 667.284271247462 614  674 607.284271247462  674 599  C 674 599  674 565.390532544379  674 565.390532544379  C 674 557.106261296917  667.284271247462 550.390532544379  659 550.390532544379  C 659 550.390532544379  555.914436649467 550.390532544379  555.914436649467 550.390532544379  C 547.630165402005 550.390532544379  540.914436649467 557.106261296917  540.914436649467 565.390532544379  C 540.914436649467 565.390532544379  540.914436649467 578.527391733583  540.914436649467 578.527391733583  C 540.914436649467 578.527391733583  515.02571716038 581.882863915353  515.02571716038 581.882863915353  C 515.02571716038 581.882863915353  540.914436649467 597.076015740711  540.914436649467 597.076015740711  C 540.914436649467 597.076015740711  540.914436649467 599  540.914436649467 599  Z " fill-rule="nonzero" fill="#ffffff" stroke="none" />
    </g>
  </defs>
  <g transform="matrix(1 0 0 1 -508 -545 )">
    <use xlink:href="#widget42" filter="url(#filter41)" />
    <use xlink:href="#widget42" />
  </g>
</svg>