<?xml version="1.0" encoding="utf-8"?>
<svg version="1.1" xmlns:xlink="http://www.w3.org/1999/xlink" width="173px" height="76px" xmlns="http://www.w3.org/2000/svg">
  <defs>
    <filter x="502px" y="559px" width="173px" height="76px" filterUnits="userSpaceOnUse" id="filter221">
      <feOffset dx="1" dy="1" in="SourceAlpha" result="shadowOffsetInner" />
      <feGaussianBlur stdDeviation="2.5" in="shadowOffsetInner" result="shadowGaussian" />
      <feComposite in2="shadowGaussian" operator="atop" in="SourceAlpha" result="shadowComposite" />
      <feColorMatrix type="matrix" values="0 0 0 0 0  0 0 0 0 0  0 0 0 0 0  0 0 0 0.698039215686274 0  " in="shadowComposite" />
    </filter>
    <g id="widget222">
      <path d="M 534.414436649467 613  C 534.414436649467 613  534.414436649467 611.362327133167  534.414436649467 611.362327133167  C 534.414436649467 611.362327133167  507.51285858019 595.574765291009  507.51285858019 595.574765291009  C 507.51285858019 595.574765291009  534.414436649467 592.088015129603  534.414436649467 592.088015129603  C 534.414436649467 592.088015129603  534.414436649467 579.390532544379  534.414436649467 579.390532544379  C 534.414436649467 570.830118922001  541.35402302709 563.890532544379  549.914436649467 563.890532544379  C 549.914436649467 563.890532544379  653 563.890532544379  653 563.890532544379  C 661.560413622377 563.890532544379  668.5 570.830118922001  668.5 579.390532544379  C 668.5 579.390532544379  668.5 613  668.5 613  C 668.5 621.560413622377  661.560413622377 628.5  653 628.5  C 653 628.5  549.914436649467 628.5  549.914436649467 628.5  C 541.35402302709 628.5  534.414436649467 621.560413622377  534.414436649467 613  Z " fill-rule="nonzero" fill="#009dd9" stroke="none" />
      <path d="M 533.914436649467 613  C 533.914436649467 613  533.914436649467 611.648638525623  533.914436649467 611.648638525623  C 533.914436649467 611.648638525623  506 595.266666666666  506 595.266666666666  C 506 595.266666666666  533.914436649467 591.648638525623  533.914436649467 591.648638525623  C 533.914436649467 591.648638525623  533.914436649467 579.390532544379  533.914436649467 579.390532544379  C 533.914436649467 570.553976547086  541.077880652174 563.390532544379  549.914436649467 563.390532544379  C 549.914436649467 563.390532544379  653 563.390532544379  653 563.390532544379  C 661.836555997292 563.390532544379  669 570.553976547086  669 579.390532544379  C 669 579.390532544379  669 613  669 613  C 669 621.836555997293  661.836555997292 629  653 629  C 653 629  549.914436649467 629  549.914436649467 629  C 541.077880652174 629  533.914436649467 621.836555997293  533.914436649467 613  Z M 534.914436649467 613  C 534.914436649467 621.284271247462  541.630165402005 628  549.914436649467 628  C 549.914436649467 628  653 628  653 628  C 661.284271247462 628  668 621.284271247462  668 613  C 668 613  668 579.390532544379  668 579.390532544379  C 668 571.106261296917  661.284271247462 564.390532544379  653 564.390532544379  C 653 564.390532544379  549.914436649467 564.390532544379  549.914436649467 564.390532544379  C 541.630165402005 564.390532544379  534.914436649467 571.106261296917  534.914436649467 579.390532544379  C 534.914436649467 579.390532544379  534.914436649467 592.527391733583  534.914436649467 592.527391733583  C 534.914436649467 592.527391733583  509.02571716038 595.882863915353  509.02571716038 595.882863915353  C 509.02571716038 595.882863915353  534.914436649467 611.076015740711  534.914436649467 611.076015740711  C 534.914436649467 611.076015740711  534.914436649467 613  534.914436649467 613  Z " fill-rule="nonzero" fill="#ffffff" stroke="none" />
    </g>
  </defs>
  <g transform="matrix(1 0 0 1 -502 -559 )">
    <use xlink:href="#widget222" filter="url(#filter221)" />
    <use xlink:href="#widget222" />
  </g>
</svg>