<?xml version="1.0" encoding="utf-8"?>
<svg version="1.1" xmlns:xlink="http://www.w3.org/1999/xlink" width="65px" height="38px" xmlns="http://www.w3.org/2000/svg">
  <g transform="matrix(1 0 0 1 -436 -217 )">
    <path d="M 457.850157492125 229.019890404731  C 457.850157492125 229.019890404731  457.850157492125 226  457.850157492125 226  C 457.850157492125 221.029437251523  461.879594743648 217  466.850157492125 217  C 466.850157492125 217  492 217  492 217  C 496.970562748477 217  501 221.029437251523  501 226  C 501 226  501 246  501 246  C 501 250.970562748477  496.970562748477 255  492 255  C 492 255  466.850157492125 255  466.850157492125 255  C 462.719080465357 255  459.118469050579 252.187632119312  458.1180505747 248.179520310216  C 458.1180505747 248.179520310216  436 235  436 235  C 436 235  457.850157492125 229.019890404731  457.850157492125 229.019890404731  Z " fill-rule="nonzero" fill="#02a7f0" stroke="none" />
  </g>
</svg>