<?xml version="1.0" encoding="utf-8"?>
<svg version="1.1" xmlns:xlink="http://www.w3.org/1999/xlink" width="173px" height="76px" xmlns="http://www.w3.org/2000/svg">
  <defs>
    <filter x="515px" y="670px" width="173px" height="76px" filterUnits="userSpaceOnUse" id="filter289">
      <feOffset dx="1" dy="1" in="SourceAlpha" result="shadowOffsetInner" />
      <feGaussianBlur stdDeviation="2.5" in="shadowOffsetInner" result="shadowGaussian" />
      <feComposite in2="shadowGaussian" operator="atop" in="SourceAlpha" result="shadowComposite" />
      <feColorMatrix type="matrix" values="0 0 0 0 0  0 0 0 0 0  0 0 0 0 0  0 0 0 0.698039215686274 0  " in="shadowComposite" />
    </filter>
    <g id="widget290">
      <path d="M 547.414436649467 724  C 547.414436649467 724  547.414436649467 722.362327133167  547.414436649467 722.362327133167  C 547.414436649467 722.362327133167  520.51285858019 706.574765291009  520.51285858019 706.574765291009  C 520.51285858019 706.574765291009  547.414436649467 703.088015129603  547.414436649467 703.088015129603  C 547.414436649467 703.088015129603  547.414436649467 690.390532544379  547.414436649467 690.390532544379  C 547.414436649467 681.830118922001  554.35402302709 674.890532544379  562.914436649467 674.890532544379  C 562.914436649467 674.890532544379  666 674.890532544379  666 674.890532544379  C 674.560413622377 674.890532544379  681.5 681.830118922001  681.5 690.390532544379  C 681.5 690.390532544379  681.5 724  681.5 724  C 681.5 732.560413622377  674.560413622377 739.5  666 739.5  C 666 739.5  562.914436649467 739.5  562.914436649467 739.5  C 554.35402302709 739.5  547.414436649467 732.560413622377  547.414436649467 724  Z " fill-rule="nonzero" fill="#009dd9" stroke="none" />
      <path d="M 546.914436649467 724  C 546.914436649467 724  546.914436649467 722.648638525623  546.914436649467 722.648638525623  C 546.914436649467 722.648638525623  519 706.266666666666  519 706.266666666666  C 519 706.266666666666  546.914436649467 702.648638525623  546.914436649467 702.648638525623  C 546.914436649467 702.648638525623  546.914436649467 690.390532544379  546.914436649467 690.390532544379  C 546.914436649467 681.553976547086  554.077880652174 674.390532544379  562.914436649467 674.390532544379  C 562.914436649467 674.390532544379  666 674.390532544379  666 674.390532544379  C 674.836555997292 674.390532544379  682 681.553976547086  682 690.390532544379  C 682 690.390532544379  682 724  682 724  C 682 732.836555997293  674.836555997292 740  666 740  C 666 740  562.914436649467 740  562.914436649467 740  C 554.077880652174 740  546.914436649467 732.836555997293  546.914436649467 724  Z M 547.914436649467 724  C 547.914436649467 732.284271247462  554.630165402005 739  562.914436649467 739  C 562.914436649467 739  666 739  666 739  C 674.284271247462 739  681 732.284271247462  681 724  C 681 724  681 690.390532544379  681 690.390532544379  C 681 682.106261296917  674.284271247462 675.390532544379  666 675.390532544379  C 666 675.390532544379  562.914436649467 675.390532544379  562.914436649467 675.390532544379  C 554.630165402005 675.390532544379  547.914436649467 682.106261296917  547.914436649467 690.390532544379  C 547.914436649467 690.390532544379  547.914436649467 703.527391733583  547.914436649467 703.527391733583  C 547.914436649467 703.527391733583  522.02571716038 706.882863915353  522.02571716038 706.882863915353  C 522.02571716038 706.882863915353  547.914436649467 722.076015740711  547.914436649467 722.076015740711  C 547.914436649467 722.076015740711  547.914436649467 724  547.914436649467 724  Z " fill-rule="nonzero" fill="#ffffff" stroke="none" />
    </g>
  </defs>
  <g transform="matrix(1 0 0 1 -515 -670 )">
    <use xlink:href="#widget290" filter="url(#filter289)" />
    <use xlink:href="#widget290" />
  </g>
</svg>