<?xml version="1.0" encoding="utf-8"?>
<svg version="1.1" xmlns:xlink="http://www.w3.org/1999/xlink" width="33px" height="33px" xmlns="http://www.w3.org/2000/svg">
  <g transform="matrix(1 0 0 1 -33 -15 )">
    <path d="M 49.5 15  C 58.74 15  66 22.26  66 31.5  C 66 40.74  58.74 48  49.5 48  C 40.26 48  33 40.74  33 31.5  C 33 22.26  40.26 15  49.5 15  Z " fill-rule="nonzero" fill="#ffffff" stroke="none" />
    <path d="M 49.5 15.5  C 58.46 15.5  65.5 22.54  65.5 31.5  C 65.5 40.46  58.46 47.5  49.5 47.5  C 40.54 47.5  33.5 40.46  33.5 31.5  C 33.5 22.54  40.54 15.5  49.5 15.5  Z " stroke-width="1" stroke="#797979" fill="none" />
  </g>
</svg>