<?xml version="1.0" encoding="utf-8"?>
<svg version="1.1" xmlns:xlink="http://www.w3.org/1999/xlink" width="14px" height="16px" xmlns="http://www.w3.org/2000/svg">
  <g transform="matrix(1 0 0 1 -42 -23 )">
    <path d="M 13.9651988636364 12.2239583333334  C 13.9883996212121 12.5746527777778  14 12.9340277777778  14 13.3020833333334  C 14 14.1354166666666  13.7580492424242 14.7934027777778  13.2741477272727 15.2760416666666  C 12.7902462121212 15.7586805555555  12.1472537878788 16  11.3451704545454 16  L 2.65482954545456 16  C 1.85274621212122 16  1.20975378787878 15.7586805555555  0.72585227272728 15.2760416666666  C 0.241950757575751 14.7934027777778  0 14.1354166666666  0 13.3020833333334  C 0 12.9340277777778  0.0116003787878753 12.5746527777778  0.0348011363636545 12.2239583333334  C 0.0580018939393767 11.8732638888889  0.104403409090907 11.4947916666666  0.174005681818187 11.0885416666666  C 0.243607954545439 10.6822916666666  0.331439393939377 10.3055555555555  0.4375 9.95833333333337  C 0.543560606060623 9.61111111111109  0.686079545454561 9.27256944444446  0.865056818181813 8.94270833333337  C 1.04403409090909 8.61284722222217  1.24952651515153 8.33159722222217  1.48153409090909 8.09895833333337  C 1.71354166666669 7.86631944444446  1.99692234848484 7.68055555555554  2.33167613636365 7.54166666666663  C 2.66642992424241 7.40277777777783  3.03598484848484 7.33333333333337  3.44034090909091 7.33333333333337  C 3.5 7.33333333333337  3.63920454545456 7.40798611111109  3.85795454545456 7.55729166666663  C 4.07670454545456 7.70659722222217  4.32362689393938 7.87326388888891  4.59872159090909 8.05729166666663  C 4.87381628787878 8.24131944444446  5.23177083333331 8.40798611111109  5.67258522727275 8.55729166666663  C 6.11339962121212 8.70659722222217  6.55587121212119 8.78125  7 8.78125  C 7.44412878787881 8.78125  7.88660037878788 8.70659722222217  8.32741477272725 8.55729166666663  C 8.76822916666669 8.40798611111109  9.12618371212119 8.24131944444446  9.40127840909093 8.05729166666663  C 9.67637310606062 7.87326388888891  9.92329545454544 7.70659722222217  10.1420454545454 7.55729166666663  C 10.3607954545454 7.40798611111109  10.5 7.33333333333337  10.5596590909091 7.33333333333337  C 10.9640151515152 7.33333333333337  11.3335700757576 7.40277777777783  11.6683238636364 7.54166666666663  C 12.0030776515152 7.68055555555554  12.2864583333334 7.86631944444446  12.5184659090909 8.09895833333337  C 12.7504734848485 8.33159722222217  12.9559659090909 8.61284722222217  13.1349431818182 8.94270833333337  C 13.3139204545454 9.27256944444446  13.4564393939394 9.61111111111109  13.5625 9.95833333333337  C 13.6685606060606 10.3055555555555  13.7563920454546 10.6822916666666  13.8259943181818 11.0885416666666  C 13.8955965909091 11.4947916666666  13.9419981060606 11.8732638888889  13.9651988636364 12.2239583333334  Z M 9.69957386363637 1.171875  C 10.4453125 1.953125  10.8181818181818 2.89583333333337  10.8181818181818 4  C 10.8181818181818 5.10416666666663  10.4453125 6.046875  9.69957386363637 6.828125  C 8.95383522727275 7.609375  8.05397727272725 8  7 8  C 5.94602272727275 8  5.04616477272725 7.609375  4.30042613636365 6.828125  C 3.5546875 6.046875  3.18181818181819 5.10416666666663  3.18181818181819 4  C 3.18181818181819 2.89583333333337  3.5546875 1.953125  4.30042613636365 1.171875  C 5.04616477272725 0.390625  5.94602272727275 0  7 0  C 8.05397727272725 0  8.95383522727275 0.390625  9.69957386363637 1.171875  Z " fill-rule="nonzero" fill="#333333" stroke="none" transform="matrix(1 0 0 1 42 23 )" />
  </g>
</svg>