<?xml version="1.0" encoding="utf-8"?>
<svg version="1.1" xmlns:xlink="http://www.w3.org/1999/xlink" width="12px" height="12px" viewBox="600 420  12 12" xmlns="http://www.w3.org/2000/svg">
  <path d="M 606 420  C 609.36 420  612 422.64  612 426  C 612 429.36  609.36 432  606 432  C 602.64 432  600 429.36  600 426  C 600 422.64  602.64 420  606 420  Z " fill-rule="nonzero" fill="#ffffff" stroke="none" />
  <path d="M 606 420.5  C 609.08 420.5  611.5 422.92  611.5 426  C 611.5 429.08  609.08 431.5  606 431.5  C 602.92 431.5  600.5 429.08  600.5 426  C 600.5 422.92  602.92 420.5  606 420.5  Z " stroke-width="1" stroke="#797979" fill="none" />
  <path d="M 606 429  C 604.32 429  603 427.68  603 426  C 603 424.32  604.32 423  606 423  C 607.68 423  609 424.32  609 426  C 609 427.68  607.68 429  606 429  " fill-rule="nonzero" fill="#797979" stroke="none" />
</svg>