<?xml version="1.0" encoding="utf-8"?>
<svg version="1.1" xmlns:xlink="http://www.w3.org/1999/xlink" width="12px" height="12px" viewBox="87 472  12 12" xmlns="http://www.w3.org/2000/svg">
  <path d="M 93 472  C 96.36 472  99 474.64  99 478  C 99 481.36  96.36 484  93 484  C 89.64 484  87 481.36  87 478  C 87 474.64  89.64 472  93 472  Z " fill-rule="nonzero" fill="#ffffff" stroke="none" />
  <path d="M 93 472.5  C 96.08 472.5  98.5 474.92  98.5 478  C 98.5 481.08  96.08 483.5  93 483.5  C 89.92 483.5  87.5 481.08  87.5 478  C 87.5 474.92  89.92 472.5  93 472.5  Z " stroke-width="1" stroke="#797979" fill="none" />
  <path d="M 93 481  C 91.32 481  90 479.68  90 478  C 90 476.32  91.32 475  93 475  C 94.68 475  96 476.32  96 478  C 96 479.68  94.68 481  93 481  " fill-rule="nonzero" fill="#797979" stroke="none" />
</svg>