<?xml version="1.0" encoding="utf-8"?>
<svg version="1.1" xmlns:xlink="http://www.w3.org/1999/xlink" width="12px" height="12px" viewBox="87 883  12 12" xmlns="http://www.w3.org/2000/svg">
  <path d="M 93 883  C 96.36 883  99 885.64  99 889  C 99 892.36  96.36 895  93 895  C 89.64 895  87 892.36  87 889  C 87 885.64  89.64 883  93 883  Z " fill-rule="nonzero" fill="#ffffff" stroke="none" />
  <path d="M 93 883.5  C 96.08 883.5  98.5 885.92  98.5 889  C 98.5 892.08  96.08 894.5  93 894.5  C 89.92 894.5  87.5 892.08  87.5 889  C 87.5 885.92  89.92 883.5  93 883.5  Z " stroke-width="1" stroke="#797979" fill="none" />
  <path d="M 93 892  C 91.32 892  90 890.68  90 889  C 90 887.32  91.32 886  93 886  C 94.68 886  96 887.32  96 889  C 96 890.68  94.68 892  93 892  " fill-rule="nonzero" fill="#797979" stroke="none" />
</svg>