<?xml version="1.0" encoding="utf-8"?>
<svg version="1.1" xmlns:xlink="http://www.w3.org/1999/xlink" width="12px" height="12px" viewBox="87 61  12 12" xmlns="http://www.w3.org/2000/svg">
  <path d="M 93 61  C 96.36 61  99 63.64  99 67  C 99 70.36  96.36 73  93 73  C 89.64 73  87 70.36  87 67  C 87 63.64  89.64 61  93 61  Z " fill-rule="nonzero" fill="#ffffff" stroke="none" />
  <path d="M 93 61.5  C 96.08 61.5  98.5 63.92  98.5 67  C 98.5 70.08  96.08 72.5  93 72.5  C 89.92 72.5  87.5 70.08  87.5 67  C 87.5 63.92  89.92 61.5  93 61.5  Z " stroke-width="1" stroke="#797979" fill="none" />
  <path d="M 93 70  C 91.32 70  90 68.68  90 67  C 90 65.32  91.32 64  93 64  C 94.68 64  96 65.32  96 67  C 96 68.68  94.68 70  93 70  " fill-rule="nonzero" fill="#797979" stroke="none" />
</svg>