<?xml version="1.0" encoding="utf-8"?>
<svg version="1.1" xmlns:xlink="http://www.w3.org/1999/xlink" width="39px" height="45px" xmlns="http://www.w3.org/2000/svg">
  <g transform="matrix(1 0 0 1 -26 -15 )">
    <path d="M 38.9030539772727 34.3798828125001  C 38.9676846590909 35.3662109375001  39 36.3769531250001  39 37.4121093750001  C 39 39.7558593749999  38.3259943181818 41.6064453125001  36.9779829545454 42.9638671874999  C 35.6299715909092 44.3212890624999  33.8387784090908 45  31.6044034090909 45  L 7.39559659090912 45  C 5.16122159090912 45  3.37002840909088 44.3212890624999  2.02201704545456 42.9638671874999  C 0.674005681818159 41.6064453125001  0 39.7558593749999  0 37.4121093750001  C 0 36.3769531250001  0.0323153409090935 35.3662109375001  0.0969460227273089 34.3798828125001  C 0.161576704545411 33.3935546875001  0.290838068181813 32.3291015624999  0.484730113636374 31.1865234374999  C 0.678622159090878 30.0439453124999  0.923295454545411 28.984375  1.21875 28.0078125000001  C 1.51420454545459 27.0312499999999  1.91122159090912 26.0791015625  2.40980113636363 25.1513671875001  C 2.90838068181819 24.2236328124999  3.4808238636364 23.4326171874999  4.12713068181819 22.7783203125001  C 4.77343750000006 22.1240234375  5.56285511363635 21.6015625  6.49538352272731 21.2109374999999  C 7.42791193181813 20.8203125000001  8.45738636363635 20.6250000000001  9.58380681818181 20.6250000000001  C 9.75 20.6250000000001  10.1377840909091 20.8349609374999  10.7471590909091 21.2548828124999  C 11.3565340909091 21.6748046874999  12.0443892045454 22.1435546875001  12.8107244318182 22.6611328124999  C 13.5770596590909 23.1787109375  14.5742187499999 23.6474609374999  15.8022017045455 24.0673828124999  C 17.0301846590909 24.4873046874999  18.262784090909 24.697265625  19.5 24.697265625  C 20.737215909091 24.697265625  21.9698153409091 24.4873046874999  23.1977982954545 24.0673828124999  C 24.4257812500001 23.6474609374999  25.422940340909 23.1787109375  26.1892755681819 22.6611328124999  C 26.9556107954546 22.1435546875001  27.6434659090909 21.6748046874999  28.2528409090909 21.2548828124999  C 28.8622159090909 20.8349609374999  29.25 20.6250000000001  29.4161931818182 20.6250000000001  C 30.5426136363637 20.6250000000001  31.5720880681818 20.8203125000001  32.5046164772727 21.2109374999999  C 33.4371448863637 21.6015625  34.2265625000001 22.1240234375  34.8728693181818 22.7783203125001  C 35.5191761363637 23.4326171874999  36.0916193181818 24.2236328124999  36.5901988636364 25.1513671875001  C 37.0887784090909 26.0791015625  37.4857954545456 27.0312499999999  37.78125 28.0078125000001  C 38.0767045454544 28.984375  38.3213778409091 30.0439453124999  38.5152698863636 31.1865234374999  C 38.7091619318182 32.3291015624999  38.8384232954544 33.3935546875001  38.9030539772727 34.3798828125001  Z M 27.0202414772727 3.2958984375  C 29.09765625 5.4931640625  30.1363636363636 8.14453125000011  30.1363636363636 11.25  C 30.1363636363636 14.3554687499999  29.09765625 17.0068359375  27.0202414772727 19.2041015625  C 24.9428267045455 21.4013671875  22.4360795454545 22.5  19.5 22.5  C 16.5639204545455 22.5  14.0571732954545 21.4013671875  11.9797585227273 19.2041015625  C 9.90234375 17.0068359375  8.86363636363637 14.3554687499999  8.86363636363637 11.25  C 8.86363636363637 8.14453125000011  9.90234375 5.4931640625  11.9797585227273 3.2958984375  C 14.0571732954545 1.0986328125  16.5639204545455 0  19.5 0  C 22.4360795454545 0  24.9428267045455 1.0986328125  27.0202414772727 3.2958984375  Z " fill-rule="nonzero" fill="#333333" stroke="none" transform="matrix(1 0 0 1 26 15 )" />
  </g>
</svg>