<?xml version="1.0" encoding="utf-8"?>
<svg version="1.1" xmlns:xlink="http://www.w3.org/1999/xlink" width="93px" height="93px" xmlns="http://www.w3.org/2000/svg">
  <g transform="matrix(1 0 0 1 -384 -204 )">
    <path d="M 385 208  A 3 3 0 0 1 388 205 L 473 205  A 3 3 0 0 1 476 208 L 476 293  A 3 3 0 0 1 473 296 L 388 296  A 3 3 0 0 1 385 293 L 385 208  Z " fill-rule="nonzero" fill="#000000" stroke="none" fill-opacity="0.0196078431372549" />
    <path d="M 384.5 208  A 3.5 3.5 0 0 1 388 204.5 L 473 204.5  A 3.5 3.5 0 0 1 476.5 208 L 476.5 293  A 3.5 3.5 0 0 1 473 296.5 L 388 296.5  A 3.5 3.5 0 0 1 384.5 293 L 384.5 208  Z " stroke-width="1" stroke-dasharray="9,4" stroke="#d9d9d9" fill="none" stroke-dashoffset="0.5" />
  </g>
</svg>