<?xml version="1.0" encoding="utf-8"?>
<svg version="1.1" xmlns:xlink="http://www.w3.org/1999/xlink" width="11px" height="19px" xmlns="http://www.w3.org/2000/svg">
  <g transform="matrix(1 0 0 1 -1019 -618 )">
    <path d="M 10.8109965635738 1.14228456913828  C 10.9369988545245 1.2692050768203  11 1.41516366065464  11 1.58016032064128  C 11 1.74515698062793  10.9369988545245 1.89111556446225  10.8109965635738 2.01803607214428  L 3.38316151202753 9.5  L 10.8109965635738 16.9819639278557  C 10.9369988545245 17.1088844355377  11 17.2548430193721  11 17.4198396793587  C 11 17.5848363393454  10.9369988545245 17.7307949231797  10.8109965635738 17.8577154308617  L 9.86597938144337 18.809619238477  C 9.73997709049263 18.936539746159  9.59507445589929 19  9.43127147766336 19  C 9.26746849942742 19  9.12256586483409 18.936539746159  8.99656357388312 18.809619238477  L 0.189003436426219 9.93787575150301  C 0.0630011454752548 9.81095524382098  0 9.66499665998663  0 9.5  C 0 9.33500334001337  0.0630011454752548 9.18904475617902  0.189003436426219 9.06212424849699  L 8.99656357388312 0.190380761523045  C 9.12256586483409 0.0634602538410149  9.26746849942742 0  9.43127147766336 0  C 9.59507445589929 0  9.73997709049263 0.0634602538410149  9.86597938144337 0.190380761523045  L 10.8109965635738 1.14228456913828  Z " fill-rule="nonzero" fill="#333333" stroke="none" transform="matrix(1 0 0 1 1019 618 )" />
  </g>
</svg>