<?xml version="1.0" encoding="utf-8"?>
<svg version="1.1" xmlns:xlink="http://www.w3.org/1999/xlink" width="18px" height="15px" xmlns="http://www.w3.org/2000/svg">
  <g transform="matrix(1 0 0 1 -1037 -1137 )">
    <path d="M 8.10216346153857 1.28691983122371  C 8.23918269230762 1.42053445850911  8.30769230769238 1.57876230661032  8.30769230769238 1.76160337552733  L 8.30769230769238 13.2383966244727  C 8.30769230769238 13.4212376933897  8.23918269230762 13.5794655414909  8.10216346153857 13.7130801687763  C 7.96514423076928 13.8466947960619  7.80288461538453 13.9135021097047  7.61538461538453 13.9135021097047  C 7.42788461538453 13.9135021097047  7.265625 13.8466947960619  7.12860576923072 13.7130801687763  L 3.52644230769238 10.2004219409282  L 0.692307692307622 10.2004219409282  C 0.504807692307622 10.2004219409282  0.342548076923094 10.1336146272856  0.205528846153811 10  C 0.0685096153845279 9.86638537271438  0 9.70815752461317  0 9.52531645569616  L 0 5.47468354430384  C 0 5.29184247538683  0.0685096153845279 5.13361462728562  0.205528846153811 5  C 0.342548076923094 4.86638537271438  0.504807692307622 4.79957805907179  0.692307692307622 4.79957805907179  L 3.52644230769238 4.79957805907179  L 7.12860576923072 1.28691983122371  C 7.265625 1.15330520393809  7.42788461538453 1.08649789029528  7.61538461538453 1.08649789029528  C 7.80288461538453 1.08649789029528  7.96514423076928 1.15330520393809  8.10216346153857 1.28691983122371  Z M 12.0018028846155 6.00210970464127  C 12.3082932692307 6.46624472573831  12.4615384615386 6.96554149085796  12.4615384615386 7.5  C 12.4615384615386 8.03445850914204  12.3082932692307 8.53199718706037  12.0018028846155 8.99261603375521  C 11.6953125 9.45323488045005  11.2896634615386 9.78199718706037  10.7848557692307 9.97890295358638  C 10.7127403846155 10.014064697609  10.6225961538462 10.0316455696202  10.5144230769231 10.0316455696202  C 10.3269230769231 10.0316455696202  10.1646634615386 9.96659634317871  10.0276442307693 9.83649789029528  C 9.890625 9.70639943741207  9.82211538461547 9.54641350210977  9.82211538461547 9.35654008438814  C 9.82211538461547 9.20886075949375  9.86538461538453 9.08403656821383  9.95192307692309 8.98206751054863  C 10.0384615384614 8.8800984528832  10.1430288461538 8.792194092827  10.265625 8.7183544303798  C 10.3882211538462 8.64451476793238  10.5108173076924 8.56364275668079  10.6334134615386 8.47573839662437  C 10.7560096153845 8.38783403656817  10.8605769230769 8.26300984528825  10.9471153846155 8.10126582278485  C 11.0336538461538 7.93952180028123  11.0769230769231 7.73909985935302  11.0769230769231 7.5  C 11.0769230769231 7.26090014064698  11.0336538461538 7.06047819971877  10.9471153846155 6.89873417721515  C 10.8605769230769 6.73699015471175  10.7560096153845 6.61216596343183  10.6334134615386 6.52426160337563  C 10.5108173076924 6.43635724331921  10.3882211538462 6.35548523206762  10.265625 6.2816455696202  C 10.1430288461538 6.207805907173  10.0384615384614 6.1199015471168  9.95192307692309 6.01793248945137  C 9.86538461538453 5.91596343178617  9.82211538461547 5.79113924050625  9.82211538461547 5.64345991561186  C 9.82211538461547 5.45358649789023  9.890625 5.29360056258793  10.0276442307693 5.16350210970472  C 10.1646634615386 5.03340365682129  10.3269230769231 4.9683544303798  10.5144230769231 4.9683544303798  C 10.6225961538462 4.9683544303798  10.7127403846155 4.985935302391  10.7848557692307 5.02109704641362  C 11.2896634615386 5.21097046413502  11.6953125 5.53797468354423  12.0018028846155 6.00210970464127  Z M 14.3112980769231 4.52004219409287  C 14.9242788461538 5.43073136427574  15.2307692307693 6.4240506329113  15.2307692307693 7.5  C 15.2307692307693 8.5759493670887  14.9242788461538 9.56926863572426  14.3112980769231 10.4799578059071  C 13.6983173076924 11.39064697609  12.8870192307693 12.0534458509142  11.8774038461538 12.4683544303798  C 11.7836538461538 12.5035161744022  11.6935096153845 12.5210970464136  11.6069711538462 12.5210970464136  C 11.4122596153845 12.5210970464136  11.2463942307693 12.4542897327708  11.109375 12.3206751054852  C 10.9723557692307 12.1870604781998  10.9038461538462 12.0288326300983  10.9038461538462 11.8459915611813  C 10.9038461538462 11.5717299578059  11.0444711538462 11.3642756680731  11.3257211538462 11.2236286919831  C 11.7295673076924 11.0196905766527  12.0036057692307 10.8649789029537  12.1478365384614 10.7594936708861  C 12.6814903846155 10.379746835443  13.0979567307693 9.90330520393809  13.3972355769231 9.33016877637124  C 13.6965144230769 8.75703234880439  13.8461538461538 8.14697609001405  13.8461538461538 7.5  C 13.8461538461538 6.85302390998595  13.6965144230769 6.24296765119539  13.3972355769231 5.66983122362876  C 13.0979567307693 5.09669479606191  12.6814903846155 4.62025316455697  12.1478365384614 4.24050632911394  C 12.0036057692307 4.13502109704632  11.7295673076924 3.98030942334731  11.3257211538462 3.77637130801691  C 11.0444711538462 3.63572433192689  10.9038461538462 3.42827004219407  10.9038461538462 3.15400843881866  C 10.9038461538462 2.97116736990165  10.9723557692307 2.81293952180022  11.109375 2.67932489451482  C 11.2463942307693 2.5457102672292  11.4086538461538 2.47890295358638  11.5961538461538 2.47890295358638  C 11.6899038461538 2.47890295358638  11.7836538461538 2.49648382559781  11.8774038461538 2.5316455696202  C 12.8870192307693 2.94655414908584  13.6983173076924 3.60935302390999  14.3112980769231 4.52004219409287  Z M 16.6262019230769 3.04324894514775  C 17.5420673076924 4.39697609001405  18 5.88255977496488  18 7.5  C 18 9.11744022503513  17.5420673076924 10.603023909986  16.6262019230769 11.9567510548522  C 15.7103365384614 13.3104781997188  14.4915865384614 14.3073136427568  12.9699519230769 14.9472573839662  C 12.8762019230769 14.9824191279888  12.7824519230769 15  12.6887019230769 15  C 12.5012019230769 15  12.3389423076924 14.9331926863572  12.2019230769231 14.7995780590718  C 12.0649038461538 14.6659634317862  11.9963942307693 14.507735583685  11.9963942307693 14.3248945147679  C 11.9963942307693 14.0717299578059  12.1370192307693 13.8642756680731  12.4182692307693 13.7025316455697  C 12.46875 13.6744022503517  12.5498798076924 13.637482419128  12.6616586538462 13.5917721518988  C 12.7734375 13.5460618846694  12.8545673076924 13.5091420534459  12.9050480769231 13.4810126582279  C 13.2367788461538 13.3052039381153  13.5324519230769 13.1258790436007  13.7920673076924 12.9430379746836  C 14.6790865384614 12.303094233474  15.3713942307693 11.5049226441631  15.8689903846155 10.548523206751  C 16.3665865384614 9.59212376933897  16.6153846153845 8.5759493670887  16.6153846153845 7.5  C 16.6153846153845 6.4240506329113  16.3665865384614 5.40787623066103  15.8689903846155 4.45147679324896  C 15.3713942307693 3.49507735583688  14.6790865384614 2.69690576652602  13.7920673076924 2.05696202531635  C 13.5324519230769 1.87412095639934  13.2367788461538 1.69479606188474  12.9050480769231 1.51898734177212  C 12.8545673076924 1.49085794655412  12.7734375 1.45393811533063  12.6616586538462 1.40822784810121  C 12.5498798076924 1.36251758087201  12.46875 1.3255977496483  12.4182692307693 1.29746835443029  C 12.1370192307693 1.13572433192689  11.9963942307693 0.928270042194072  11.9963942307693 0.675105485232052  C 11.9963942307693 0.492264416315038  12.0649038461538 0.334036568213833  12.2019230769231 0.200421940928209  C 12.3389423076924 0.066807313642812  12.5012019230769 0  12.6887019230769 0  C 12.7824519230769 0  12.8762019230769 0.0175808720111945  12.9699519230769 0.0527426160338109  C 14.4915865384614 0.692686357243247  15.7103365384614 1.68952180028123  16.6262019230769 3.04324894514775  Z " fill-rule="nonzero" fill="#333333" stroke="none" transform="matrix(1 0 0 1 1037 1137 )" />
  </g>
</svg>